<?xml version="1.0" encoding="UTF-8"?><svg xmlns="http://www.w3.org/2000/svg" viewBox="0 0 318.19 391.38"><defs><style>.d{fill:#658c81;}</style></defs><g id="a"/><g id="b"><g id="c"><g><path class="d" d="M159.94,374.13c-1.46,2.25-1.79,3.21-2.46,3.73q-23.86,18.4-45.3-2.2c-23.74-22.75-50.06-43.35-70.85-68.52C-21.68,230.87-11.86,133.19,65.42,71.14,111.62,34.06,163.88,7.54,224.25,1.12c28.9-3.07,56.81-.38,82.18,15.4,4.12,2.56,7.88,5.7,11.76,8.54-11.2,16.81-20.67,19.8-36.51,11.69-25.09-12.86-51.15-8.84-76.83-3.7-47.06,9.41-88.53,31.76-124.62,62.32-64.69,54.78-66.99,143.89-5.43,207.16,22.5,23.13,49.02,42.36,73.78,63.28,3.39,2.86,7.16,5.26,11.37,8.32Z"/><path class="d" d="M276.87,57.46c-7.8,9.28-11.76,14.77-16.57,19.38-2.23,2.14-6.62,4.29-9.14,3.53-26.35-7.98-50.31,1.99-73.47,11.21-28.96,11.53-56.44,26.72-75.99,52.33-24.68,32.33-27.27,76.57-4.35,110.22,12.59,18.5,28.19,35.23,44.03,51.16,16.52,16.62,37.28,23.05,60.92,17.71,3.27-.74,6.85-.1,10.61-.1-8.24,23.56-23.04,32.93-44.79,27.09-54.79-14.71-85.02-54.92-105.19-104.48-15.35-37.72-11.54-74.34,10.41-108.59,5.77-9.01,12.88-17.62,20.92-24.63,40.24-35.07,87.62-55.18,140.19-61.87,12.5-1.59,25.92,4.07,42.44,7.03Z"/><path class="d" d="M241.71,242.13c-1.04,8.78-.03,18.2-3.41,25.61-11.25,24.61-44,36.9-69.39,27.45-40.3-15-70.51-77.56-56.88-118.11,1.57-4.67,3.37-9.54,6.25-13.45,26.12-35.42,63.05-52.4,104.93-60.56,3.43-.67,7.23,.01,10.77,.58,2.58,.41,5.03,1.66,8.59,2.9-1.85,12.05-3.65,23.81-5.05,32.93-18.63,2.21-36.17,2.5-52.77,6.6-42.76,10.54-67.62,53-33.31,103.71,8.25,12.19,21.8,15.39,35.1,11.8,17.52-4.74,34.37-11.97,55.17-19.45Z"/></g></g></g></svg>