<?xml version="1.0" encoding="UTF-8"?><svg xmlns="http://www.w3.org/2000/svg" viewBox="0 0 755.82 244.39"><defs><style>.d{fill:#658c81;}.e{fill:none;stroke:#658c81;stroke-miterlimit:10;stroke-width:2px;}</style></defs><g id="a"/><g id="b"><g id="c"><g><path class="d" d="M319.79,60.26h-15.12l-4.19,10.33h-5.22l17.18-40.94h.33l17.18,40.94h-6.09l-4.08-10.33Zm-1.79-4.57l-5.6-14.35-5.82,14.35h11.42Z"/><path class="d" d="M359.24,69.97c-1.94,.71-4.05,1.06-6.33,1.06-4.02,0-7.57-.89-10.63-2.66-3.06-1.78-5.42-4.17-7.07-7.18-1.65-3.01-2.47-6.33-2.47-9.95,0-3.88,.83-7.37,2.5-10.47,1.67-3.1,3.98-5.53,6.93-7.29,2.95-1.76,6.3-2.64,10.03-2.64,2.21,0,4.28,.29,6.2,.87,1.92,.58,3.64,1.34,5.17,2.28l-2.12,4.95c-3.01-2.03-6.04-3.05-9.08-3.05-2.54,0-4.89,.67-7.04,2.01-2.16,1.34-3.88,3.16-5.17,5.46-1.29,2.3-1.93,4.83-1.93,7.59s.59,5.38,1.77,7.67c1.18,2.28,2.86,4.07,5.06,5.36,2.19,1.29,4.72,1.93,7.59,1.93,3.52,0,6.58-1,9.19-2.99l2.23,4.73c-1.27,.83-2.87,1.6-4.81,2.31Z"/><path class="d" d="M393.52,60.26h-15.12l-4.19,10.33h-5.22l17.18-40.94h.33l17.18,40.94h-6.09l-4.08-10.33Zm-1.79-4.57l-5.6-14.35-5.82,14.35h11.42Z"/><path class="d" d="M411.03,31.28h10.77c4.89,0,8.95,.97,12.15,2.91,3.21,1.94,5.55,4.44,7.01,7.5,1.47,3.06,2.2,6.3,2.2,9.71,0,3.81-.89,7.17-2.67,10.09-1.78,2.92-4.15,5.17-7.12,6.74-2.97,1.58-6.2,2.37-9.68,2.37h-12.67V31.28Zm11.64,34.2c2.9,0,5.49-.57,7.78-1.71,2.28-1.14,4.07-2.8,5.36-4.98,1.29-2.17,1.93-4.77,1.93-7.78s-.67-5.73-2.01-7.94c-1.34-2.21-3.13-3.89-5.36-5.03-2.23-1.14-4.63-1.71-7.21-1.71h-6.85v29.15h6.36Z"/><path class="d" d="M477.59,31.28v5.06h-20.28v11.96h18.11v5.06h-18.11v12.13h21.04v5.11h-26.32V31.28h25.56Z"/><path class="d" d="M526.63,30.03v40.56h-5.22v-25.45l-14.46,20.5h-.11l-14.19-19.79v24.74h-5.11V30.03h.05l19.36,27.4,19.63-27.4h.05Z"/><path class="d" d="M543.22,31.28v39.31h-5.27V31.28h5.27Z"/><path class="d" d="M575.13,60.26h-15.12l-4.19,10.33h-5.22l17.18-40.94h.33l17.18,40.94h-6.09l-4.08-10.33Zm-1.79-4.57l-5.6-14.35-5.82,14.35h11.42Z"/></g><g><path class="d" d="M300.54,112.43v39.31h-5.27v-39.31h5.27Z"/><path class="d" d="M346.11,112.43v40.62h-.16l-28.87-29.31,.11,28h-5.33v-40.51h.27l28.82,29.63-.11-28.44h5.27Z"/><path class="d" d="M380.64,112.43v5.06h-10.55v34.26h-5.27v-34.26h-10.28v-5.06h26.1Z"/><path class="d" d="M414.62,112.43v5.06h-20.28v11.96h18.11v5.06h-18.11v12.13h21.04v5.11h-26.32v-39.31h25.56Z"/><path class="d" d="M446.21,151.75l-9.24-14.52c-.29,.04-.73,.05-1.31,.05h-5.82v14.46h-5.27v-39.31h10.49c2.68,0,5.07,.47,7.18,1.41,2.1,.94,3.75,2.33,4.95,4.16,1.2,1.83,1.79,4.03,1.79,6.61,0,2.43-.54,4.66-1.6,6.69-1.07,2.03-2.71,3.57-4.92,4.62l9.9,15.82h-6.14Zm-4.54-21.8c1.25-1.49,1.88-3.19,1.88-5.11,0-1.16-.26-2.3-.79-3.43-.53-1.12-1.36-2.06-2.5-2.8-1.14-.74-2.58-1.11-4.32-1.11h-6.09v14.68h5.71c2.83,0,4.87-.74,6.12-2.23Z"/><path class="d" d="M494.71,112.43v40.62h-.16l-28.87-29.31,.11,28h-5.33v-40.51h.27l28.82,29.63-.11-28.44h5.27Z"/><path class="d" d="M526.63,141.42h-15.12l-4.19,10.33h-5.22l17.18-40.94h.33l17.18,40.94h-6.09l-4.08-10.33Zm-1.79-4.57l-5.6-14.35-5.82,14.35h11.42Z"/><path class="d" d="M566.08,151.12c-1.94,.71-4.05,1.06-6.33,1.06-4.02,0-7.57-.89-10.63-2.66-3.06-1.78-5.42-4.17-7.07-7.18-1.65-3.01-2.47-6.33-2.47-9.95,0-3.88,.83-7.37,2.5-10.47,1.67-3.1,3.98-5.53,6.93-7.29,2.95-1.76,6.3-2.64,10.03-2.64,2.21,0,4.28,.29,6.2,.87,1.92,.58,3.64,1.34,5.17,2.28l-2.12,4.95c-3.01-2.03-6.04-3.05-9.08-3.05-2.54,0-4.89,.67-7.04,2.01-2.16,1.34-3.88,3.16-5.17,5.46-1.29,2.3-1.93,4.83-1.93,7.59s.59,5.38,1.77,7.67,2.86,4.07,5.06,5.36c2.19,1.29,4.72,1.93,7.58,1.93,3.52,0,6.58-1,9.19-2.99l2.23,4.73c-1.27,.83-2.87,1.6-4.81,2.31Z"/><path class="d" d="M585.03,112.43v39.31h-5.27v-39.31h5.27Z"/><path class="d" d="M596.61,122.11c1.81-3.08,4.25-5.54,7.31-7.37,3.06-1.83,6.41-2.75,10.03-2.75s6.92,.92,10,2.75c3.08,1.83,5.54,4.29,7.37,7.37,1.83,3.08,2.75,6.42,2.75,10s-.91,6.98-2.72,10.06c-1.81,3.08-4.27,5.52-7.37,7.31-3.1,1.79-6.44,2.69-10.03,2.69s-6.98-.89-10.06-2.66c-3.08-1.78-5.52-4.2-7.31-7.26-1.79-3.06-2.69-6.44-2.69-10.14s.91-6.92,2.72-10Zm4.68,17.51c1.3,2.28,3.09,4.1,5.36,5.44,2.26,1.34,4.74,2.01,7.42,2.01s5.14-.66,7.37-1.98c2.23-1.32,3.99-3.13,5.27-5.44,1.29-2.3,1.93-4.81,1.93-7.53s-.65-5.24-1.96-7.56c-1.3-2.32-3.08-4.15-5.33-5.49-2.25-1.34-4.71-2.01-7.39-2.01s-5.15,.68-7.39,2.04c-2.25,1.36-4.02,3.2-5.3,5.52-1.29,2.32-1.93,4.84-1.93,7.56s.65,5.17,1.96,7.45Z"/><path class="d" d="M677.19,112.43v40.62h-.16l-28.87-29.31,.11,28h-5.33v-40.51h.27l28.82,29.63-.11-28.44h5.27Z"/><path class="d" d="M709.11,141.42h-15.12l-4.19,10.33h-5.22l17.18-40.94h.33l17.18,40.94h-6.09l-4.08-10.33Zm-1.79-4.57l-5.6-14.35-5.82,14.35h11.42Z"/><path class="d" d="M731.89,112.43v34.2h20.01v5.11h-25.28v-39.31h5.27Z"/></g><g><path class="d" d="M342.17,239.03c-2.34,1.05-4.92,1.91-7.74,2.58-2.82,.67-5.39,1.01-7.7,1.01-6.29,0-11.82-1.22-16.58-3.67-4.76-2.45-8.43-5.83-11.01-10.16-2.58-4.33-3.87-9.26-3.87-14.8,0-6.94,1.37-12.81,4.11-17.63,2.74-4.81,6.43-8.42,11.05-10.81,4.62-2.39,9.73-3.59,15.33-3.59,3.6,0,6.99,.4,10.16,1.21,3.17,.81,5.97,1.86,8.39,3.15l-3.79,10.89c-1.56-.86-3.7-1.65-6.41-2.38-2.72-.73-4.99-1.09-6.82-1.09-6.45,0-11.39,1.61-14.8,4.84-3.42,3.23-5.12,8.01-5.12,14.36,0,3.66,.83,6.84,2.5,9.56,1.67,2.72,3.99,4.8,6.98,6.25s6.39,2.18,10.2,2.18,6.37-.51,8.15-1.53v-7.18h-10.24v-11.29h22.1v25.09c-.92,.97-2.54,1.98-4.88,3.03Z"/><path class="d" d="M392.07,230.36h-19.68l-4.84,11.62h-11.53l26.78-61.71h.65l26.78,61.71h-13.55l-4.6-11.62Zm-3.87-9.84l-5.73-14.44-5.97,14.44h11.7Z"/><path class="d" d="M432.88,182.6v48.08h27.91v11.29h-39.61v-59.37h11.7Z"/><path class="d" d="M504.59,230.36h-19.68l-4.84,11.62h-11.53l26.78-61.71h.65l26.78,61.71h-13.55l-4.6-11.62Zm-3.87-9.84l-5.73-14.44-5.97,14.44h11.7Z"/><path class="d" d="M594.86,180.18v61.79h-11.7v-28.31l-19.36,27.51h-.16l-18.63-25.73v26.54h-11.29v-61.79h.08l30.09,42.67,30.81-42.67h.16Z"/><path class="d" d="M624.22,182.6v59.37h-11.7v-59.37h11.7Z"/><path class="d" d="M671.25,230.36h-19.68l-4.84,11.62h-11.53l26.78-61.71h.65l26.78,61.71h-13.55l-4.6-11.62Zm-3.87-9.84l-5.73-14.44-5.97,14.44h11.7Z"/><path class="d" d="M753.85,182.6v61.79h-.32l-41.54-37.51,.24,35.09h-11.86v-61.71h.48l41.46,38.07-.24-35.74h11.78Z"/></g><g><path class="d" d="M257.53,113.46s-.07-.09-.1-.14c-.93-1.44-1.82-2.91-2.81-4.31-1.02-1.44-1.7-2.91-.98-4.69,.04-.1,.04-.23,.05-.34,.31-3.59,.68-7.17,.92-10.76,.28-4.42,.05-8.81-1.32-13.06-.53-1.66-1.36-3.15-2.81-4.22-2.2-1.63-6.22-1.28-7.21,2.01-.3,1-.55,2.05-.58,3.09-.11,3.91,.84,7.66,1.98,11.35,1.48,4.81,3.32,9.49,5.61,13.99,.15,.3,.19,.72,.12,1.06-.3,1.6-.66,3.18-1,4.77-1.02,4.7-2.35,9.3-4.14,13.76-1.31,3.25-2.78,6.41-5.18,9.03-1.02,1.11-2.2,2.07-3.81,1.58-.96-.28-1.88-.83-2.7-1.44-2.44-1.8-4.15-4.24-5.65-6.82-.2-.35-.32-.81-.33-1.22-.09-3.23-.1-6.46-.24-9.69-.17-3.85-.38-7.71-.71-11.56-.37-4.3-.83-8.6-1.36-12.88-.52-4.23-1.08-8.46-1.76-12.66-.64-3.91-1.45-7.8-2.2-11.7-.92-4.8-2.03-9.56-3.71-14.15-.58-1.59-1.41-3.13-2.34-4.54-.83-1.26-2.23-1.05-2.97,.26-.13,.22-.23,.46-.32,.7-.84,2.11-.98,4.36-1.05,6.58-.19,6.75-.09,13.5,.67,20.22,.4,3.61,.8,7.22,1.39,10.8,.63,3.8,1.39,7.59,2.24,11.35,.9,3.95,1.85,7.89,2.99,11.78,1.67,5.71,3.7,11.29,6.53,16.55,.15,.28,.2,.66,.18,.99-.23,4.4-.41,8.8-.76,13.19-.45,5.58-1.63,11.02-3.71,16.24-.8,2.02-1.68,4.01-3.12,5.69-1.08,1.26-2.17,1.35-3.27,.15-.78-.86-1.49-1.82-2.04-2.85-2.47-4.61-3.87-9.63-5.2-14.65-.78-2.95-1.47-5.93-2.11-8.92-.93-4.33-1.84-8.67-2.64-13.02-.79-4.3-1.44-8.63-2.13-12.94-.65-4.1-1.33-8.19-1.9-12.29-.81-5.78-1.57-11.56-2.29-17.35-.64-5.17-1.2-10.34-1.79-15.52-.51-4.49-1.05-8.98-1.51-13.47-.63-6.26-1.21-12.52-1.77-18.79-.5-5.53-.97-11.06-1.41-16.59-.2-2.56-.33-5.13-.46-7.7-.03-.62-.26-.85-.85-.92-1.54-.19-1.9,.14-1.79,1.72,.35,4.97,.67,9.94,1.06,14.9,.36,4.53,.79,9.06,1.2,13.59,.28,3.08,.55,6.15,.87,9.23,.48,4.64,.99,9.27,1.5,13.91,.47,4.18,.94,8.36,1.43,12.53,.45,3.86,.92,7.73,1.41,11.59,.42,3.35,.87,6.69,1.33,10.04,.45,3.23,.93,6.45,1.42,9.68,.59,3.84,1.17,7.69,1.81,11.52,.55,3.33,1.15,6.65,1.79,9.96,.82,4.24,1.62,8.48,2.56,12.69,.77,3.43,1.73,6.81,2.64,10.2,1.03,3.84,2.31,7.6,4.08,11.17,.96,1.93,2.06,3.76,3.83,5.09,.95,.71,2,.96,3.15,.75,2.02-.37,3.23-1.81,4.21-3.4,3.01-4.89,4.62-10.33,5.51-15.93,.71-4.45,.93-8.98,1.38-13.47,.07-.66,.14-1.32,.24-2.23,.39,.42,.63,.64,.83,.89,1.39,1.77,3,3.28,4.93,4.46,2.61,1.59,4.96,1.5,7.4-.36,1.81-1.38,3.09-3.21,4.19-5.16,3.59-6.39,5.59-13.35,7.19-20.45,.12-.51,.26-1.01,.45-1.76,.48,.7,.76,1.2,1.12,1.62,.75,.9,1.49,1.82,2.36,2.59,.34,.3,1.18,.47,1.52,.25,.57-.35,.23-1.02-.04-1.53Zm-32.84,8.13c-3.1-7.12-5.18-14.53-6.87-22.07-1.7-7.56-3.02-15.19-3.71-22.92-.68-7.7-.95-15.41-.2-23.12,.16-.02,.32-.03,.47-.05,.54,1.52,1.18,3.01,1.61,4.56,.84,3.03,1.71,6.06,2.33,9.13,1.08,5.4,2.05,10.83,2.93,16.27,.72,4.46,1.32,8.94,1.84,13.42,.47,4.03,.82,8.08,1.11,12.13,.29,3.91,.45,7.82,.65,11.73,.02,.3-.03,.6-.17,.91Zm27.33-29.64c-.14,3.02-.43,6.04-.66,9.06-.02,.23-.09,.46-.14,.68-.08,.01-.15,.02-.23,.03-.57-1.38-1.2-2.75-1.68-4.16-1.06-3.1-2.18-6.2-3.01-9.37-.57-2.2-.74-4.5-.98-6.77-.07-.71,.14-1.48,.33-2.19,.42-1.55,1.89-2.06,3.23-1.17,1.12,.75,1.62,1.92,1.99,3.11,1.08,3.51,1.31,7.13,1.14,10.76ZM146.87,9.4c-.66,.04-1.44-.17-1.48,.92-.06,1.54-.18,3.08-.28,4.62-.19,2.99-.35,5.99-.59,8.98-.3,3.65-.67,7.28-1,10.93-.24,2.65-.45,5.3-.7,7.94-.29,3.1-.6,6.2-.92,9.3-.23,2.21-.47,4.43-.72,6.65-.29,2.67-.6,5.33-.89,8-.22,2.05-.42,4.09-.65,6.13-.31,2.7-.64,5.39-.97,8.08-.32,2.55-.62,5.11-.96,7.66-.45,3.37-.94,6.73-1.41,10.1-.32,2.29-.59,4.58-.95,6.87-.59,3.78-1.22,7.55-1.84,11.33-.57,3.41-1.07,6.83-1.75,10.22-1.1,5.48-2.28,10.96-3.5,16.41-1.12,4.96-2.53,9.84-4.42,14.58-.88,2.21-1.83,4.39-3.48,6.16-1.35,1.46-2.64,1.43-3.73-.23-1.02-1.54-1.97-3.16-2.7-4.85-2.19-5.07-3.33-10.44-3.93-15.9-.43-3.91-.59-7.86-.85-11.8-.12-1.76-.04-3.47,1.05-5,.41-.57,.67-1.26,.92-1.93,1.57-4.2,3.21-8.37,4.65-12.61,.89-2.61,1.5-5.33,2.17-8.01,.61-2.46,1.14-4.95,1.65-7.43,.53-2.54,1.05-5.09,1.47-7.64,.4-2.39,.73-4.8,1-7.21,.37-3.23,.85-6.47,.96-9.71,.17-5.11,.15-10.24,.05-15.35-.03-1.83-.45-3.68-.85-5.48-.18-.83-.58-1.74-1.62-1.92-1.05-.17-1.65,.52-2.11,1.32-.53,.92-1.1,1.83-1.43,2.82-.89,2.65-1.76,5.31-2.46,8.01-.87,3.37-1.63,6.77-2.33,10.18-.54,2.6-.92,5.23-1.35,7.84-.5,3.01-1.03,6.02-1.46,9.04-.39,2.77-.69,5.56-.96,8.34-.51,5.26-1.07,10.52-1.42,15.79-.29,4.53-.34,9.08-.43,13.63-.02,1.09-.15,2.07-.85,2.96-.67,.85-1.19,1.82-1.85,2.68-1.4,1.84-3.02,3.45-5.13,4.46-1.38,.67-2.77,.68-3.88-.48-1.1-1.15-2.26-2.31-3.02-3.68-1.37-2.46-2.64-5.01-3.62-7.65-1.16-3.09-2.02-6.3-2.91-9.49-.57-2-1.03-4.04-1.42-6.08-.17-.91-.53-1.83-.07-2.83,1.27-2.74,2.5-5.5,3.61-8.31,1.77-4.45,3.16-9.01,3.77-13.78,.25-1.9,.34-3.83-.29-5.7-.54-1.59-1.45-2.84-3.27-3.14-2.53-.42-4.74,.73-5.95,3.08-1.28,2.48-1.93,5.16-2.01,7.91-.12,3.86-.14,7.73,.04,11.57,.13,2.61,.71,5.21,1,7.81,.07,.64-.02,1.4-.33,1.95-.86,1.52-1.88,2.94-2.81,4.41-.42,.68-.82,1.37-1.16,2.1-.11,.24-.1,.68,.06,.85,.16,.17,.58,.21,.85,.15,.32-.07,.67-.25,.88-.48,.79-.87,1.54-1.77,2.28-2.67,.33-.4,.61-.85,.91-1.27l.23,.05c.3,1.32,.58,2.65,.9,3.97,1.14,4.6,2.48,9.14,4.38,13.49,1.42,3.26,3.02,6.41,5.58,8.98,2.33,2.33,4.88,2.8,7.79,1.29,2.18-1.13,3.85-2.84,5.37-4.73,.22-.28,.46-.54,.69-.81,.1,.03,.19,.07,.29,.1,.06,.98,.09,1.96,.19,2.94,.39,3.98,.7,7.97,1.23,11.93,.68,5.13,2.21,10.03,4.47,14.69,.87,1.78,1.88,3.48,3.57,4.64,1.3,.9,2.66,1.11,4.11,.41,1.45-.7,2.39-1.91,3.24-3.22,1.71-2.63,2.83-5.54,3.85-8.48,.77-2.23,1.45-4.51,2.07-6.79,.65-2.37,1.2-4.76,1.75-7.15,.66-2.86,1.29-5.74,1.88-8.62,.51-2.46,.97-4.93,1.43-7.4,.48-2.64,.95-5.29,1.39-7.94,.33-1.97,.63-3.95,.93-5.93,.37-2.37,.73-4.74,1.08-7.11,.33-2.23,.63-4.47,.96-6.7,.33-2.31,.7-4.62,1.01-6.93,.34-2.6,.61-5.22,.94-7.83,.47-3.74,.99-7.47,1.43-11.21,.57-4.77,1.1-9.54,1.59-14.32,.47-4.46,.88-8.92,1.3-13.39,.4-4.21,.81-8.42,1.18-12.63,.42-4.78,.81-9.57,1.17-14.36,.18-2.39,.28-4.79,.42-7.19,.05-.78-.38-1-1.07-.96Zm-37.6,109.37c.06-1.63,.13-3.25,.26-4.87,.35-4.36,.7-8.72,1.1-13.07,.25-2.76,.54-5.51,.88-8.26,.32-2.52,.71-5.03,1.09-7.54,.4-2.68,.81-5.36,1.27-8.04,.43-2.5,.91-5,1.43-7.48,.57-2.68,1.11-5.36,1.83-8,.72-2.61,1.63-5.16,2.47-7.74,.06-.17,.22-.31,.33-.47,.12,0,.24,0,.37,0,.12,1.61,.34,3.21,.35,4.82,.02,4.5,.06,8.99-.15,13.48-.16,3.47-.66,6.93-1.05,10.39-.25,2.21-.52,4.42-.9,6.62-.52,3.03-1.07,6.07-1.75,9.08-.93,4.09-1.87,8.19-3.06,12.21-1.15,3.88-2.64,7.66-3.99,11.49-.07,.21-.26,.38-.5,.72,0-1.25-.03-2.29,0-3.33Zm-26.36-16.94c-.07-.2-.17-.4-.19-.6-.17-1.71-.37-3.41-.47-5.12-.12-2.08-.32-4.17-.2-6.25,.18-3.44,.17-6.94,1.77-10.13,.48-.97,1.12-1.78,2.27-2.05,1.21-.27,2.1,.24,2.5,1.45,.51,1.54,.44,3.11,.22,4.67-.74,5.23-2.43,10.19-4.4,15.07-.4,1-.82,1.98-1.23,2.98-.09,0-.18-.01-.27-.02ZM166.73,0c-.56,0-.8,.12-.79,.77,.03,4.06,.02,8.13,.02,12.19V186.74c0,.35-.04,.69,0,1.03,.02,.17,.13,.4,.26,.47,1.09,.54,2.13-.1,2.13-1.29,0-61.79,0-123.58,0-185.37C168.35-.11,168.72,.02,166.73,0Z"/><path class="d" d="M257.53,113.46s-.07-.09-.1-.14c-.93-1.44-1.82-2.91-2.81-4.31-1.02-1.44-1.7-2.91-.98-4.69,.04-.1,.04-.23,.05-.34,.31-3.59,.68-7.17,.92-10.76,.28-4.42,.05-8.81-1.32-13.06-.53-1.66-1.36-3.15-2.81-4.22-2.2-1.63-6.22-1.28-7.21,2.01-.3,1-.55,2.05-.58,3.09-.11,3.91,.84,7.66,1.98,11.35,1.48,4.81,3.32,9.49,5.61,13.99,.15,.3,.19,.72,.12,1.06-.3,1.6-.66,3.18-1,4.77-1.02,4.7-2.35,9.3-4.14,13.76-1.31,3.25-2.78,6.41-5.18,9.03-1.02,1.11-2.2,2.07-3.81,1.58-.96-.28-1.88-.83-2.7-1.44-2.44-1.8-4.15-4.24-5.65-6.82-.2-.35-.32-.81-.33-1.22-.09-3.23-.1-6.46-.24-9.69-.17-3.85-.38-7.71-.71-11.56-.37-4.3-.83-8.6-1.36-12.88-.52-4.23-1.08-8.46-1.76-12.66-.64-3.91-1.45-7.8-2.2-11.7-.92-4.8-2.03-9.56-3.71-14.15-.58-1.59-1.41-3.13-2.34-4.54-.83-1.26-2.23-1.05-2.97,.26-.13,.22-.23,.46-.32,.7-.84,2.11-.98,4.36-1.05,6.58-.19,6.75-.09,13.5,.67,20.22,.4,3.61,.8,7.22,1.39,10.8,.63,3.8,1.39,7.59,2.24,11.35,.9,3.95,1.85,7.89,2.99,11.78,1.67,5.71,3.7,11.29,6.53,16.55,.15,.28,.2,.66,.18,.99-.23,4.4-.41,8.8-.76,13.19-.45,5.58-1.63,11.02-3.71,16.24-.8,2.02-1.68,4.01-3.12,5.69-1.08,1.26-2.17,1.35-3.27,.15-.78-.86-1.49-1.82-2.04-2.85-2.47-4.61-3.87-9.63-5.2-14.65-.78-2.95-1.47-5.93-2.11-8.92-.93-4.33-1.84-8.67-2.64-13.02-.79-4.3-1.44-8.63-2.13-12.94-.65-4.1-1.33-8.19-1.9-12.29-.81-5.78-1.57-11.56-2.29-17.35-.64-5.17-1.2-10.34-1.79-15.52-.51-4.49-1.05-8.98-1.51-13.47-.63-6.26-1.21-12.52-1.77-18.79-.5-5.53-.97-11.06-1.41-16.59-.2-2.56-.33-5.13-.46-7.7-.03-.62-.26-.85-.85-.92-1.54-.19-1.9,.14-1.79,1.72,.35,4.97,.67,9.94,1.06,14.9,.36,4.53,.79,9.06,1.2,13.59,.28,3.08,.55,6.15,.87,9.23,.48,4.64,.99,9.27,1.5,13.91,.47,4.18,.94,8.36,1.43,12.53,.45,3.86,.92,7.73,1.41,11.59,.42,3.35,.87,6.69,1.33,10.04,.45,3.23,.93,6.45,1.42,9.68,.59,3.84,1.17,7.69,1.81,11.52,.55,3.33,1.15,6.65,1.79,9.96,.82,4.24,1.62,8.48,2.56,12.69,.77,3.43,1.73,6.81,2.64,10.2,1.03,3.84,2.31,7.6,4.08,11.17,.96,1.93,2.06,3.76,3.83,5.09,.95,.71,2,.96,3.15,.75,2.02-.37,3.23-1.81,4.21-3.4,3.01-4.89,4.62-10.33,5.51-15.93,.71-4.45,.93-8.98,1.38-13.47,.07-.66,.14-1.32,.24-2.23,.39,.42,.63,.64,.83,.89,1.39,1.77,3,3.28,4.93,4.46,2.61,1.59,4.96,1.5,7.4-.36,1.81-1.38,3.09-3.21,4.19-5.16,3.59-6.39,5.59-13.35,7.19-20.45,.12-.51,.26-1.01,.45-1.76,.48,.7,.76,1.2,1.12,1.62,.75,.9,1.49,1.82,2.36,2.59,.34,.3,1.18,.47,1.52,.25,.57-.35,.23-1.02-.04-1.53Zm-32.84,8.13c-3.1-7.12-5.18-14.53-6.87-22.07-1.7-7.56-3.02-15.19-3.71-22.92-.68-7.7-.95-15.41-.2-23.12,.16-.02,.32-.03,.47-.05,.54,1.52,1.18,3.01,1.61,4.56,.84,3.03,1.71,6.06,2.33,9.13,1.08,5.4,2.05,10.83,2.93,16.27,.72,4.46,1.32,8.94,1.84,13.42,.47,4.03,.82,8.08,1.11,12.13,.29,3.91,.45,7.82,.65,11.73,.02,.3-.03,.6-.17,.91Zm27.33-29.64c-.14,3.02-.43,6.04-.66,9.06-.02,.23-.09,.46-.14,.68-.08,.01-.15,.02-.23,.03-.57-1.38-1.2-2.75-1.68-4.16-1.06-3.1-2.18-6.2-3.01-9.37-.57-2.2-.74-4.5-.98-6.77-.07-.71,.14-1.48,.33-2.19,.42-1.55,1.89-2.06,3.23-1.17,1.12,.75,1.62,1.92,1.99,3.11,1.08,3.51,1.31,7.13,1.14,10.76Z"/><path class="d" d="M146.87,9.4c-.66,.04-1.44-.17-1.48,.92-.06,1.54-.18,3.08-.28,4.62-.19,2.99-.35,5.99-.59,8.98-.3,3.65-.67,7.28-1,10.93-.24,2.65-.45,5.3-.7,7.94-.29,3.1-.6,6.2-.92,9.3-.23,2.21-.47,4.43-.72,6.65-.29,2.67-.6,5.33-.89,8-.22,2.05-.42,4.09-.65,6.13-.31,2.7-.64,5.39-.97,8.08-.32,2.55-.62,5.11-.96,7.66-.45,3.37-.94,6.73-1.41,10.1-.32,2.29-.59,4.58-.95,6.87-.59,3.78-1.22,7.55-1.84,11.33-.57,3.41-1.07,6.83-1.75,10.22-1.1,5.48-2.28,10.96-3.5,16.41-1.12,4.96-2.53,9.84-4.42,14.58-.88,2.21-1.83,4.39-3.48,6.16-1.35,1.46-2.64,1.43-3.73-.23-1.02-1.54-1.97-3.16-2.7-4.85-2.19-5.07-3.33-10.44-3.93-15.9-.43-3.91-.59-7.86-.85-11.8-.12-1.76-.04-3.47,1.05-5,.41-.57,.67-1.26,.92-1.93,1.57-4.2,3.21-8.37,4.65-12.61,.89-2.61,1.5-5.33,2.17-8.01,.61-2.46,1.14-4.95,1.65-7.43,.53-2.54,1.05-5.09,1.47-7.64,.4-2.39,.73-4.8,1-7.21,.37-3.23,.85-6.47,.96-9.71,.17-5.11,.15-10.24,.05-15.35-.03-1.83-.45-3.68-.85-5.48-.18-.83-.58-1.74-1.62-1.92-1.05-.17-1.65,.52-2.11,1.32-.53,.92-1.1,1.83-1.43,2.82-.89,2.65-1.76,5.31-2.46,8.01-.87,3.37-1.63,6.77-2.33,10.18-.54,2.6-.92,5.23-1.35,7.84-.5,3.01-1.03,6.02-1.46,9.04-.39,2.77-.69,5.56-.96,8.34-.51,5.26-1.07,10.52-1.42,15.79-.29,4.53-.34,9.08-.43,13.63-.02,1.09-.15,2.07-.85,2.96-.67,.85-1.19,1.82-1.85,2.68-1.4,1.84-3.02,3.45-5.13,4.46-1.38,.67-2.77,.68-3.88-.48-1.1-1.15-2.26-2.31-3.02-3.68-1.37-2.46-2.64-5.01-3.62-7.65-1.16-3.09-2.02-6.3-2.91-9.49-.57-2-1.03-4.04-1.42-6.08-.17-.91-.53-1.83-.07-2.83,1.27-2.74,2.5-5.5,3.61-8.31,1.77-4.45,3.16-9.01,3.77-13.78,.25-1.9,.34-3.83-.29-5.7-.54-1.59-1.45-2.84-3.27-3.14-2.53-.42-4.74,.73-5.95,3.08-1.28,2.48-1.93,5.16-2.01,7.91-.12,3.86-.14,7.73,.04,11.57,.13,2.61,.71,5.21,1,7.81,.07,.64-.02,1.4-.33,1.95-.86,1.52-1.88,2.94-2.81,4.41-.42,.68-.82,1.37-1.16,2.1-.11,.24-.1,.68,.06,.85,.16,.17,.58,.21,.85,.15,.32-.07,.67-.25,.88-.48,.79-.87,1.54-1.77,2.28-2.67,.33-.4,.61-.85,.91-1.27l.23,.05c.3,1.32,.58,2.65,.9,3.97,1.14,4.6,2.48,9.14,4.38,13.49,1.42,3.26,3.02,6.41,5.58,8.98,2.33,2.33,4.88,2.8,7.79,1.29,2.18-1.13,3.85-2.84,5.37-4.73,.22-.28,.46-.54,.69-.81,.1,.03,.19,.07,.29,.1,.06,.98,.09,1.96,.19,2.94,.39,3.98,.7,7.97,1.23,11.93,.68,5.13,2.21,10.03,4.47,14.69,.87,1.78,1.88,3.48,3.57,4.64,1.3,.9,2.66,1.11,4.11,.41,1.45-.7,2.39-1.91,3.24-3.22,1.71-2.63,2.83-5.54,3.85-8.48,.77-2.23,1.45-4.51,2.07-6.79,.65-2.37,1.2-4.76,1.75-7.15,.66-2.86,1.29-5.74,1.88-8.62,.51-2.46,.97-4.93,1.43-7.4,.48-2.64,.95-5.29,1.39-7.94,.33-1.97,.63-3.95,.93-5.93,.37-2.37,.73-4.74,1.08-7.11,.33-2.23,.63-4.47,.96-6.7,.33-2.31,.7-4.62,1.01-6.93,.34-2.6,.61-5.22,.94-7.83,.47-3.74,.99-7.47,1.43-11.21,.57-4.77,1.1-9.54,1.59-14.32,.47-4.46,.88-8.92,1.3-13.39,.4-4.21,.81-8.42,1.18-12.63,.42-4.78,.81-9.57,1.17-14.36,.18-2.39,.28-4.79,.42-7.19,.05-.78-.38-1-1.07-.96Zm-37.6,109.37c.06-1.63,.13-3.25,.26-4.87,.35-4.36,.7-8.72,1.1-13.07,.25-2.76,.54-5.51,.88-8.26,.32-2.52,.71-5.03,1.09-7.54,.4-2.68,.81-5.36,1.27-8.04,.43-2.5,.91-5,1.43-7.48,.57-2.68,1.11-5.36,1.83-8,.72-2.61,1.63-5.16,2.47-7.74,.06-.17,.22-.31,.33-.47,.12,0,.24,0,.37,0,.12,1.61,.34,3.21,.35,4.82,.02,4.5,.06,8.99-.15,13.48-.16,3.47-.66,6.93-1.05,10.39-.25,2.21-.52,4.42-.9,6.62-.52,3.03-1.07,6.07-1.75,9.08-.93,4.09-1.87,8.19-3.06,12.21-1.15,3.88-2.64,7.66-3.99,11.49-.07,.21-.26,.38-.5,.72,0-1.25-.03-2.29,0-3.33Zm-26.36-16.94c-.07-.2-.17-.4-.19-.6-.17-1.71-.37-3.41-.47-5.12-.12-2.08-.32-4.17-.2-6.25,.18-3.44,.17-6.94,1.77-10.13,.48-.97,1.12-1.78,2.27-2.05,1.21-.27,2.1,.24,2.5,1.45,.51,1.54,.44,3.11,.22,4.67-.74,5.23-2.43,10.19-4.4,15.07-.4,1-.82,1.98-1.23,2.98-.09,0-.18-.01-.27-.02Z"/><path class="d" d="M165.96,94.19c0-27.07,0-54.15,0-81.22,0-4.06,.02-8.13-.02-12.19,0-.65,.23-.78,.79-.77,1.99,.02,1.61-.11,1.61,1.58,0,61.79,0,123.58,0,185.37,0,1.19-1.04,1.83-2.13,1.29-.14-.07-.24-.3-.26-.47-.03-.34,0-.69,0-1.03,0-30.85,0-61.71,0-92.56Z"/></g><line class="e" x1="0" y1="94.22" x2="54.36" y2="94.22"/><line class="e" x1="278.99" y1="94.22" x2="755.82" y2="94.22"/></g></g></svg>