<?xml version="1.0" encoding="UTF-8"?><svg xmlns="http://www.w3.org/2000/svg" viewBox="0 0 668.65 255.09"><defs><style>.d{fill:#658c81;}</style></defs><g id="a"/><g id="b"><g id="c"><g><path class="d" d="M91.16,0c5.01,0,9.14,4.12,9.14,9.14,0,1.67-.45,3.23-1.34,4.68,.45-.11,.89-.11,1.34-.11,5.01,0,9.14,4.12,9.14,9.14s-4.12,9.14-9.14,9.14-9.14-4.12-9.14-9.14c0,5.01-4.12,9.14-9.14,9.14s-9.14-4.12-9.14-9.14,4.12-9.14,9.14-9.14c.45,0,.89,0,1.23,.11-.78-1.34-1.23-2.9-1.23-4.68,.11-5.13,4.12-9.14,9.14-9.14h0Z"/><path class="d" d="M47.03,3.45c4.9-.78,9.58,2.56,10.48,7.58,.22,1.67,0,3.34-.56,4.79,.45-.11,.78-.22,1.23-.33,5.01-.78,9.58,2.56,10.48,7.58,.78,5.01-2.56,9.58-7.58,10.48-4.9,.78-9.58-2.56-10.36-7.58,.78,5.01-2.56,9.58-7.58,10.48-4.9,.78-9.58-2.67-10.48-7.58-.78-4.9,2.67-9.58,7.58-10.36,.45-.11,.89-.11,1.34-.11-1-1.23-1.78-2.67-2.01-4.35-.89-5.13,2.56-9.81,7.47-10.59h0Z"/><path class="d" d="M135.4,3.45c5.01,.78,8.36,5.46,7.58,10.48-.22,1.67-1,3.12-2.01,4.35,.45,0,.89,0,1.23,.11,5.01,.78,8.36,5.46,7.58,10.36-.78,5.01-5.46,8.36-10.36,7.58s-8.36-5.46-7.58-10.48c-.78,5.01-5.46,8.36-10.48,7.58-4.9-.78-8.36-5.46-7.58-10.48,.78-4.9,5.46-8.36,10.36-7.58,.45,.11,.89,.11,1.23,.33-.56-1.45-.78-3.12-.56-4.79,.89-4.9,5.57-8.25,10.59-7.47h0Z"/><path class="d" d="M159.03,64.97c-21.4-6.69-44.24-10.36-67.87-10.36s-46.36,3.68-67.87,10.36l-6.13-17.16c23.4-7.36,48.25-11.48,74-11.48s50.59,4.01,74,11.48l-6.13,17.16h0Z"/><path class="d" d="M19.28,23.96c4.79-1.56,9.92,1.11,11.48,5.91s-1.11,9.92-5.91,11.48c-4.79,1.56-9.92-1.11-11.48-5.8-.56-1.56-.56-3.23-.22-4.79-.33,.22-.78,.33-1.23,.45-4.79,1.56-9.92-1.11-11.48-5.8-1.56-4.79,1.11-9.92,5.8-11.48,4.79-1.56,9.92,1.11,11.48,5.91,.56,1.56,.56,3.23,.22,4.79,.56-.33,1-.56,1.34-.67h0Z"/><path class="d" d="M175.97,13.82c4.79,1.56,7.36,6.69,5.8,11.48-1.56,4.79-6.69,7.36-11.48,5.8-.45-.11-.78-.33-1.23-.45,.33,1.56,.33,3.23-.22,4.79-1.56,4.79-6.69,7.36-11.48,5.8-4.79-1.56-7.36-6.69-5.8-11.48s6.69-7.36,11.48-5.91c.45,.11,.78,.33,1.23,.45-.33-1.56-.33-3.23,.22-4.79,1.56-4.68,6.69-7.24,11.48-5.68h0Z"/><path class="d" d="M54.78,131.38c-.32-2.24-2.19-3.89-4.52-3.89-2.57,0-4.57,2-4.57,4.57s2.12,4.56,4.57,4.56c2.32,0,4.19-1.64,4.52-3.86,.03-.22,.05-.46,.05-.7s-.02-.46-.05-.68Zm31.92-3.89c-2.56,0-4.57,2-4.57,4.57s2.01,4.56,4.57,4.56,4.57-2,4.57-4.56-2.01-4.57-4.57-4.57Zm-9.14,0c-2.56,0-4.57,2-4.57,4.57s2.01,4.56,4.57,4.56,4.57-2,4.57-4.56-2.01-4.57-4.57-4.57Zm0-9.14c-2.56,0-4.57,2.12-4.57,4.57s2.01,4.57,4.57,4.57,4.57-2.01,4.57-4.57-2.01-4.57-4.57-4.57Zm-18.27,9.14c-2.24,0-4.18,1.65-4.51,3.89-.04,.22-.06,.45-.06,.68s.02,.48,.06,.7c.32,2.22,2.18,3.86,4.51,3.86,2.56,0,4.56-2,4.56-4.56s-2-4.57-4.56-4.57Zm0-9.14c-2.46,0-4.57,2.12-4.57,4.57s2,4.57,4.57,4.57,4.56-2.01,4.56-4.57-2-4.57-4.56-4.57Zm0,9.14c-2.24,0-4.18,1.65-4.51,3.89-.32-2.24-2.19-3.89-4.52-3.89-2.57,0-4.57,2-4.57,4.57s2.12,4.56,4.57,4.56c2.32,0,4.19-1.64,4.52-3.86,.32,2.22,2.18,3.86,4.51,3.86,2.56,0,4.56-2,4.56-4.56s-2-4.57-4.56-4.57Zm0-9.14c-2.46,0-4.57,2.12-4.57,4.57s2,4.57,4.57,4.57,4.56-2.01,4.56-4.57-2-4.57-4.56-4.57Zm18.27,9.14c-2.56,0-4.57,2-4.57,4.57s2.01,4.56,4.57,4.56,4.57-2,4.57-4.56-2.01-4.57-4.57-4.57Zm0-9.14c-2.56,0-4.57,2.12-4.57,4.57s2.01,4.57,4.57,4.57,4.57-2.01,4.57-4.57-2.01-4.57-4.57-4.57Zm9.14,9.14c-2.56,0-4.57,2-4.57,4.57s2.01,4.56,4.57,4.56,4.57-2,4.57-4.56-2.01-4.57-4.57-4.57Zm-27.41,0c-2.24,0-4.18,1.65-4.51,3.89-.32-2.24-2.19-3.89-4.52-3.89-2.57,0-4.57,2-4.57,4.57s2.12,4.56,4.57,4.56c2.32,0,4.19-1.64,4.52-3.86,.32,2.22,2.18,3.86,4.51,3.86,2.56,0,4.56-2,4.56-4.56s-2-4.57-4.56-4.57Zm0-9.14c-2.46,0-4.57,2.12-4.57,4.57s2,4.57,4.57,4.57,4.56-2.01,4.56-4.57-2-4.57-4.56-4.57Zm18.27,9.14c-2.56,0-4.57,2-4.57,4.57s2.01,4.56,4.57,4.56,4.57-2,4.57-4.56-2.01-4.57-4.57-4.57Zm0-9.14c-2.56,0-4.57,2.12-4.57,4.57s2.01,4.57,4.57,4.57,4.57-2.01,4.57-4.57-2.01-4.57-4.57-4.57Zm9.14,9.14c-2.56,0-4.57,2-4.57,4.57s2.01,4.56,4.57,4.56,4.57-2,4.57-4.56-2.01-4.57-4.57-4.57Zm0,0c-2.56,0-4.57,2-4.57,4.57s2.01,4.56,4.57,4.56,4.57-2,4.57-4.56-2.01-4.57-4.57-4.57Zm-4.57-4.57c0-2.57-2.01-4.57-4.57-4.57s-4.57,2.12-4.57,4.57,2.01,4.57,4.57,4.57,4.57-2.01,4.57-4.57Zm-4.57,4.57c-2.56,0-4.57,2-4.57,4.57s2.01,4.56,4.57,4.56,4.57-2,4.57-4.56-2.01-4.57-4.57-4.57Zm-13.71-4.57c0-2.57-2-4.57-4.56-4.57s-4.57,2.12-4.57,4.57,2,4.57,4.57,4.57,4.56-2.01,4.56-4.57Zm-9.07,8.46c-.32-2.24-2.19-3.89-4.52-3.89-2.57,0-4.57,2-4.57,4.57s2.12,4.56,4.57,4.56c2.32,0,4.19-1.64,4.52-3.86,.32,2.22,2.18,3.86,4.51,3.86,2.56,0,4.56-2,4.56-4.56s-2-4.57-4.56-4.57c-2.24,0-4.18,1.65-4.51,3.89Zm36.49-58.5c-23.85,6.57-49.15,6.57-72.88,0V225.89c0,8.8,6.24,15.71,14.48,17.39l58.4,11.81,58.28-11.7c8.36-1.67,14.6-9.03,14.6-17.83V72.88c-23.73,6.57-49.14,6.57-72.88,0ZM36.55,209.29v-9.03h9.14v5.35c-3.01,1-6.13,2.34-9.14,3.9v-.22Zm21.84,20.83c10.92-1.11,21.85,1.12,32.77,6.58l-32.77-6.58Zm80.69-3l-31.21,6.24c-5.57-1.12-11.14-3.01-16.6-5.8-16.83-8.47-33.77-9.03-50.6-1.89l-.11,.11c-1.56-1.12-2.89-2.68-3.45-4.68-.34-.89-.45-1.79-.45-2.68,9.08-4.56,18.2-6.85,27.3-6.85s18.22,2.29,27.31,6.85c18.16,9.25,36.33,9.25,54.61,0,0,4.13-2.9,7.69-6.8,8.7Zm-47.92-17.61h9.14v-5.35c15.15,5.01,30.31,3.79,45.46-3.79v9.14c-18.16,9.14-36.44,9.14-54.6,0Zm18.27-12.15v-6.02h36.45c-12.15,6.02-24.3,8.03-36.45,6.02Zm36.45-51.71h-9.14v-18.28c0-2.56-2.01-4.56-4.57-4.56s-4.57,2.11-4.57,4.56v5.02h-17.94v-14.04c0-2.57-2.01-4.57-4.57-4.57s-4.57,2-4.57,4.57v27.3h-9.14v9.14h-18.28v-4.57c0-2.56-2-4.57-4.57-4.57s-4.56,2.01-4.56,4.57v13.71h-9.14v9.14h-9.14l.11,13.59-9.14,4.57V94.94c18.06,2.23,36.89,1.12,54.61-3.23,17.72,4.24,36.44,5.35,54.61,3.23v50.71Zm-59.18-18.16c-2.56,0-4.57,2-4.57,4.57s2.01,4.56,4.57,4.56,4.57-2,4.57-4.56-2.01-4.57-4.57-4.57Zm-4.57-4.57c0-2.57-2.01-4.57-4.57-4.57s-4.57,2.12-4.57,4.57,2.01,4.57,4.57,4.57,4.57-2.01,4.57-4.57Zm-4.57,4.57c-2.56,0-4.57,2-4.57,4.57s2.01,4.56,4.57,4.56,4.57-2,4.57-4.56-2.01-4.57-4.57-4.57Zm-13.71-4.57c0-2.57-2-4.57-4.56-4.57s-4.57,2.12-4.57,4.57,2,4.57,4.57,4.57,4.56-2.01,4.56-4.57Zm-9.07,8.46c-.32-2.24-2.19-3.89-4.52-3.89-2.57,0-4.57,2-4.57,4.57s2.12,4.56,4.57,4.56c2.32,0,4.19-1.64,4.52-3.86,.32,2.22,2.18,3.86,4.51,3.86,2.56,0,4.56-2,4.56-4.56s-2-4.57-4.56-4.57c-2.24,0-4.18,1.65-4.51,3.89Z"/><path class="d" d="M549.08,190.45v-16.49c0-3.12-.23-5.35-.67-6.69-.45-1.34-1.34-2.56-2.57-3.68-1.22-1.22-2.78-2-4.57-2.45-1.78-.44-4.01-.67-6.9-.67-5.13,0-9.14,.89-11.93,2.9-2.67,1.9-4.23,4.46-4.68,7.47l7.02,1c.67-3.79,3.57-5.68,8.58-5.68s7.8,1.89,7.8,5.68v2.79h-2.34c-14.71,0-22.17,4.23-22.17,12.59,0,3.23,1.11,5.91,3.34,8.02,2.23,2.12,5.13,3.24,8.8,3.24,6.13,0,10.26-2.68,12.48-8.14,.23,2.67,.56,5.13,1.34,7.36h7.91c-.66-2.46-1-4.91-1.44-7.25Zm-10.03-1.22c-1.56,2-4.02,3-7.14,3-2.23,0-3.79-.55-4.9-1.67-1.11-1.11-1.67-2.34-1.67-3.9,0-5.01,5.35-7.58,16.05-7.58l.11,3.35c0,2.56-.89,4.79-2.45,6.8Zm-28.09,2.56c-2.12-1.9-5.12-2.9-8.8-2.9h-10.92c-1.67,0-3.01-.33-3.79-1.11-.78-.78-1.23-1.56-1.23-2.45,0-1.57,.89-2.79,2.57-3.57,2.56,.56,4.9,.89,6.79,.89,4.46,0,8.14-1,10.81-3.12,2.79-2.12,4.13-4.79,4.13-8.02,0-2.9-1.45-5.58-4.35-7.92,.78-1.45,1.67-2.34,2.45-2.56,.78-.33,1.79-.45,2.9-.45h2.56v-6.35h-2.89c-4.8,0-7.69,2.34-8.81,7.02-2.45-.55-4.79-.78-7.13-.78-5.13,0-8.92,1.12-11.37,3.24-2.56,2.22-3.79,4.79-3.79,7.8,0,3.56,1.67,6.46,5.02,8.47-3.9,1.89-5.8,4.34-5.8,7.57,0,2.12,1.23,4.13,3.46,6.02-3.57,1.67-5.35,4.24-5.35,7.47,0,6.57,5.9,9.92,17.72,9.92,6.35,0,11.03-1.23,14.26-3.46s4.79-5.12,4.79-8.58c0-2.79-1.11-5.24-3.23-7.13Zm-20.5-24.41c1.11-1.22,2.89-1.78,5.01-1.78s3.79,.56,4.91,1.67c1.11,1.12,1.67,2.56,1.67,4.12,0,4.24-2.34,6.36-6.8,6.36-2.01,0-3.68-.56-4.79-1.67-1.23-1.12-1.79-2.57-1.79-4.35s.56-3.23,1.79-4.35Zm6.35,37.78c-4.35,0-7.47-.67-9.47-1.89-1.9-1.23-2.9-2.68-2.9-4.35,0-1,.56-2,1.78-3.12,2.34,.56,4.24,.89,5.91,.78h8.8c1.34,0,2.68,.34,3.79,.89,1.12,.67,1.67,1.56,1.67,2.79,0,3.23-3.23,4.9-9.58,4.9Zm-26.3-14.71v-16.49c0-3.12-.22-5.35-.67-6.69-.45-1.34-1.34-2.56-2.56-3.68-1.23-1.22-2.79-2-4.57-2.45-1.79-.44-4.01-.67-6.91-.67-5.24,0-9.14,.89-11.93,2.9-2.78,1.9-4.34,4.46-4.68,7.47l7.02,1c.67-3.79,3.57-5.68,8.59-5.68s7.8,1.89,7.8,5.68v2.79h-2.34c-14.71,0-22.18,4.23-22.18,12.59,0,3.23,1.11,5.91,3.34,8.02,2.23,2.12,5.13,3.24,8.81,3.24,6.01,0,10.14-2.68,12.37-8.14,.22,2.67,.66,5.13,1.33,7.36h7.92c-.78-2.46-1.12-4.91-1.34-7.25Zm-7.8-8.02c0,2.56-.89,4.79-2.45,6.8-1.68,2-4.02,3-7.14,3-2.23,0-3.79-.55-4.9-1.67-1-1.11-1.56-2.34-1.56-3.9,0-5.01,5.35-7.58,16.05-7.58v3.35Zm-40.46-34.1v49.37h8.25v-49.37h-8.25Zm-16.16-4.35l-14.37,7.91,1.56,3.9,15.16-6.35-2.35-5.46Zm6.02,46.47v-16.49c0-3.12-.22-5.35-.67-6.69-.44-1.34-1.33-2.56-2.56-3.68-1.23-1.22-2.79-2-4.57-2.45-1.78-.44-4.01-.67-6.91-.67-5.24,0-9.14,.89-11.92,2.9-2.68,1.9-4.35,4.46-4.68,7.47l7.02,1c.67-3.79,3.56-5.68,8.58-5.68s7.8,1.89,7.8,5.68v2.79h-2.34c-14.71,0-22.18,4.23-22.18,12.59,0,3.23,1.12,5.91,3.35,8.02,2.22,2.12,5.12,3.24,8.8,3.24,6.13,0,10.25-2.68,12.48-8.14,.11,2.67,.56,5.13,1.23,7.36h7.91c-.67-2.46-1.11-4.91-1.34-7.25Zm-10.14-1.22c-1.56,2-4.01,3-7.13,3-2.23,0-3.9-.55-4.9-1.67-1.12-1.11-1.68-2.34-1.68-3.9,0-5.01,5.35-7.58,16.05-7.58,0,0,0,3.46,.11,3.35,0,2.56-.78,4.79-2.45,6.8Zm-44.35-40.9l-10.26,31.76-10.36-31.76h-13.93v49.37h7.24v-43.24l13.82,43.24h4.68l13.71-43.24v43.24h9.14v-49.37h-14.04Zm-61.3,31.09c0-5.57-1.33-10.14-4.23-13.71s-6.91-5.35-12.15-5.35-9.58,1.9-12.7,5.46c-3.12,3.68-4.68,8.14-4.68,13.71s1.56,10.48,4.68,13.82c3.12,3.45,7.24,5.13,12.26,5.13,4.23,0,7.8-1.12,10.58-3.24,2.79-2.11,4.68-4.79,5.69-8.13l-7.47-1c-1.45,3.9-4.24,5.9-8.47,5.9-2.12,0-3.79-.56-5.24-1.67-1.33-1.11-2.34-2.34-2.78-3.9-.45-1.56-.67-3.57-.67-6.02h25.18v-1Zm-25.07-4.24c.22-2.78,1.11-5.01,2.67-6.57,1.45-1.56,3.46-2.34,5.69-2.34,2.34,0,4.23,.78,5.79,2.45,1.56,1.67,2.34,3.79,2.34,6.46h-16.49Zm-24.52-26.85v17.83c-1.78-4.35-5.12-6.47-9.81-6.47s-8.13,2.01-10.58,5.8c-2.57,3.79-3.79,8.36-3.79,13.48,0,5.57,1.22,10.14,3.56,13.93,2.46,3.68,5.91,5.58,10.37,5.58,5.01,0,8.69-2.68,10.81-8.14v7.36h7.69v-49.37h-8.25Zm-.11,27.86v6.13c0,2.67-.78,4.9-2.34,6.68-1.56,1.79-3.34,2.68-5.35,2.68-5.13,0-7.69-4.13-7.69-12.26,0-4.12,.78-7.36,2.12-9.47,1.45-2.12,3.34-3.12,5.79-3.12,2.23,0,4.02,.78,5.46,2.45,1.45,1.67,2.12,3.9,2.12,6.91h-.11Z"/><path class="d" d="M250.3,65.19h-11.15l-16.71,50.26h7.8l4.01-11.92h19.5l4.01,11.92h9.7l-17.16-50.26Zm-13.82,30.98l7.35-22.4,7.36,22.4h-14.71Zm55.61-17.38l-7.69,24.07-8.92-24.07h-8.69l12.59,34.32c.56,1.34,.78,2.12,.78,2.23,0,.33-.22,1.11-.66,2.56-.56,1.45-1.23,2.45-2.01,3.01-.89,.56-2.12,.89-3.9,.89l-4.01-.11v6.58c2,.11,3.56,.22,4.68,.22,2.78,0,4.9-.67,6.46-2.12,1.45-1.34,2.68-3.34,3.57-5.9l14.26-41.57-6.46-.11Zm33.99,.11v17.49c0,5.24-.89,8.7-2.79,10.26-1.89,1.67-3.67,2.45-5.46,2.45-1.11,0-2.34-.45-3.45-1.23-1.23-.78-1.79-2.45-1.79-5.12v-23.85h-8.47v25.63c0,3.68,.9,6.46,2.9,8.58,1.9,2.12,4.57,3.12,7.91,3.12,5.69,0,9.48-2.9,11.59-8.69v7.91h7.69l.12-36.55h-8.25Zm45.13,2.23c-2.23-2.01-5.01-3.01-8.24-3.01-4.8,0-8.47,3.12-11.15,9.25v-8.47h-7.58v36.55h8.25v-18.83c0-3.79,.89-6.58,2.45-8.47,1.67-1.79,3.57-2.79,5.69-2.79,1.56,0,2.89,.56,4.01,1.78,1.11,1.23,1.67,3.01,1.67,5.46v22.85h8.25l.11-23.63c0-5.12-1.12-8.69-3.46-10.69Zm29.2,27.97c-2.23,0-3.9-.34-4.68-1.23-.78-.78-1.23-2.45-1.23-4.68v-17.83h7.36v-6.35h-7.36v-10.14l-6.79,.55-.78,9.48h-5.02v6.35h4.57v18.94c0,3.24,.34,5.58,1.12,7.14,.66,1.45,1.89,2.67,3.45,3.56,1.67,.89,3.57,1.34,5.79,1.34,1.34,0,3.24-.22,5.69-.78v-6.46c-.67,0-1.45,.11-2.12,.11Zm39.45-1v-16.5c0-3.12-.22-5.35-.67-6.68-.44-1.34-1.33-2.57-2.56-3.68-1.23-1.12-2.79-1.9-4.57-2.34-1.78-.45-4.01-.67-6.91-.67-5.12,0-9.14,.89-11.92,2.9-2.79,1.89-4.24,4.45-4.68,7.46l7.02,1.01c.67-3.79,3.56-5.69,8.58-5.69s7.8,1.9,7.8,5.69v2.78h-2.34c-14.82,0-22.18,4.24-22.18,12.59,0,3.24,1.12,5.91,3.35,8.03,2.22,2.12,5.12,3.23,8.8,3.23,6.13,0,10.25-2.67,12.48-8.13,.11,2.67,.56,5.12,1.23,7.35h7.91c-.67-2.56-1-5.01-1.34-7.35Zm-7.8-7.92c0,2.57-.89,4.79-2.45,6.8-1.56,2.01-4.01,3.01-7.13,3.01-2.23,0-3.79-.45-4.91-1.56-1-1.11-1.56-2.45-1.56-3.9,0-5.13,5.35-7.69,16.05-7.69v3.34Zm69.54-18.72c-2.23-2.23-5.01-3.34-8.58-3.34-5.24,0-9.36,2.89-12.26,8.58-1.67-5.69-5.24-8.58-10.59-8.58s-9.69,2.89-12.25,8.58v-7.8h-8.03v36.55h8.58v-19.17c0-3.34,.78-6.02,2.45-7.91,1.56-1.89,3.57-2.9,6.02-2.9,3.9,0,5.91,2.45,5.91,7.25v22.73h8.8v-19.17c0-3.56,.78-6.24,2.23-8.02,1.45-1.78,3.46-2.68,5.91-2.68,4.23,0,6.35,2.46,6.35,7.14v22.73h8.69v-25.85c0-3.24-1.11-5.91-3.23-8.14Zm13.49-15.49v8.58h8.24v-8.58h-8.24Zm0,12.93v36.55h8.24v-36.55h-8.24Zm49.92,18.16c0-5.57-1.34-10.14-4.23-13.71-2.9-3.56-6.91-5.34-12.15-5.34s-9.58,1.89-12.7,5.46c-3.12,3.67-4.69,8.24-4.69,13.7,0,5.8,1.57,10.48,4.69,13.82,3.12,3.46,7.13,5.13,12.25,5.13,4.24,0,7.81-1.12,10.59-3.23,2.79-2.12,4.68-4.79,5.68-8.14l-7.46-1c-1.45,4.01-4.24,5.91-8.36,5.91-2.12,0-3.79-.56-5.24-1.68-1.34-1.11-2.34-2.45-2.78-3.9-.45-1.56-.67-3.56-.67-6.01h25.07v-1.01Zm-24.96-4.23c.22-2.79,1.11-5.02,2.67-6.58,1.45-1.56,3.46-2.34,5.69-2.34,2.34,0,4.23,.78,5.79,2.45,1.56,1.68,2.34,3.79,2.34,6.47h-16.49Zm60.18-11.7c-2.23-2.01-5.02-3.01-8.25-3.01-4.79,0-8.47,3.12-11.14,9.25v-8.47h-7.58v36.55h8.25v-18.83c0-3.79,.78-6.58,2.45-8.47,1.67-1.79,3.56-2.79,5.68-2.79,1.56,0,2.9,.56,4.01,1.78,1.12,1.23,1.67,3.01,1.67,5.46v22.85h8.25l.11-23.63c0-5.12-1.11-8.69-3.45-10.69Zm28.86,27.97c-2.34,0-3.9-.34-4.79-1.23-.78-.78-1.23-2.45-1.23-4.68v-17.83h7.36v-6.35h-7.36v-10.14l-6.79,.55-.78,9.48h-5.02v6.35h4.57v18.94c0,3.24,.33,5.58,1.11,7.14,.67,1.45,1.9,2.67,3.46,3.56,1.67,.89,3.57,1.34,5.79,1.34,1.34,0,3.24-.22,5.69-.78v-6.46c-.78,0-1.45,.11-2.01,.11Zm34.88-25.75c-3.23-3.45-7.24-5.23-12.14-5.23s-9.25,1.78-12.49,5.35c-3.12,3.56-4.68,8.02-4.68,13.48,0,5.02,1.45,9.47,4.35,13.37,2.79,3.9,6.91,5.8,12.37,5.8,5.02,0,9.25-1.67,12.37-5.24,3.23-3.56,4.9-8.13,4.9-13.93s-1.56-10.14-4.68-13.6Zm-12.26,25.97c-2.56,0-4.56-1-6.01-3.01-1.45-2.12-2.23-5.12-2.23-9.14,0-3.67,.78-6.68,2.12-8.91,1.33-2.23,3.45-3.34,6.35-3.34s4.79,1.11,6.13,3.23c1.33,2.11,2,5.01,2,8.8,0,8.25-2.78,12.37-8.36,12.37Z"/></g></g></g></svg>