<?xml version="1.0" encoding="UTF-8"?><svg xmlns="http://www.w3.org/2000/svg" viewBox="0 0 678.88 189.65"><defs><style>.d{fill:#658c81;}</style></defs><g id="a"/><g id="b"><g id="c"><path class="d" d="M250.09,73.85c-2.32-2.14-4.45-4.4-6.88-6.26-5.86-4.49-12.59-6.76-19.94-7.28-8.01-.56-15.47,1.08-22.17,5.58-8.06,5.42-12.69,13.15-14.48,22.57-1.63,8.56-.84,16.92,3.11,24.77,5.03,10.01,13.31,15.83,24.26,17.66,14.08,2.34,25.92-2.12,35.62-12.49,.08-.09,.18-.16,.38-.34v40.31c-5.76,1.51-11.53,3.37-17.45,4.52-26.04,5.07-54.3-6.28-69.9-27.88-5.98-8.28-9.51-17.55-10.97-27.64-1.89-13.14-.73-25.94,4.61-38.15,9.32-21.32,25.72-34.33,48.11-39.86,14.86-3.67,29.35-1.61,43.47,3.85q2.23,.86,2.23,3.22c0,12.04,0,24.08,0,36.12v1.31Z"/><path class="d" d="M86.84,156.01v5.13H27.59v-5.17c2.38,0,4.79,.09,7.19-.03,2.5-.12,5.01-.31,7.47-.71,4.81-.76,6.99-3.26,7.29-8.1,.07-1.08,.1-2.17,.1-3.26,0-34.92,0-69.83,0-104.75,0-1.82,0-1.85-1.84-1.81-6.32,.14-12.6,.61-18.68,2.5-9.82,3.05-16.15,9.71-19.78,19.15-1.91,4.97-3.06,10.13-3.8,15.39-.08,.57-.2,1.13-.32,1.75H0c.39-14.59,.78-29.15,1.17-43.83H113.29c.4,14.62,.8,29.17,1.2,43.88-1.64,0-3.17,.05-4.7-.05-.26-.02-.65-.62-.71-1-.9-6.04-2.17-11.98-4.56-17.63-4.36-10.32-12.15-16.39-23.03-18.68-5.05-1.06-10.17-1.4-15.32-1.48-.41,0-.82,.04-1.3,.07-.03,.44-.08,.81-.08,1.17,0,35.58,0,71.17,.05,106.75,0,1.77,.36,3.58,.85,5.28,.65,2.27,2.42,3.53,4.62,4.19,3.65,1.1,7.42,1.1,11.18,1.21,1.75,.05,3.5,0,5.33,0Z"/><path class="d" d="M531.09,120.27v38.4h-5.99v-47.54c2.62,0,5.2-.03,7.77,.04,.3,0,.68,.53,.86,.9,4.36,8.79,8.7,17.58,13.04,26.38,1.62,3.29,3.24,6.59,4.87,9.88,.12,.25,.3,.46,.72,.65v-37.8h6.06v47.56c-2.46,0-4.88,.03-7.29-.04-.31,0-.71-.51-.89-.87-4.26-8.56-8.5-17.12-12.74-25.69-1.83-3.7-3.67-7.41-5.51-11.11-.14-.28-.32-.55-.49-.82l-.4,.06Z"/><path class="d" d="M559.32,50.19c-2.31-9.23-8.75-15.12-17.41-15.93-9.16-.85-16.77,3.5-20.4,11.95-2.65,6.18-2.99,12.62-1.85,19.17,.79,4.57,2.48,8.76,5.69,12.19,4.56,4.87,10.37,6.43,16.79,5.77,8.29-.85,13.62-5.6,16.45-13.29,1.33-3.6,1.83-7.36,2.08-11.23-.44-2.88-.65-5.81-1.35-8.63Zm-7.91,20.09c-2.55,4.83-6.51,7.36-12.06,7.22-5.3-.13-9.14-2.69-11.32-7.37-3.58-7.66-3.62-15.49,.29-23.03,3.8-7.35,12.97-9.35,19.23-4.41,3.38,2.67,5.02,6.39,5.83,10.5,.37,1.88,.48,3.8,.71,5.7-.15,4-.8,7.84-2.68,11.39Z"/><path class="d" d="M507.18,81.41c-2.12-4.99-4.22-9.99-6.38-14.96-1.24-2.84-2.11-5.94-5.25-7.71,2.38-.64,4.31-1.6,5.83-3.24,2.97-3.22,3.29-7.06,2.59-11.14-.72-4.12-3.06-6.93-7.03-8.18-1.85-.59-3.82-.98-5.76-1.05-4.35-.16-8.7-.08-13.05-.08-.32,0-.63,.08-.97,.12v47.4h6.06v-1.96c0-5.98,.02-11.96-.02-17.94,0-.99,.3-1.35,1.29-1.28,.91,.07,1.84,.02,2.76,.02,3.94,0,5.44,1,6.93,4.7,1.37,3.4,2.71,6.82,4.07,10.23,.84,2.12,1.7,4.23,2.53,6.29h6.87c-.18-.46-.31-.85-.47-1.22Zm-17.08-26.05c-2.2,.21-4.42,.05-6.76,.05v-14.45c3.31,.17,6.61-.48,9.83,.55,2.98,.96,4.53,3.09,4.67,6.14,.13,2.78-.91,5.14-3.48,6.45-1.3,.66-2.81,1.12-4.26,1.26Z"/><path class="d" d="M423.32,157.87c-2.61-6.1-5.2-12.2-7.84-18.29-.78-1.82-1.78-3.51-3.85-4.56,.35-.2,.48-.3,.63-.35,7.82-2.58,10.77-12,5.84-18.73-2.38-3.25-5.92-4.31-9.65-4.53-4.83-.29-9.69-.21-14.54-.28-.2,0-.39,.06-.62,.09v47.46h5.95v-21.04c1.95,0,3.74-.03,5.53,0,1.74,.03,3.17,.73,4.12,2.22,.55,.88,1.04,1.81,1.43,2.77,2.03,5.03,4.01,10.07,6.05,15.1,.16,.39,.59,.96,.91,.97,2.06,.09,4.13,.05,6.34,.05-.15-.43-.21-.66-.3-.88Zm-14.88-26.81c-2.94,.61-6,.59-9.14,.86v-15.03c3.15,.2,6.26,.11,9.25,.66,3.47,.64,5.26,3.17,5.28,6.48,.02,3.51-1.88,6.31-5.39,7.03Z"/><path class="d" d="M428.7,81.36c-1.63-4.29-3.26-8.58-4.89-12.87-4.11-10.79-8.23-21.59-12.31-32.39-.3-.79-.67-1.13-1.54-1.08-1.34,.08-2.68,.1-4.01,0-1.07-.08-1.51,.34-1.88,1.3-5.32,13.91-10.67,27.81-16.02,41.7-.58,1.51-1.13,3.03-1.72,4.62h6.34c1.34-3.65,2.69-7.29,3.98-10.94,.28-.8,.64-1.09,1.51-1.09,6.27,.04,12.55,.05,18.82,0,.99-.01,1.36,.35,1.67,1.23,1.14,3.31,2.35,6.6,3.58,9.88,.14,.37,.52,.9,.81,.91,1.98,.08,3.98,.04,6.1,.04-.18-.54-.3-.93-.44-1.31Zm-29.68-16.31c2.85-7.88,5.64-15.62,8.44-23.35l.3-.03c2.8,7.74,5.61,15.49,8.46,23.38h-17.2Z"/><path class="d" d="M130.48,0h3.27V189.65h-3.27V0Z"/><path class="d" d="M511.18,151.93c-5.02-13.21-10.06-26.42-15.06-39.65-.33-.86-.73-1.25-1.7-1.18-1.29,.09-2.59,.1-3.88,0-1.01-.08-1.45,.28-1.8,1.2-5.24,13.72-10.51,27.42-15.78,41.12-.65,1.71-1.29,3.41-2.03,5.34,1.83,0,3.38-.08,4.92,.02,1.1,.07,1.61-.28,1.97-1.35,1.08-3.2,2.32-6.34,3.41-9.54,.32-.91,.77-1.2,1.71-1.2,6.19,.04,12.38,.04,18.57,0,.96,0,1.4,.31,1.71,1.21,1.13,3.27,2.33,6.52,3.54,9.76,.15,.41,.55,1.02,.85,1.03,1.99,.1,3.99,.05,6.16,.05-.91-2.38-1.75-4.6-2.59-6.81Zm-27.52-10.82c2.81-7.79,5.61-15.54,8.41-23.28h.3c2.79,7.71,5.58,15.42,8.43,23.28h-17.14Z"/><path class="d" d="M359.58,117.05v14.05h16.2v5.91h-16.15v15.81h17.67v5.85h-23.78v-47.47h23.78v5.85h-17.71Z"/><path class="d" d="M638.68,131.14v5.84c-.56,.03-1.06,.07-1.55,.07-4.48,0-8.95,.03-13.43-.02-.99-.01-1.29,.3-1.28,1.28,.04,4.43,.05,8.86,0,13.29-.01,1.01,.34,1.27,1.3,1.26,5.1-.04,10.21,0,15.31-.04,1.01,0,1.43,.25,1.37,1.32-.08,1.49-.02,2.99-.02,4.54h-23.87v-47.5h23.78v5.88h-1.41c-5.06,0-10.12,.03-15.18-.02-1.01,0-1.29,.31-1.27,1.29,.05,3.85,.05,7.69,0,11.54-.01,1,.32,1.29,1.3,1.28,4.43-.04,8.87-.02,13.3-.02,.5,0,1,0,1.66,0Z"/><path class="d" d="M376.69,76.73v5.89h-23.81V35.14h23.88c0,1.75,.04,3.49-.05,5.22-.01,.22-.72,.56-1.11,.57-4.06,.04-8.11,.03-12.17,.03-1.21,0-2.43,.01-3.64,0-.59,0-.95,.14-.95,.83,.02,4.22,.02,8.44,.03,12.66,0,.11,.08,.23,.16,.43h16v5.93c-.4,.02-.84,.06-1.28,.06-4.52,0-9.04,.03-13.55-.02-.99,0-1.4,.2-1.39,1.3,.06,4.43,.06,8.86,0,13.29-.01,1.08,.37,1.32,1.38,1.31,5.02-.04,10.04-.02,15.06-.02h1.44Z"/><path class="d" d="M428.62,111.13c2.18,0,4.23-.05,6.26,.05,.33,.02,.77,.65,.91,1.08,1.89,5.87,3.74,11.76,5.61,17.64,2.26,7.11,4.52,14.22,6.78,21.34,.12,.39,.28,.77,.54,1.51,.26-.68,.42-1.07,.55-1.46,4.27-12.95,8.54-25.89,12.77-38.86,.33-1.01,.76-1.39,1.83-1.32,1.58,.1,3.17,.03,4.95,.03-.23,.76-.4,1.43-.62,2.07-5.08,14.74-10.17,29.48-15.22,44.24-.36,1.06-.85,1.42-1.96,1.36-1.67-.1-3.35-.07-5.02,0-.87,.03-1.29-.2-1.59-1.1-4.56-13.56-9.16-27.1-13.76-40.64-.65-1.93-1.31-3.85-2.02-5.91Z"/><path class="d" d="M654.39,157.61c.2-2.05,.4-4.02,.59-6.02,2.09,.62,4.06,1.28,6.06,1.79,2.42,.62,4.81,.45,7.08-.68,4.86-2.41,5.86-8.77,1.78-12.35-1.73-1.52-3.91-2.53-5.88-3.77-1.94-1.22-4.05-2.24-5.8-3.68-4.43-3.65-5.15-8.54-3.75-13.77,1.34-5,5-7.63,9.96-8.52,3.87-.69,7.65-.13,11.37,1.01,.71,.22,1,.53,.86,1.33-.29,1.67-.47,3.36-.7,5.08-1.84-.55-3.51-1.34-5.24-1.5-2.08-.19-4.31-.21-6.29,.35-4.18,1.19-5.52,6.37-2.6,9.6,1.04,1.15,2.41,2.05,3.74,2.89,2.4,1.51,4.96,2.77,7.32,4.33,7.91,5.24,6.99,16.43,2.91,21.11-2.31,2.65-5.33,3.91-8.71,4.5-4.42,.77-8.61,.02-12.71-1.71Z"/><path class="d" d="M339.42,112.34c-.17,2.14-.33,4.21-.5,6.38-.23-.07-.43-.1-.59-.19-8.66-5.19-21.41-1.73-24.23,11.27-.9,4.16-.79,8.3,.56,12.36,2.91,8.75,10.81,13.14,19.77,10.99,1.53-.37,3.01-.95,4.69-1.5,.11,1.94,.26,3.95,.28,5.96,0,.27-.67,.65-1.1,.8-3,1.04-6.12,1.28-9.27,1.2-5.58-.14-10.6-1.82-14.72-5.7-3.55-3.35-5.61-7.56-6.52-12.31-1.3-6.81-1.02-13.51,2.33-19.75,3.98-7.41,10.35-11.11,18.69-11.5,3.03-.14,6.01,.18,8.87,1.25,.58,.22,1.15,.48,1.75,.74Z"/><path class="d" d="M590.27,158.68h-6.01v-1.66c0-12.75,0-25.5,0-38.25q0-1.69-1.7-1.69c-3.84,0-7.69,0-11.63,0v-5.87h32.71v5.87c-1.63,0-3.21,0-4.78,0-2.43,0-4.85,.05-7.28-.02-1.05-.03-1.33,.3-1.33,1.34,.03,12.83,.02,25.67,.02,38.5v1.79Z"/><path class="d" d="M307.23,35.12h32.88c0,1.77,.04,3.48-.05,5.18-.01,.24-.69,.62-1.06,.62-3.56,.05-7.11,.03-10.67,.03-.49,0-.99,0-1.63,0v41.65h-6.04v-1.61c0-12.79,0-25.59,0-38.38q0-1.65-1.62-1.66c-3.51,0-7.03-.03-10.54,.02-1,.01-1.32-.31-1.27-1.29,.07-1.49,.02-2.99,.02-4.56Z"/><path class="d" d="M451.72,82.61h-6.05v-1.63c0-12.79,0-25.58,0-38.37q0-1.65-1.62-1.66c-3.51,0-7.03-.03-10.54,.02-.99,.01-1.32-.3-1.28-1.29,.07-1.49,.02-2.99,.02-4.56h32.88c0,1.76,.05,3.47-.05,5.16-.01,.25-.76,.63-1.17,.64-3.55,.05-7.11,.08-10.66,0-1.2-.02-1.55,.32-1.55,1.53,.04,12.83,.03,25.67,.03,38.5v1.65Z"/></g></g></svg>