<svg xmlns="http://www.w3.org/2000/svg" viewBox="0 0 431 140.06"><defs><style>.cls-1{fill:#3f5a52;}</style></defs><g id="Layer_2" data-name="Layer 2"><g id="Layer_1-2" data-name="Layer 1"><path class="cls-1" d="M267.12,120.44,254.2,90.21h25.53ZM202.4,49.86l12.91-30.24,12.61,30.24Zm-38.65,70.57L150.83,90.21h25.54ZM99.15,49.86l12.91-30.24,12.61,30.24ZM319,19.62,331.6,49.86H306.08Zm15.92,38,8.91,21.43h9.31L319.19,0,289.67,67.37l-6.64,15H250.8l-2.9-6.73L215.51,0,189,61h0l-9.27,21.38H147.43L146,79.1h0L112.26,0,77.43,79.09h9.2l9.11-21.43H128l9.32,21.44h0l26.62,61,29.22-68.7L199,57.66h32.24l9.36,21.41h0l26.71,61L301.26,61h0l1.42-3.32Z"/><polygon class="cls-1" points="3.6 49.9 0 57.66 69.96 57.66 73.41 49.9 3.6 49.9"/><polygon class="cls-1" points="66.49 82.43 62.28 90.2 125.24 90.2 121.78 82.43 66.49 82.43"/><polygon class="cls-1" points="309.18 82.43 305.57 90.2 368.68 90.2 365.49 82.43 309.18 82.43"/><polygon class="cls-1" points="431 57.66 427.4 49.9 357.59 49.9 361.05 57.66 431 57.66"/></g></g></svg>