<?xml version="1.0" encoding="UTF-8"?><svg xmlns="http://www.w3.org/2000/svg" viewBox="0 0 733.89 195.99"><defs><style>.d{fill:#658c81;}</style></defs><g id="a"/><g id="b"><g id="c"><path class="d" d="M129.23,0h114.42V42.48h-2.17c-21.05,0-42.09,0-63.14,0q-2.26,0-2.26,2.24c0,9.88,0,19.75,0,29.63v2.04h63.73c.04,.86,.11,1.52,.11,2.17,0,12.48,0,24.97,0,37.45q0,2.19-2.15,2.2c-19.77,0-39.54,0-59.31,0h-2.3c-.03,.76-.08,1.35-.08,1.94,0,9.71,.04,19.42-.04,29.13-.01,1.6,.52,1.91,1.98,1.91,21.1-.04,42.2-.03,63.3-.02,.76,0,1.53,.07,2.36,.1v43.36h-114.46V0Z"/><path class="d" d="M113.01,194.68h-47.53V43.8H0V.05H113.01V194.68Z"/><path class="d" d="M523.09,160.02c-3.5,1.68-6.84,3.29-10.22,4.91-.44-.49-.82-.96-1.24-1.4-3.38-3.51-7.5-4.46-12.04-3.07-4.57,1.39-6.79,4.95-7.59,9.45-.69,3.85-.41,7.64,1.37,11.19,4.1,8.21,15.68,6.97,19.48,1.79,.85-1.15,1.3-2.59,2.11-4.27h-12.17v-8.97h23.46c.16,9.04-1.19,17.42-9.48,22.81-5.21,3.39-11.08,3.78-17.14,3.21-9.74-.92-17.01-8.23-19.05-16.78-3.8-15.97,7.4-28.94,22.29-28.95,8.08,0,14.75,2.59,19.65,9.17,.16,.22,.29,.46,.57,.9Z"/><path class="d" d="M545.41,83.92c-13.01-.01-23.45,10.21-23.46,22.98-.01,13,10.25,23.1,23.46,23.1s23.48-10.09,23.5-22.93c.02-12.92-10.36-23.14-23.5-23.15Zm10.78,28.16c-1.8,5.22-6.98,8.61-11.93,7.87-5.9-.88-10.06-5.37-10.34-11.21-.03-.61-.01-1.22-.01-1.58-.15-3.48,.75-6.4,2.75-8.92,2.81-3.54,6.57-4.9,10.94-4.03,4.91,.99,7.7,4.37,8.97,9.03,.81,2.95,.62,5.94-.38,8.84Z"/><path class="d" d="M378.88,151.07h11.72v16.8h16.11v-16.77h11.88v43.7h-11.81v-17.76h-16.04v17.73h-11.85v-43.69Z"/><path class="d" d="M619.68,177.26c.41-.18,.59-.29,.79-.34,5.58-1.59,8.41-5.32,8.92-11.07,.58-6.5-2.91-12.25-8.83-13.96-1.64-.47-3.38-.76-5.08-.79-5.82-.12-11.66-.09-17.49-.1-.41,0-.83,.11-1.2,.16v43.59h11.23v-16.42c.7,.61,1.11,1.26,1.5,1.92,2.64,4.5,5.26,9,7.92,13.48,.28,.46,.8,1.1,1.22,1.11,4.2,.08,8.39,.05,12.91,.05-4.06-6.02-7.94-11.77-11.89-17.63Zm-5.92-5.96c-1.82,.36-3.72,.37-5.86,.57,0-3.89-.03-7.37,.04-10.85,.01-.34,.63-.96,.96-.95,1.7,.05,3.45,.05,5.1,.45,2.68,.66,3.72,2.52,3.65,5.91-.05,2.59-1.33,4.36-3.89,4.87Z"/><path class="d" d="M497.81,111.19c2.93-.82,5.45-1.92,7.25-4.21,2.25-2.87,2.71-6.22,2.52-9.73-.32-5.94-4.38-11.11-10.2-11.63-7.27-.65-14.61-.45-21.92-.61-.1,0-.2,.09-.39,.18v43.54h11.01v-16.45c.68,.42,1,.92,1.3,1.43,2.72,4.63,5.47,9.25,8.15,13.91,.5,.86,1.03,1.29,2.07,1.27,3.55-.05,7.1,0,10.65-.02,.4-.01,.8-.11,1.37-.2-3.99-5.91-7.86-11.63-11.81-17.48Zm-5.12-6.14c-1.83,.5-3.8,.55-5.72,.65-.3,.02-.9-.71-.93-1.12-.11-1.6-.04-3.21-.04-4.81,0-1.49,.03-2.99,0-4.48-.03-.91,.32-1.35,1.26-1.25,1.79,.21,3.65,.19,5.38,.66,2.25,.62,3.29,2.54,3.32,5.34,.04,2.48-1.03,4.41-3.26,5.01Z"/><path class="d" d="M417.55,127.74c-4.79-13.86-9.59-27.71-14.36-41.57-.32-.94-.81-1.28-1.8-1.27-4,.05-8,.07-11.99-.01-1.28-.03-1.86,.41-2.26,1.6-4.65,13.55-9.33,27.09-14,40.64-.17,.49-.27,1.01-.46,1.72,3.83,0,7.43,.03,11.02-.04,.34-.01,.83-.64,.98-1.07,.61-1.83,1.12-3.7,1.65-5.56,.21-.76,.5-1.23,1.45-1.22,4.99,.05,9.99,0,14.99,.07,.45,.01,1.14,.57,1.3,1.02,.64,1.82,1.07,3.72,1.69,5.56,.16,.48,.68,1.19,1.05,1.19,3.59,.1,7.18,.06,10.95,.06-.11-.59-.12-.87-.21-1.12Zm-28.21-15.36c1.98-6.65,3.92-13.17,5.93-19.92,2,6.68,3.96,13.2,5.99,19.92h-11.92Z"/><path class="d" d="M582.81,193.88c-4.81-13.9-9.63-27.8-14.41-41.71-.35-1.02-.91-1.19-1.83-1.19-4,.03-8,.07-11.99-.02-1.27-.02-1.85,.4-2.25,1.59-3.78,11.1-7.62,22.18-11.44,33.26-1.02,2.97-2.04,5.94-3.12,9.08,3.82,0,7.42,.04,11.02-.05,.39-.01,.95-.63,1.1-1.08,.63-1.83,1.18-3.69,1.64-5.57,.25-1.01,.75-1.29,1.74-1.28,4.78,.04,9.55,.04,14.32,0,1.05-.01,1.59,.25,1.85,1.36,.52,2.2,1.23,4.36,1.86,6.52h11.72c-.08-.38-.12-.65-.21-.91Zm-28.26-15.5c1.99-6.68,3.93-13.21,5.93-19.94,2,6.68,3.96,13.18,5.98,19.94h-11.91Z"/><path class="d" d="M685.44,194c-4.82-13.95-9.66-27.89-14.46-41.85-.31-.91-.78-1.18-1.68-1.17-4.1,.04-8.21,.06-12.32-.01-1.16-.03-1.65,.4-2,1.45-3.9,11.4-7.83,22.79-11.76,34.19-.93,2.7-1.86,5.41-2.84,8.23h11.81c.64-2.16,1.35-4.3,1.91-6.49,.26-1.03,.67-1.46,1.78-1.44,4.83,.05,9.66,.04,14.48,.01,.92-.01,1.4,.23,1.63,1.2,.47,1.93,1.03,3.85,1.66,5.73,.15,.43,.76,.99,1.17,1,3.54,.08,7.09,.04,10.78,.04-.08-.46-.09-.68-.16-.89Zm-28.29-15.63c1.99-6.68,3.93-13.2,5.93-19.93,2.01,6.68,3.96,13.19,5.99,19.93h-11.92Z"/><path class="d" d="M345.06,119.12h15.17v9.64h-26.7v-43.73h26.72v9.39c-2.57,0-5.05,0-7.53,0-2,0-4,.05-6-.02-1.18-.04-1.74,.28-1.67,1.57,.09,1.6,.07,3.22,0,4.82-.04,1.09,.36,1.46,1.45,1.44,3.66-.05,7.33,.08,10.99-.06,1.76-.07,2.21,.54,2.09,2.17-.13,1.71-.13,3.44,0,5.16,.12,1.57-.35,2.14-2.01,2.08-3.66-.12-7.33,0-10.99-.06-1.16-.02-1.57,.37-1.53,1.53,.07,1.93,.02,3.86,.02,6.05Z"/><path class="d" d="M286.67,151.07h26.6v9.31c-.64,.04-1.29,.1-1.93,.11-3.94,.01-7.88,.03-11.82-.01-1.07-.01-1.5,.33-1.46,1.43,.07,1.61,.07,3.22,0,4.82-.05,1.1,.38,1.45,1.45,1.43,3.72-.05,7.44-.02,11.15-.01,.6,0,1.2,.05,1.89,.08v9.36h-14.37v7.43h15.11v9.74h-26.63v-43.68Z"/><path class="d" d="M463.5,177.57h-14.33v7.36h15.02v9.84h-26.54v-43.68h26.57v9.3c-.64,.04-1.24,.1-1.84,.1-3.83,0-7.66,.06-11.49-.02-1.4-.03-2.06,.29-1.92,1.83,.13,1.38,.09,2.78,0,4.16-.08,1.28,.34,1.75,1.68,1.72,3.72-.08,7.44,.02,11.16-.05,1.33-.03,1.73,.42,1.69,1.71-.08,2.54-.02,5.08-.02,7.73Z"/><path class="d" d="M362.64,180.69c0,3.92,.03,7.84-.04,11.76,0,.4-.48,.97-.88,1.15-16.15,7.24-31.74-2.8-32.7-18.65-.54-8.8,2.22-16.14,9.52-21.25,7.35-5.14,15.27-4.84,23.27-1.46,.36,.15,.8,.69,.8,1.05,.06,3.97,.04,7.93,.04,12.18-2.43-2.32-4.72-4.27-7.86-4.88-6.87-1.34-13,3.14-13.77,10.09-.55,4.97,.4,9.44,4.63,12.62,4.52,3.4,10.8,2.81,15.22-1.33,.48-.45,.82-1.04,1.23-1.57l.54,.29Z"/><path class="d" d="M718.57,194.81h-11.27c-.03-.67-.08-1.26-.08-1.85,0-5.44,.05-10.87-.05-16.31-.02-1.09-.36-2.31-.94-3.22-4.43-7.03-8.96-14.01-13.45-21-.23-.37-.44-.75-.85-1.44,1.53,0,2.82,0,4.11,0,2.72,0,5.44,.03,8.16-.02,.95-.02,1.5,.28,1.94,1.16,2.2,4.34,4.47,8.65,6.79,13.12,.55-1.08,1.1-2.17,1.66-3.25,1.7-3.3,3.38-6.6,5.13-9.88,.25-.46,.81-1.07,1.24-1.07,4.21-.08,8.42-.05,12.93-.05-.43,.72-.71,1.23-1.02,1.72-4.29,6.67-8.53,13.36-12.9,19.97-1.03,1.56-1.46,3.11-1.43,4.96,.08,5.65,.03,11.31,.03,17.16Z"/><path class="d" d="M308.38,95.24v33.52h-11.97v-33.52c-2.79,0-5.38-.07-7.98,.03-1.44,.06-1.98-.34-1.9-1.85,.12-2.38,.06-4.77,.02-7.16-.02-1,.34-1.37,1.35-1.36,9.66,.02,19.32,.02,28.99,0,1.01,0,1.37,.36,1.35,1.36-.05,2.55-.05,5.11,0,7.66,.02,1.03-.4,1.35-1.38,1.33-2.76-.04-5.52-.01-8.48-.01Z"/><path class="d" d="M428.16,85.04h31.38v10.14h-9.7c0,.9,0,1.59,0,2.29,0,9.82-.03,19.64,.03,29.46,0,1.51-.38,2.05-1.95,1.97-2.66-.12-5.33-.03-7.99-.04-.6,0-1.19-.06-1.94-.11v-2.11c0-9.82-.03-19.64,.03-29.46,0-1.51-.38-2.05-1.95-1.97-2.59,.12-5.2,.03-7.91,.03v-10.2Z"/></g></g></svg>