<?xml version="1.0" encoding="UTF-8"?><svg xmlns="http://www.w3.org/2000/svg" viewBox="0 0 81.46 104.44"><defs><style>.d{fill:#658c81;}</style></defs><g id="a"/><g id="b"><g id="c"><path class="d" d="M49.13,23.45c2.72-2.84,17.17-21.31,18.83-23.45h13.38V13.5c-5.8,7.22-11.6,14.45-17.41,21.67-5.57,6.87-11.49,13.5-19.54,17.76-10.89,5.8-25.1,6.16-35.05-1.66C4.49,47.36,.7,41.56,.11,35.29c-.59-6.39,1.18-12.79,4.97-18.12,3.79-5.21,9.12-9.35,14.8-12.31C24.86,2.25,30.54,.36,36.23,.12V6.99c-7.1,1.54-15.51,4.97-19.3,11.6-2.25,4.03-2.49,9.24,.24,13.14,2.96,4.26,8.05,5.21,13.02,4.38,4.62-.83,8.76-3.2,12.43-6.16,2.25-2.01,4.38-4.26,6.51-6.51m11.84,23.33l-.59,.59c-3.55,3.67-11.96,12.08-24.63,14.56-3.08,.59-6.04,.95-8.76,.95-7.46,0-12.67-2.25-16.93-4.5C4.73,55.53,1.65,51.74,.23,49.49v14.33c0,1.78,.95,3.2,2.25,5.09,2.13,2.84,12.2,12.43,29.25,12.43,8.41,0,14.68-2.25,17.29-3.32,11.72-4.5,19.42-12.31,23.68-17.17,2.84-3.2,8.64-10.42,8.64-10.42v-12.31h-13.38c-.95,1.3-6.04,7.7-6.99,8.64m-.59,32.44c-3.55,2.25-12.2,6.87-23.09,7.93-2.13,.24-4.14,.24-6.04,.24-11.84,0-20.84-3.2-28.18-9.95-1.42-1.3-2.25-2.49-2.84-3.32v9.95c0,2.72,1.18,4.62,3.43,7.1,6.28,6.87,18.35,13.26,31.97,13.26,14.92,0,27.83-6.28,36.71-13.97,5.92-5.09,9.12-9.47,9.12-9.47v-10.18h-10.3c-1.18,1.07-5.68,5.21-10.78,8.41"/></g></g></svg>