<?xml version="1.0" encoding="UTF-8"?><svg xmlns="http://www.w3.org/2000/svg" viewBox="0 0 430.76 258.96"><defs><style>.d{fill:#658c81;}</style></defs><g id="a"/><g id="b"><g id="c"><g><g><path class="d" d="M301.85,1.78c-.76,13.21-11.51,22.09-17.17,33.22-2.42,6.64-8.16,10.58-12.25,16.57-3.71,3.83-7.33,8.06-10.4,12.36,.56,3.09,3.81,3.93,5.67,6.17,4.17,2.54,4.64,7.3,8.26,10.2,2.13,0,2.13,3.18,4.45,2.8,4.92,5.34,8.91,10.86,13,16.67,.65,2.06,1.67,4.12,3.43,5.61,3.24,4.78,5.94,9.84,9.28,14.7,.46,5.43,5.01,9.09,6.4,14.13,2.04,2.72,2.87,5.9,4.73,8.62,2.87,6.37,4.83,13.01,8.26,19.09,.65,1.4-.18,2.8-.93,3.83-1.3,1.04-2.32-.84-3.8-.56-7.61-2.8-14.85-6.83-21.9-11.13-7.24-5.9-15.22-10.1-22.36-16.29-2.79-.76-3.9-4.02-6.51-5.32-6.87-4.32-12.33-10.49-19.3-14.52-3.15-2.43-6.31-4.77-9.47-7.31-2.4-.27-3.24-3.08-5.56-3.92-5.2-3.19-9.93-7.59-15.22-10.59-.46,.76,0,1.88-.46,2.62-3.52,3.48-2.6,8.81-5.11,12.65-.09,5.53-3.89,9.55-5.47,14.42-4.35,7.86-8.16,15.92-12.71,23.67-6.04,8.07-9.28,17.8-17.82,24.26-1.86,2.34-4,3.56-6.31,5.06-1.02-.28-2.51-.1-2.79-1.42-1.02-1.96,.28-4.97-1.11-6.73,1.2-2.71,.46-5.8,1.02-8.8l-.47-1.31c.09-4.12,2.13-7.58,1.31-11.8,1.11-2.62,1.57-5.53,1.85-8.43,1.3-3.56,2.41-7.4,2.79-11.23,1.2-2.23,1.67-5.14,1.39-7.76,.92-2.44,1.11-5.34,3.62-7.12,.37-1.58,0-3.18,.28-4.87,2.5-7.66,5.57-15.07,7.52-22.93,0-.56-.56-.75-.94-.84-5.47-.28-10.57,.84-15.68-.56-8.35-.1-16.79-1.22-24.78-2.91-3.24-.66-7.14-.28-10.11-2.14-1.94,.08-4.18,.46-6.03-.57-3.81-1.87-8.46-1.59-12.26-3.65-2.87,.38-4.91-1.5-7.51-1.78-2.5,.18-3.9-1.97-5.66-3.37v-.84c4.64-6.38,12.06-8.14,18.75-10.58,6.58-2.06,13.91-2.24,20.78-3.65,4.36-.76,9.09,.46,13.45-.28,7.89,.18,15.5,1.49,23.3,1.69,2.6,.37,5.01,1.58,7.61,1.5l-.09-1.13-7.34-10.1c-2.78-6.56-7.88-12.09-9.64-19.01-1.68-2.06-.1-5.15-1.39-7.39-.09-1.03,.75-1.77,1.2-2.62,1.57-.66,3.35,.46,4.92-.56,4.73,1.1,9.09,2.8,13.82,3.72,4.91,1.98,9.93,3.94,14.29,7.2,5.47,3.94,12.06,6.46,16.34,12.56,1.11,1.02,2.88,1.21,4.36,.83,1.29-.19,1.57-1.77,2.78-2.24,5.76-3.65,12.25-5.71,17.91-9.73,2.33-2.34,6.04-2.62,7.42-5.8,1.77-.84,3.34-1.96,5.2-2.44,3.25-2.34,6.5-4.86,10.03-6.72,1.85-.2,3.34-1.22,4.82-2.26,5.76-3.17,11.79-5.8,17.26-9.45,1.2-3.28,4.83-2.54,7.43-3.28,1.3,.28,3.05,.1,3.62,1.78"/><path class="d" d="M164.22,92.29c1.86,1.31,1.76,3.94,3.43,5.25l.83,5.79-4.18,6.2c-5.28,2.8-13.17,4.02-18.09-.48-2.79-2.52-3.52-6.16-2.79-9.83l1.95-5.34c1.11-.74,2.61-.93,3.34-2.24,2.61-1.69,5.94-1.32,8.9-1.97,2.24,.74,5.57-.45,6.6,2.62"/><path class="d" d="M150.48,126.47c1.68,0,2.88,1.22,4.46,.94,2.22,.84,1.94,3.56,4.27,4.2,1.76,3.57,2.87,7.41,3.79,11.25-.65,2.24,1.21,3.54,.56,5.6l.65,.38c.09,2.16-.19,4.58-1.02,6.64,.37,3.94-1.57,7.22-3.24,10.58-1.2,.75-1.77,2.89-3.44,2.53-2.98,.94-3.24,5.42-6.87,4.86-2.32,1.79-5.47,.75-8.25,.84-1.59-.84-3.81-.65-4.92-2.05-2.78-1.13-5.3-3.18-7.71-5.24-.93-2.06-3.06-2.99-3.34-5.33,.83-2.81-.93-5.34-.19-8.14l-.55-4.68,1.76-8.06c2.97-1.58,2.13-5.23,5.1-6.35,1.85-4.32,6.31-5.24,9.74-7.4,1.31-.28,2.88,.46,3.9-.74,1.86-.28,3.62,1.68,5.29,.18"/></g><g><polygon class="d" points="0 206.13 425.25 206.13 425.25 204.65 0 204.65 0 206.13 0 206.13"/><polygon class="d" points="0 207.59 425.25 207.59 425.25 206.1 0 206.1 0 207.59 0 207.59"/><path class="d" d="M250.18,222.35c1.39,4.58-2.17,8.02-3.33,12.11-.31,.58-1.16,.29-1.68,.2l-.17-.36c.46-3.16,2.94-6.09,1.47-9.48-.39-1.34-2.78-1.34-2.17-2.94,.39-.5,.39-1.42,1.24-1.34,1.78-.23,4.17-.3,4.64,1.81"/><path class="d" d="M252.93,223.73c1.91-.27,6.24-1.75,7.65-3.25h1.09c-.05,2.89-.22,8.1-.22,12.99v20.67c0,1.81,.44,2.76,2.13,3.03v1.06c-1.63,0-3.27-.18-4.9-.18s-3.12,.18-4.71,.18v-1.06c1.76-.27,2.17-1.22,2.17-2.41v-17.24c0-3.1-.25-7.08-.42-9.11-.11-2.19-1.05-3.46-2.79-3.46v-1.22"/><path class="d" d="M278.57,246.89c-.6-.12-1.64-.28-2.62-.28-2.51,0-5.13,1.29-5.13,4.69,0,2.46,1.97,4.32,4.25,4.32,1.69,0,2.79-.38,3.68-.91l-.17-7.83m-10.66-5.16v-5.06c2.29-.63,4.47-.97,7.06-.97,4.86,0,9.01,1.28,9.01,6.61,0,1.91-.17,4.69-.2,7.71v1.87c0,2.46,.43,3.15,1.62,3.15,.27,0,.77-.09,1.14-.21l.82,.8-4.09,3.2c-2.09-.27-3.72-1.28-4.38-2.62-1.85,1.34-3.61,2.62-6.01,2.62-3.71,0-7.38-2.25-7.38-6.18,0-5.64,5.52-7.83,10.49-7.83,.87,0,1.8,.17,2.57,.17,0-2.9-.22-6.09-3.94-6.09-2.68,0-4.04,.86-5.41,2.83h-1.31Z"/><path class="d" d="M331.36,229h-2.36c-1.72-5.13-7.22-7.14-12.02-7.14-9.75,0-13.79,7.64-13.79,16.8,0,15.38,11.42,17.99,16.08,17.99s8.62-1.91,11.08-5.72l1.74,.71-1.74,6.05c-4.48,.82-7.27,1.27-10.91,1.27-16.69,0-24.04-10.05-24.04-19.86,0-11.24,8.92-19.53,21.45-19.53,7.28,0,10.09,1.2,14.06,2.19l.45,7.24"/><path class="d" d="M348.37,246.89c-.61-.12-1.63-.28-2.62-.28-2.53,0-5.15,1.29-5.15,4.69,0,2.46,1.97,4.32,4.27,4.32,1.69,0,2.79-.38,3.65-.91l-.15-7.83m-10.67-5.16v-5.06c2.31-.63,4.49-.97,7.06-.97,4.87,0,9.01,1.28,9.01,6.61,0,1.91-.16,4.69-.22,7.71v1.87c0,2.46,.45,3.15,1.65,3.15,.27,0,.76-.09,1.14-.21l.83,.8-4.1,3.2c-2.09-.27-3.72-1.28-4.38-2.62-1.85,1.34-3.6,2.62-6,2.62-3.72,0-7.39-2.25-7.39-6.18,0-5.64,5.53-7.83,10.49-7.83,.88,0,1.81,.17,2.57,.17,0-2.9-.21-6.09-3.93-6.09-2.68,0-4.05,.86-5.42,2.83h-1.31Z"/><path class="d" d="M363.4,226.7c1.58,0,3.01,1.12,3.01,2.72s-1.42,2.72-3.01,2.72-3.02-1.12-3.02-2.72,1.43-2.72,3.02-2.72m2.68,9c0,2.25,.22,6.93,.22,11.3v7.76c0,1.82,.87,2.08,2.13,2.41v1.06c-1.64,0-3.28-.18-4.92-.18-1.48,0-2.95,.11-4.42,.18v-1.06c1.29-.32,1.92-.59,1.92-2.41v-6.58c0-3.84-.35-5.97-.78-7.09-.44-1.06-.99-1.44-2.31-1.64v-1.08c2.53-.57,5.42-1.6,7.05-2.67h1.1Z"/><path class="d" d="M371.15,257.17c1.75-.27,2.9-1.6,3.61-2.51l5.3-6.6-6.28-8.3c-1.04-1.31-1.42-1.69-3.01-2.4v-1.07c1.64,.06,3.33,.17,4.98,.17s3.28-.12,4.9-.17v1.07c-.65,.31-1.14,.43-1.14,1.24,0,.36,.17,1.05,.66,1.69l3.01,3.99,2.68-3.46c.54-.76,.81-1.38,.81-1.76,0-1.01-.66-1.4-1.54-1.71v-1.07c1.49,.06,2.89,.17,4.37,.17s2.91-.12,4.33-.17v1.07c-2.13,.49-3.27,1.78-4.49,3.27l-4.63,5.73,5.89,7.99c.82,1.05,2.09,2.38,3.44,2.82v1.06c-1.63-.07-3.22-.16-4.86-.16s-3.23,.09-4.87,.16v-1.06c.61-.06,1.1-.65,1.1-1.18,0-.31-.45-1.17-.87-1.81l-2.97-4.08-2.95,3.88c-.32,.47-.76,1.49-.76,1.98,0,.86,.44,1.1,1.16,1.22v1.06c-1.42-.07-2.9-.16-4.33-.16-1.19,0-2.35,.09-3.55,.16v-1.06"/><path class="d" d="M408.6,246.89c-.61-.12-1.64-.28-2.62-.28-2.52,0-5.13,1.29-5.13,4.69,0,2.46,1.97,4.32,4.25,4.32,1.7,0,2.79-.38,3.68-.91l-.17-7.83m-10.65-5.16v-5.06c2.3-.63,4.48-.97,7.04-.97,4.88,0,9.04,1.28,9.04,6.61,0,1.91-.17,4.69-.22,7.71v1.87c0,2.46,.43,3.15,1.62,3.15,.28,0,.77-.09,1.17-.21l.8,.8-4.09,3.2c-2.1-.27-3.72-1.28-4.39-2.62-1.86,1.34-3.62,2.62-6,2.62-3.73,0-7.39-2.25-7.39-6.18,0-5.64,5.52-7.83,10.49-7.83,.87,0,1.8,.17,2.57,.17,0-2.9-.21-6.09-3.93-6.09-2.68,0-4.06,.86-5.42,2.83h-1.3Z"/><path class="d" d="M1.13,221.34H22.87c1.21,0,2.31-.33,3.72-.87-.05,1.55-.1,2.71-.1,3.88,0,1.08,.06,2.15,.1,3.21h-2.07c-.82-2.51-2.67-3.68-5.62-3.68h-7.78c-.05,4.37-.09,9.11-.17,14.17h7.66c2.07,0,4.04-.59,4.38-2.88h1.75c-.06,1.54-.11,3.02-.11,4.57,0,1.33,.06,2.73,.11,4.05h-1.75c-.61-2.51-2.25-3.18-4.38-3.18h-7.66c0,4.24-.06,8.87-.06,13.45,0,1.81,1.32,3.03,3.39,3.03v1.17c-2.07,0-4.09-.21-6.18-.21s-4.04,.21-6.12,.21v-1.17c2.19-.38,3.05-1.22,3.05-3.45v-10.71c0-6.38-.76-14.28-.76-17.51,0-1.81-1.31-2.51-3.17-2.94v-1.15"/><path class="d" d="M30.48,236.29c1.59,.17,3.13,.17,4.72,.17s2.99,0,4.53-.17v1.07c-1.75,.37-2.29,1.01-2.29,2.51,0,1.28,.16,3.51,.16,5.64v4.21c0,4.05,2.13,5.91,5.79,5.91,1.37,0,2.95-.38,4.1-1.18v-14.58c0-1.28-.31-2.01-1.92-2.51v-1.07c1.65,.23,3.24,.17,4.88,.17,1.31,0,2.67,0,3.99-.17v1.07c-1.09,.37-1.65,.96-1.65,2.51v13.25c0,2.13,.55,2.83,1.65,2.83,.54,0,.87-.17,1.36-.38l.44,1.01c-.55,.32-4.71,2.25-5.15,2.25-.49,0-3.1-2.03-3.53-2.78-1.54,1.28-5.05,2.78-7.12,2.78-5.46,0-8.15-3.73-8.15-8.57v-4.97c0-2.13-.17-4.14-.17-5.42,0-1.75-.34-2.46-1.64-2.51v-1.07"/><path class="d" d="M58.09,238.25c3.24-.58,5.2-1.37,7.28-2.66h1.1c-.06,.93-.06,1.77-.12,2.66,1.92-1.21,4.38-2.55,6.66-2.55,5.42,0,7.55,3.16,7.55,7.68v11.28c0,1.71,.43,2.08,1.97,2.51v1.06c-1.36-.07-2.67-.18-4.04-.18-1.75,0-3.45,.18-5.2,.18v-1.06c1.53-.32,1.96-.7,1.96-2.51v-9.21c0-2.87-.6-6.79-4.48-6.79-1.09,0-4.59,.53-4.59,2.49s-.11,4.99-.11,9.16v4.36c0,1.92,.56,2.35,2.02,2.51v1.06c-1.57-.07-3.11-.18-4.69-.18s-3.12,.18-4.64,.18v-1.06c1.36-.48,2.02-.7,2.02-2.51v-5.22c0-3.08-.28-5.95-.28-7.67,0-1.54-.76-2.43-2.41-2.43v-1.09"/><path class="d" d="M103.31,245.03c0-5.07-1.53-7.19-5.86-7.19s-6.05,4.51-6.05,8.15c0,4.41,2.72,9.63,7.48,9.63,1.59,0,3.02-.54,4.43-1.87v-8.72m5.52-24.56c0,4.16-.2,10.12-.2,17.77v13.28c0,1.91,.43,2.97,1.68,2.97,.77,0,1.16-.2,1.54-.42l.82,.78c-1.91,1.23-3.93,2.68-4.98,3.96-1.75-.59-3.28-1.93-4.15-3.52l-3.16,2.72c-.93,.54-1.97,.8-3.83,.8-6.68,0-11.05-5.01-11.05-11.46,0-7.4,5.14-11.67,12.13-11.67,1.87,0,3.72,.48,5.57,1.33v-7.87c0-2.98-1.36-3.72-2.79-3.95v-1.06c2.68-.69,5.97-2.17,7.33-3.67h1.09Z"/><path class="d" d="M126.27,246.89c-.6-.12-1.64-.28-2.63-.28-2.51,0-5.14,1.29-5.14,4.69,0,2.46,1.98,4.32,4.27,4.32,1.69,0,2.79-.38,3.67-.91l-.17-7.83m-10.66-5.16v-5.06c2.29-.63,4.49-.97,7.05-.97,4.86,0,9.02,1.28,9.02,6.61,0,1.91-.17,4.69-.22,7.71v1.87c0,2.46,.45,3.15,1.65,3.15,.26,0,.76-.09,1.13-.21l.83,.8-4.09,3.2c-2.07-.27-3.72-1.28-4.38-2.62-1.86,1.34-3.61,2.62-6.01,2.62-3.71,0-7.38-2.25-7.38-6.18,0-5.64,5.52-7.83,10.49-7.83,.87,0,1.8,.17,2.57,.17,0-2.9-.21-6.09-3.93-6.09-2.68,0-4.05,.86-5.42,2.83h-1.31Z"/><path class="d" d="M157.37,242.41h-1.46c-1.1-2.7-3.28-4.56-6.13-4.56-5.03,0-7.11,4.45-7.11,8.85s3.28,9.46,8.85,9.46c2.47,0,4.43-.96,5.97-2.61l1.05,.27-1.65,3.93c-2.19,.64-4.47,1.08-7.53,1.08-8.85,0-12.58-6.55-12.58-11.55s3.73-11.57,12.58-11.57c2.68,0,5.24,.55,7.69,1.34l.33,5.38"/><path class="d" d="M165.31,226.7c1.57,0,3.01,1.12,3.01,2.72s-1.43,2.72-3.01,2.72-2.99-1.12-2.99-2.72,1.41-2.72,2.99-2.72m2.68,9c0,2.25,.21,6.93,.21,11.3v7.76c0,1.82,.88,2.08,2.14,2.41v1.06c-1.65,0-3.28-.18-4.93-.18-1.47,0-2.95,.11-4.42,.18v-1.06c1.32-.32,1.91-.59,1.91-2.41v-6.58c0-3.84-.31-5.97-.77-7.09-.42-1.06-.97-1.44-2.29-1.64v-1.08c2.53-.57,5.42-1.6,7.05-2.67h1.11Z"/><path class="d" d="M185.75,235.7c8.86,0,12.57,6.57,12.57,11.57s-3.7,11.56-12.57,11.56-12.58-6.55-12.58-11.56,3.72-11.57,12.58-11.57m0,20.99c4.97,0,6.67-4.53,6.67-9.42s-1.7-9.41-6.67-9.41-6.67,4.51-6.67,9.41,1.68,9.42,6.67,9.42h0Zm-3.45-24.07l7.59-8.3c.56-.64,1.27-.86,2.14-.86,1.09,0,1.91,.65,1.91,2.03,0,.95-.98,1.64-1.75,2.17l-7.21,4.95h-2.68Z"/><path class="d" d="M201.33,238.25c3.23-.58,5.2-1.37,7.27-2.66h1.09c-.06,.93-.06,1.77-.11,2.66,1.91-1.21,4.39-2.55,6.66-2.55,5.43,0,7.56,3.16,7.56,7.68v11.28c0,1.71,.43,2.08,1.97,2.51v1.06c-1.36-.07-2.68-.18-4.05-.18-1.76,0-3.43,.18-5.2,.18v-1.06c1.53-.32,1.97-.7,1.97-2.51v-9.21c0-2.87-.61-6.79-4.49-6.79-1.09,0-4.58,.53-4.58,2.49s-.11,4.99-.11,9.16v4.36c0,1.92,.54,2.35,2.03,2.51v1.06c-1.6-.07-3.12-.18-4.71-.18s-3.12,.18-4.65,.18v-1.06c1.36-.48,2.03-.7,2.03-2.51v-5.22c0-3.08-.28-5.95-.28-7.67,0-1.54-.76-2.43-2.4-2.43v-1.09"/><path class="d" d="M242.6,222.35c1.39,4.58-2.16,8.02-3.32,12.11-.31,.58-1.16,.29-1.69,.2l-.16-.36c.46-3.16,2.92-6.09,1.46-9.48-.38-1.34-2.76-1.34-2.14-2.94,.36-.5,.36-1.42,1.22-1.34,1.79-.23,4.16-.3,4.64,1.81"/><path class="d" d="M430.44,222.35c1.39,4.58-2.16,8.02-3.32,12.11-.31,.58-1.17,.29-1.71,.2l-.14-.36c.46-3.16,2.94-6.09,1.46-9.48-.37-1.34-2.77-1.34-2.16-2.94,.39-.5,.39-1.42,1.24-1.34,1.78-.23,4.16-.3,4.63,1.81"/><path class="d" d="M422.87,222.35c1.39,4.58-2.17,8.02-3.33,12.11-.31,.58-1.16,.29-1.69,.2l-.17-.36c.47-3.16,2.94-6.09,1.48-9.48-.39-1.34-2.79-1.34-2.16-2.94,.37-.5,.37-1.42,1.23-1.34,1.78-.23,4.18-.3,4.64,1.81"/></g></g></g></g></svg>