<?xml version="1.0" encoding="UTF-8"?><svg xmlns="http://www.w3.org/2000/svg" viewBox="0 0 431 140.06"><defs><style>.d{fill:#658c81;}</style></defs><g id="a"/><g id="b"><g id="c"><g><path class="d" d="M267.12,120.44l-12.92-30.23h25.53l-12.61,30.23ZM202.4,49.86l12.91-30.23,12.62,30.23h-25.53Zm-38.65,70.58l-12.92-30.23h25.53l-12.62,30.23ZM99.15,49.86l12.92-30.23,12.61,30.23h-25.53Zm219.85-30.23l12.61,30.23h-25.52l12.92-30.23Zm15.91,38.04l8.91,21.43h9.31L319.19,0l-29.52,67.37-6.63,15.03h-32.23l-2.9-6.73L215.51,0l-26.54,61.01h-.03l-9.28,21.38h-32.24l-1.4-3.29h.01L112.26,0l-34.83,79.09h9.2l9.12-21.43h32.23l9.32,21.44h.04l26.62,60.96,29.22-68.7,5.83-13.7h32.24l9.36,21.41h.02l26.71,60.99,33.94-79.09h-.01l1.43-3.31h32.23Z"/><polygon class="d" points="3.6 49.9 0 57.66 69.96 57.66 73.41 49.9 3.6 49.9"/><polygon class="d" points="66.49 82.43 62.28 90.2 125.24 90.2 121.78 82.43 66.49 82.43"/><polygon class="d" points="309.18 82.43 305.57 90.2 368.67 90.2 365.49 82.43 309.18 82.43"/><polygon class="d" points="431 57.66 427.4 49.9 357.59 49.9 361.05 57.66 431 57.66"/></g></g></g></svg>