<?xml version="1.0" encoding="UTF-8"?><svg xmlns="http://www.w3.org/2000/svg" viewBox="0 0 733.67 83.45"><defs><style>.d{fill:#658c81;}</style></defs><g id="a"/><g id="b"><g id="c"><path class="d" d="M0,.02c3.34,0,6.69,.11,10.03-.02,1.49-.06,2.07,.48,2.57,1.81,6.28,16.69,12.62,33.35,18.94,50.02,.2,.53,.41,1.05,.79,2.03,.44-1,.75-1.64,1.01-2.31,6.27-16.46,12.57-32.92,18.76-49.41C52.75,.42,53.59-.07,55.32,0c3.11,.13,6.22,.04,9.44,.04V64.51c-2.39,0-4.78,.04-7.16-.05-.33-.01-.79-.66-.92-1.09-.16-.52-.05-1.12-.05-1.69,0-15.81,0-31.62,0-47.42v-2.33l-.42-.17c-.24,.58-.49,1.15-.71,1.74-6.17,16.27-12.37,32.54-18.49,48.83-.6,1.6-1.32,2.31-3.17,2.26-5.09-.14-5.09-.04-6.91-4.81-5.85-15.41-11.69-30.83-17.55-46.24-.24-.62-.54-1.21-1.2-1.72v52.88H0V.02Z"/><path class="d" d="M326.88,.65c-11.45-.8-23-.18-34.66-.18V64.53c4.21,0,8.26-.06,12.3,.03,1.49,.03,1.96-.44,1.94-1.93-.07-6.31-.03-12.62-.02-18.92,0-.75,.09-1.49,.15-2.42,5.77,0,11.31,.12,16.85-.03,12.08-.33,19.59-7.54,20.49-19.47,.82-10.94-6.16-20.38-17.05-21.14Zm-2.5,28.75c-1.2,.4-2.48,.76-3.74,.79-4.61,.09-9.23,.03-14.11,.03V11.07c5.96,.25,11.94-.81,17.77,.9,3.89,1.14,5.76,4.15,5.78,8.69,0,4.53-1.86,7.47-5.7,8.74Z"/><path class="d" d="M732.71,58.83c-.19-9.34-.27-18.69-.34-28.04-.05-7.08-2.8-10.94-9.67-12.86-7.13-1.99-14.34-1.98-21.47,.05-3.78,1.08-7.06,3.03-9.26,6.4-1.52,2.32-2.47,4.84-2.31,7.77h12.72c.46-2.53,1.28-4.91,3.81-6.02,3.35-1.47,6.81-1.41,10.18-.13,2.4,.92,3.01,3.08,3.03,5.39,.02,2.1-1.18,3.47-3.13,4.06-1.69,.51-3.43,.86-5.17,1.19-5,.98-10.15,1.46-14.98,2.97-5.61,1.75-8.14,6.14-8.13,12.14,.01,5.95,2.87,10.38,8.13,12.54,4.29,1.75,8.74,1.71,13.21,1,3.92-.63,7.39-2.31,10.51-5.03,.26,1.18,.36,2.11,.68,2.95,.2,.51,.73,1.24,1.13,1.25,4.01,.09,8.03,.05,12.02,.05-.37-2.09-.93-3.88-.96-5.68Zm-13.67-9.05c-.65,3.66-2.84,6.26-6.63,6.86-2.26,.36-4.65,.29-6.94,.02-2.42-.27-3.96-1.83-4.34-4.31-.45-2.94,.48-5.37,3.02-6.41,2.46-1.01,5.15-1.47,7.76-2.08,2.4-.55,4.83-.99,7.67-1.56-.16,2.43-.1,5-.54,7.48Z"/><path class="d" d="M430.73,38.51c-.79-9.58-5.21-16.85-14.59-20.32-6.34-2.35-12.84-2.3-19.22-.09-9.43,3.28-14.81,11.75-14.91,23.03,.13,1.62,.12,3.27,.41,4.86,2.23,12.45,10.74,19.53,23.65,19.77,12.34,.24,21.54-6.51,24.06-17.97,.65-3,.85-6.21,.6-9.28Zm-14.94,12.08c-1.61,3.96-5.21,5.44-9.35,5.45-4.16,0-7.58-1.58-9.38-5.47-2.87-6.26-2.85-12.65,.03-18.89,1.8-3.88,5.19-5.41,9.39-5.41,4.21,.01,7.62,1.58,9.35,5.45,1.19,2.67,1.67,5.64,2.6,8.93-.82,3.2-1.32,6.74-2.64,9.94Z"/><path class="d" d="M230.96,20.17v-2.22h-7.33v5.71c-2.48-2.92-5.25-5.11-8.84-6.19-9.29-2.77-19.38,1.29-23.81,9.86-3.83,7.39-4.35,15.2-1.95,23.11,2.26,7.49,7.13,12.57,15,14.11,7.79,1.52,14.54-.25,19.21-7.24,.02-.03,.13,0,.2,0,.48,3.44-.18,8.89-1.47,12.03-2.11,5.18-6.15,7.89-12.23,7.82-5.54-.06-10.76-.95-12.65-7.28h-7.54c.32,5.28,3,8.77,7.46,10.97,5.64,2.78,11.62,3.06,17.71,2.11,7.87-1.23,13.14-5.55,15.07-13.35,.72-2.93,1.1-6.01,1.12-9.03,.12-13.47,.05-26.94,.05-40.41Zm-10.42,31.29c-2.24,4.83-6.57,6.92-11.86,6.74-5.39-.18-9.09-2.97-11.01-7.96-2.26-5.89-2.46-11.9-.4-17.88,2-5.79,6.65-8.95,12.67-8.87,5.89,.07,10.27,3.3,12.09,9.23,.77,2.48,1.02,5.11,1.66,8.47-.91,3.06-1.58,6.87-3.15,10.27Z"/><path class="d" d="M630.81,17.93h12.92v46.44h-12.13v-6.45c-1.21,1.34-2,2.33-2.9,3.19-5.6,5.32-16.15,6.28-22.66,2.08-3.91-2.52-5.45-6.41-6.03-10.76-.31-2.31-.41-4.66-.43-6.99-.05-8.37-.02-16.73-.02-25.1,0-.76,0-1.53,0-2.4h13.06v2.29c0,7.37,0,14.75,0,22.12,0,1.56-.01,3.12,.1,4.68,.64,8.77,6.8,9.84,12.78,7.67,4.21-1.53,5.08-5.57,5.17-9.48,.2-8.22,.1-16.44,.13-24.67,0-.83,0-1.66,0-2.61Z"/><path class="d" d="M487.34,17.9h12.68c0,.83,0,1.58,0,2.33,0,7.59-.03,15.17,.02,22.76,.01,1.91,.14,3.83,.42,5.72,.58,4.01,2.77,6.27,6.28,6.72,5.03,.64,8.77-.88,10.15-4.7,.9-2.48,1.36-5.23,1.43-7.87,.19-7.51,.08-15.03,.08-22.54,0-.76,0-1.52,0-2.38h12.8v46.57c-3.83,0-7.52,.04-11.2-.06-.37-.01-.97-.89-1.02-1.4-.14-1.46-.05-2.94-.05-4.4-.3,0-.5-.05-.54,0-5.46,7.07-12.77,8.26-20.88,6.25-6.77-1.68-9.85-6.83-10.07-13.21-.4-11.17-.11-22.37-.11-33.8Z"/><path class="d" d="M481.34,34.27c-4.09,0-7.85,.04-11.61-.06-.45-.01-1.13-.73-1.28-1.24-1.14-3.77-3.52-6.1-7.49-6.6-4.51-.58-8.28,.77-10.44,4.91-3.25,6.21-3.32,12.67-.5,19.05,1.81,4.09,5.41,6.04,9.59,5.67,4.71-.42,7.7-2.67,8.91-7.2,.5-1.89,1.29-2.44,3.18-2.33,3.12,.19,6.26,.08,9.39,.1,.12,0,.24,.12,.36,.19-.17,7.79-5.95,15.2-13.96,17.72-5.13,1.61-10.36,1.74-15.57,.37-9.59-2.52-16.14-10.58-16.74-20.47-.34-5.53,.28-10.91,2.91-15.89,3.91-7.41,10.26-11.15,18.49-11.83,5.1-.42,10.09,.18,14.73,2.53,6.03,3.07,9.42,7.92,10.03,15.08Z"/><path class="d" d="M115.66,58.46c-4.16,.67-4.74,.2-4.79-3.78-.03-3.05,.02-6.09-.01-9.14-.06-6.09,.01-12.18-.29-18.26-.22-4.37-2.79-7.4-6.87-8.87-2.24-.81-4.66-1.3-7.04-1.54-5.44-.55-10.81-.12-15.78,2.41-5,2.54-8.16,8.06-7.53,12.95h7.55c.28-2.87,1.03-5.39,3.47-6.73,5.06-2.77,10.36-2.78,15.54-.4,2.51,1.16,3.55,4.08,3.06,7.13-.4,2.55-2.39,3.43-4.5,3.93-2.48,.59-5.06,.76-7.53,1.37-4.52,1.11-9.22,1.91-13.44,3.75-5.41,2.36-6.6,7.43-6.12,12.88,.43,4.9,3.04,8.31,7.66,10.05,4.59,1.74,9.3,1.71,14.04,.59,3.96-.94,7.22-3.1,9.95-5.82,.73,1.64,1.17,3.35,2.15,4.66,1.63,2.18,7.76,2.61,9.92,.91,.28-.23,.53-.69,.54-1.05,.05-1.67,.02-3.34,.02-5.04Zm-12.81-9.13c-.46,3.64-2.87,6.1-6.1,7.66-3.77,1.81-7.74,2.27-11.83,1.32-3.15-.73-5.02-2.65-5.32-5.59-.32-3.05,.61-5.75,3.48-7.15,2.07-1.01,4.37-1.65,6.64-2.11,4.35-.87,8.75-1.49,13.2-2.22,0,2.46,.29,5.32-.07,8.09Z"/><path class="d" d="M281.44,58.63c-2.63,.42-3.43-.17-3.6-2.75-.09-1.41-.11-2.83-.11-4.25-.01-7.37,.04-14.74-.02-22.11-.06-6.43-3.01-10.31-9.17-11.86-5.89-1.48-11.84-1.44-17.68,.35-6.84,2.09-11.03,7.72-10.68,14.18h7.5c1.05-4.27,1.62-5.67,3.71-6.76,5.02-2.61,10.24-2.72,15.37-.38,2.53,1.16,3.6,4.02,3.16,7.09-.36,2.55-2.32,3.49-4.43,3.99-2.55,.61-5.2,.8-7.75,1.4-4.33,1.03-8.8,1.79-12.87,3.49-5.62,2.35-7.04,7.39-6.56,13.06,.43,5.11,3.18,8.49,7.98,10.26,3.69,1.36,7.51,1.46,11.35,.94,4.87-.66,9.01-2.85,12.43-6.47,1.91,6.01,3.72,7.32,9.01,6.65,3.16-.4,3.54-.82,3.54-3.96v-3.07c-.52,.09-.85,.15-1.18,.2Zm-11.65-9.31c-.48,3.62-2.87,6.11-6.11,7.67-3.76,1.81-7.74,2.28-11.84,1.32-3.13-.73-5.04-2.67-5.33-5.59-.31-3.05,.59-5.87,3.51-7.13,2.75-1.19,5.78-1.81,8.74-2.44,3.65-.78,7.35-1.31,11.1-1.97,0,2.51,.29,5.37-.07,8.14Z"/><path class="d" d="M183.1,58.48c-4.21,.63-4.7,.22-4.86-3.79-.05-1.06-.05-2.12-.05-3.18-.01-7.37,.04-14.74-.03-22.11-.05-6.44-3.2-10.33-9.47-11.83-1.51-.37-3.07-.6-4.62-.73-5.09-.44-10.1-.09-14.84,1.97-5.56,2.43-9.22,8.3-8.43,13.41h6.56c1.55-2.48,2.45-4.93,4.17-6.46,3.33-2.98,12.34-3.04,16.05-.57,2.57,1.71,3.18,4.28,2.79,7.1-.32,2.41-2.3,3.28-4.34,3.84-1.63,.44-3.35,.6-5.01,.97-4.9,1.09-9.95,1.78-14.66,3.44-5.89,2.08-8.06,6.63-7.56,13.69,.36,5.11,3.61,9.04,9.13,10.45,8.52,2.17,16.19,.58,22.3-5.49,1.12,1.83,1.81,4.08,3.34,5.22,2.62,1.96,5.8,1.4,8.75,.21,.35-.14,.72-.72,.74-1.11,.09-1.66,.04-3.33,.04-5.03Zm-12.92-8.82c-.67,4.02-3.57,6.48-7.32,7.89-3.33,1.24-6.75,1.61-10.26,.81-3.32-.76-5.2-2.62-5.64-5.58-.44-3.03,.93-6.22,3.86-7.39,2.86-1.14,5.97-1.7,9.01-2.34,3.44-.73,6.93-1.27,10.44-1.89,0,2.63,.39,5.63-.09,8.5Z"/><path class="d" d="M581.12,17.86h9.38v8.39h-9.37v2.44c0,6.52,0,13.03,0,19.55,0,5.97,1.47,7.26,7.46,6.57,.56-.06,1.12-.15,1.86-.25v9.99c-5.79,.69-11.63,1.22-17.22-1.31-3.1-1.4-4.8-4.07-4.87-7.43-.17-8.07-.13-16.15-.18-24.22,0-1.68,0-3.37,0-5.23h-7.77v-8.43h7.69V3.95h13.02v13.91Z"/><path class="d" d="M553.63,64.35h-12.64V.19h12.64V64.35Z"/><path class="d" d="M666.64,64.4h-12.79V17.92h12.18v7.63l.38,.11c.36-.55,.7-1.13,1.08-1.66,3.55-4.96,8.31-7.55,14.51-7.41,1.47,.03,2.16,.45,2.1,2.1-.12,3.32-.04,6.64-.04,10.09-1.54-.1-2.93-.26-4.31-.27-7.53-.07-12.34,4.08-12.76,11.6-.4,7.21-.25,14.44-.35,21.67-.01,.83,0,1.67,0,2.63Z"/><path class="d" d="M349.86,17.94h12.19v7.89c1.4-1.72,2.45-3.32,3.79-4.6,3.44-3.29,7.57-4.97,12.39-4.56,.63,.05,1.7,.77,1.72,1.22,.14,3.6,.08,7.2,.08,10.88-1.58-.1-2.97-.26-4.36-.27-7.43-.06-12.26,4.07-12.69,11.45-.41,7.06-.27,14.16-.36,21.24-.01,.98,0,1.97,0,3.14h-12.75V17.94Z"/><path class="d" d="M130.93,64.4h-7.46V.18h7.46V64.4Z"/><path class="d" d="M103.28,.05c-3.53,3.85-6.65,7.41-9.98,10.77-.63,.63-2.08,.5-3.17,.61-.9,.09-1.83,.02-3.19,.02,2.32-3.82,4.44-7.37,6.65-10.87,.22-.35,.97-.5,1.48-.51,2.56-.05,5.11-.02,8.21-.02Z"/></g></g></svg>