<?xml version="1.0" encoding="UTF-8"?><svg xmlns="http://www.w3.org/2000/svg" viewBox="0 0 135.54 61"><defs><style>.d{fill:#658c81;}</style></defs><g id="a"/><g id="b"><g id="c"><g><path class="d" d="M0,30.54C0,20.91,2.68,13.41,8.05,8.05,13.41,2.68,20.88,0,30.46,0s17.38,2.64,22.69,7.91,7.97,12.65,7.97,22.15c0,6.89-1.16,12.55-3.48,16.96-2.32,4.41-5.67,7.85-10.06,10.3-4.39,2.45-9.85,3.68-16.4,3.68s-12.16-1.06-16.52-3.18c-4.36-2.12-7.89-5.47-10.6-10.06C1.35,43.17,0,37.43,0,30.54Zm18.23,.08c0,5.95,1.11,10.23,3.32,12.83,2.21,2.6,5.22,3.9,9.03,3.9s6.95-1.27,9.09-3.82c2.15-2.55,3.22-7.12,3.22-13.72,0-5.55-1.12-9.61-3.36-12.17-2.24-2.56-5.28-3.84-9.11-3.84s-6.63,1.3-8.85,3.9c-2.23,2.6-3.34,6.91-3.34,12.92Z"/><path class="d" d="M109.66,59.34v-2.8c6.01-.41,7.25-.91,7.25-6.43V10.72l-17.72,48.61h-3.71L77.78,10.81V50.11c0,5.52,1.32,6.01,7.25,6.43v2.8h-19.86v-2.8c5.93-.41,7.33-.91,7.33-6.43V10.89c0-5.52-1.4-6.1-7.33-6.51V1.66h21.42l14.01,38.48L114.61,1.66h20.93v2.72c-5.93,.41-7.25,.99-7.25,6.51V50.11c0,5.52,1.32,6.01,7.25,6.43v2.8h-25.87Z"/></g></g></g></svg>