<?xml version="1.0" encoding="UTF-8"?><svg xmlns="http://www.w3.org/2000/svg" viewBox="0 0 475.2 472.85"><defs><style>.d{fill:#658c81;}</style></defs><g id="a"/><g id="b"><g id="c"><path class="d" d="M466.29,78.51c-1.67-2.83-3.69-5.55-5.99-7.89-4.24-4.31-8.74-8.37-13.24-12.41-2.2-1.97-4.57-3.8-7.03-5.43-5.37-3.55-10.82-6.97-16.29-10.36-4.54-2.82-9.13-5.58-13.76-8.26-2.02-1.17-4.21-2.06-6.29-3.12-.56-.29-1-.81-1.56-1.06-1.06-.48-2.18-.78-3.23-1.25-1.98-.89-3.88-1.95-5.88-2.75-4.19-1.66-8.42-3.22-12.65-4.76-3.45-1.26-6.91-2.51-10.41-3.63-3.58-1.14-7.23-2.04-10.79-3.21-3.44-1.14-6.81-2.48-10.52-2.46-.81,0-1.65-.07-2.42-.29-1.62-.47-3.19-1.11-4.81-1.59-1.42-.42-2.9-.68-4.33-1.08-3.2-.88-6.37-1.93-9.6-2.68-2.68-.63-5.47-.81-8.16-1.43-2.85-.66-5.55-1.98-8.6-1.65-.57,.06-1.45-.21-1.74-.64-.45-.68-.94-.67-1.57-.67-2.57,0-5.14,.08-7.7-.04-3.72-.18-7.43-.64-11.15-.74-3.25-.09-6.51,.2-9.76,.23-5.6,.04-11.2-.06-16.79,.03-4.01,.06-8.01,.35-12.02,.51-2.94,.12-5.87,.28-8.81,.26-5.66-.02-11.32-.17-16.98-.24-2.27-.03-4.54,.11-6.8-.05-1.63-.11-3.38-.26-4.81-.95-2.71-1.31-5.47-.93-8.1-.44-1.79,.33-3.55,1.75-4.95,2.88-1.65,1.34-2.49,3.92-2.13,6.25,.38,2.49,1.57,4.71,4.01,5.88,1.18,.57,2.44,.97,3.73,1.46-.05,.1-.13,.36-.3,.55-1.54,1.79-3.08,3.58-4.66,5.35-2.41,2.7-4.8,5.42-7.28,8.07-2.57,2.75-5.21,5.43-7.87,8.1-.34,.33-1.27,.65-1.38,.52-.56-.66-1.35-1.5-1.3-2.23,.14-2.04-.58-3.86-.96-5.76-.2-1.05-.4-2.1-.62-3.15-.43-2.04-1.53-3.92-1.27-6.14,.21-1.81-.85-3.22-1.97-4.5-.65-.74-1.89-.57-2.3,.28-1.01,2.14-2.34,4.18-1.92,6.77,.16,.99,.19,2.08-.72,2.91-.22,.2-.27,.67-.27,1.01,.03,1.55,.09,3.1,.17,4.65,.12,2.3-.28,4.46-1.04,6.67-.77,2.25-1.03,4.69-1.32,7.06-.27,2.15-.25,4.33-.38,6.49-.09,1.62,.18,3.41-.43,4.82-.56,1.3-.63,2.5-.64,3.78-.03,2.5,.06,5-.04,7.49-.04,1.04-.47,2.06-.68,3.09-.32,1.57-.7,3.14-.86,4.72-.19,1.81-.07,3.66-.26,5.47-.18,1.69-.73,3.35-.86,5.04-.21,2.66-.11,5.34-.33,8-.22,2.67-.65,5.32-1.03,7.98-.24,1.68-.63,3.33-.83,5.01-.35,2.9-.59,5.8-.9,8.69-.05,.44-.26,.85-.38,1.29-.14,.54-.34,1.09-.38,1.65-.38,5.06-.74,10.13-1.1,15.19,0,.13-.08,.26-.1,.39-.32,2.07-.78,4.13-.93,6.22-.2,2.75-.66,3.31-3.39,3.3-1.22,0-2.45-.01-3.67,.02-.59,.01-1.18,.07-1.76,.17-1.76,.29-3.5,.66-5.27,.9-1.86,.25-3.74,.39-5.61,.6-.21,.02-.47,.12-.6,.27-.71,.85-1.68,.89-2.61,.73-3.18-.52-6.15,.94-9.27,.89-.24,0-.48,.23-.73,.32-1,.34-2,.68-3,1-.47,.15-1.11,.1-1.4,.4-1.53,1.62-3.77,.99-5.61,1.86-1.61,.76-3.75,.37-5.67,1.18-1.71,.72-3.32,2.09-5.4,1.79-.08-.01-.16,.1-.24,.12-.95,.29-1.9,.61-2.86,.83-.57,.13-1.45-.14-1.71,.17-1.37,1.66-3.99,.56-5.22,2.44-.09,.15-.52,.06-.78,.11-2.11,.35-4.35,.37-6.27,1.17-1.36,.57-2.58,1.28-4.09,1.3-.21,0-.42,.17-.61,.29-1.63,1.08-3.31,2-5.34,2.03-.21,.01-.43,.1-.64,.17-1.84,.62-3.09,2.15-5.08,2.77-2.31,.7-4.58,2.04-6.48,3.77-.72,.65-1.56,1.2-2.41,1.7-1.06,.63-1.62,.31-1.61-.9,.01-.94,.19-1.88,.22-2.82,.16-6.45-.33-12.91,.78-19.34,.43-2.52,.22-5.14,.31-7.72,.01-.36-.01-.74,.1-1.08,1.11-3.31,1.71-6.68,1.56-10.2-.09-1.99-.02-3.99-.01-5.99,0-.36,.01-.73,.06-1.08,.25-1.72,.62-3.42,.75-5.14,.18-2.3,.11-4.62,.3-6.91,.08-1.06,.71-2.07,.76-3.12,.18-3.3,.44-6.62,.2-9.89-.14-1.94,.13-3.61,.86-5.32,.17-.4,.26-.86,.28-1.3,.22-3.6,.4-7.2,.61-10.81,.02-.34,.13-.69,.22-1.03,.2-.76,.58-1.52,.58-2.28,.05-6.77,.02-13.53,.04-20.3,0-.76,.17-1.51,.24-2.27,.14-1.45,.57-2.95,.36-4.36-.66-4.4-.05-8.94-1.49-13.24-.38-1.14-1.04-2.21-1.77-3.17-.1-.12-1.39,.64-2.1,1.03-.18,.09-.28,.33-.41,.51-1.19,1.68-2.38,3.35-3.56,5.03-.1,.14-.21,.3-.22,.46-.16,2.45-1.95,4.17-2.85,6.28-.53,1.24-1.25,2.4-1.78,3.63-.62,1.46-1.15,2.97-1.7,4.47-.45,1.21-.95,2.42-1.27,3.67-.44,1.7-.71,3.44-1.09,5.16-.07,.34-.31,.63-.43,.96-.16,.41-.32,.83-.42,1.26-.29,1.2-.29,2.55-.86,3.6-1.09,2-.87,4.1-1.08,6.2-.21,2.11-1.14,4.14-.86,6.34,.02,.13-.22,.28-.27,.44-.26,.74-.66,1.47-.72,2.23-.13,1.83,.25,3.75-.84,5.41-1.08,1.64-.8,3.45-.84,5.23-.02,.53,.05,1.23-.25,1.56-1.04,1.15-.75,2.5-.84,3.83-.21,2.91,.73,5.96-1,8.71-.14,.24-.06,.62-.06,.94-.01,1.23,.05,2.46-.04,3.68-.12,1.79,.02,3.73-.62,5.34-.93,2.33-1,4.64-1.02,7.03,0,.79-.26,1.58-.42,2.36-.2,.95-.51,1.89-.61,2.84-.1,1.04,.01,2.09-.04,3.13-.01,.38-.19,.76-.31,1.13-.25,.83-.59,1.64-.75,2.48-.33,1.71-.25,3.57-.93,5.1-.68,1.55-.68,3.03-.72,4.59,0,.81,.01,1.63,0,2.45-.01,.31,.04,.77-.14,.91-.93,.72-.67,1.71-.69,2.63-.03,1.5,.04,3-.03,4.5-.03,.7-.26,1.4-.44,2.08-.27,1.02-.79,2.02-.81,3.03-.05,1.9-.03,3.82-.89,5.54-.81,1.61-.75,3.27-.81,4.97-.05,1.58,.45,3.26-.73,4.69-.19,.23-.1,.7-.1,1.06-.01,1.77,.02,3.55-.02,5.32-.01,.53-.02,1.16-.29,1.56-1.1,1.66-.94,3.5-1.07,5.34-.09,1.14-.53,2.25-.8,3.38-.19,.8-.49,1.6-.53,2.4-.14,2.48-.09,4.98-.32,7.45-.06,.61-.84,1.6-1.34,1.63-.89,.06-.85-.93-.85-1.67,.01-3.99-.01-7.99,.02-11.99,0-.52,.15-1.05,.3-1.55,.22-.78,.71-1.53,.73-2.3,.07-3.91,.02-7.81,.05-11.72,.01-.51,.18-1.04,.35-1.53,.31-.87,.89-1.71,.97-2.6,.21-2.38,.18-4.78,.31-7.17,.05-.83,.29-1.65,.47-2.48,.18-.81,.51-1.6,.59-2.42,.11-1.3-.24-2.73,.17-3.92,.72-2.09,1.03-4.18,.92-6.33-.23-4.2,.32-8.27,1.44-12.3,.54-1.94-.18-4.17,1.29-5.93,.13-.16,.02-.53,.02-.8,0-2.86,.02-5.73-.01-8.59,0-1.44-.09-2.85,.83-4.13,.28-.38,.3-1.05,.23-1.56-.44-3.41,.28-6.75,1.01-10,.47-2.03,.6-3.98,.64-6,.05-1.91-.29-3.88,.87-5.62,.16-.25,.21-.6,.22-.9,.17-5.83-.57-11.71,.88-17.46,.52-2.07-.05-4.17,.87-6.32,.91-2.14,.71-4.75,.98-7.15,.05-.4-.1-.95,.11-1.2,1.17-1.33,.94-2.92,.98-4.48,.02-1.04-.31-2.3,.17-3.07,.75-1.22,.65-2.4,.66-3.63,.03-1.87,.05-3.73,0-5.59-.03-1.13,.11-2.11,.96-2.98,.4-.41,.67-1.1,.71-1.68,.14-2.32,.16-4.64,.24-6.96,0-.31-.02-.7,.15-.91,.9-1.1,.68-2.39,.68-3.64,.01-1.77-.06-3.54,.04-5.31,.02-.51,.39-1.09,.76-1.49,1.45-1.56,3.28-2.87,3.04-5.38-.02-.19,.1-.48,.25-.59,.88-.62,.83-1.51,.81-2.43-.03-1.68,.02-3.36-.03-5.04,0-.46-.23-.93-.4-1.38-.19-.56-.45-1.09-.65-1.65-.17-.48-.33-.98-.47-1.48-.44-1.6-1.89-2.33-2.94-3.4-.56-.58-1.27-1.18-2.01-1.37-1.37-.35-2.82-.59-4.21-.53-.94,.04-2.09,.45-2.73,1.11-1.76,1.81-3.99,3.27-4.88,5.84-.3,.85-1.16,1.61-1.18,2.43-.07,2.42-2.18,4.28-1.76,6.8,.03,.15-.08,.38-.21,.48-1.12,.99-.76,2.31-.85,3.54-.06,.65-.28,1.29-.47,1.92-.27,.93-.65,1.82-.84,2.76-.26,1.26-.16,2.64-.63,3.79-.62,1.52-.86,3-.78,4.59,.02,.43-.02,.96-.26,1.29-1.09,1.53-.76,3.26-.83,4.95-.03,.6-.22,1.21-.39,1.81-.19,.67-.47,1.31-.67,1.99-.33,1.11-.35,2.43-1,3.28-.57,.75-.59,1.4-.66,2.18-.18,1.77,.69,3.75-1.02,5.23-.1,.08-.04,.35-.05,.53-.13,2.54,.43,5.11-1.04,7.56-.66,1.1-.35,2.75-.89,3.97-.65,1.46-.88,2.88-.81,4.42,.02,.42-.16,.85-.29,1.27-.24,.78-.63,1.54-.73,2.34-.15,1.21,.32,2.69-.23,3.61-1.01,1.71-1.18,3.44-1.19,5.29,0,.42-.2,.85-.34,1.26-.33,.99-.87,1.95-.96,2.95-.17,1.8,.38,3.8-.22,5.39-.58,1.53-.62,2.95-.67,4.46-.03,1.28,.23,2.62-1.07,3.54-.2,.14-.23,.56-.27,.87-.33,2.52-.05,5.17-1.5,7.47-.11,.18-.1,.44-.11,.66-.01,2.24,.44,4.6-.12,6.69-.72,2.68-.68,5.31-.75,7.98,0,.09,0,.19-.03,.27-.05,.17-.08,.39-.21,.5-1.23,1.03-1.04,2.45-1.12,3.82-.12,1.92,.11,4.05-.65,5.7-.97,2.1-.51,4.12-.71,6.17-.02,.27,.04,.55-.01,.82-.07,.34-.09,.8-.32,.99-.91,.76-.71,1.77-.77,2.74-.15,2.62,.63,5.35-.95,7.79-.09,.14-.1,.35-.11,.53-.1,1.98-.15,3.97-.3,5.95-.09,1.11-.03,2.42-.6,3.26-.91,1.36-.72,2.73-.74,4.14-.03,1.5,.01,2.99-.03,4.49,0,.44-.02,1.05-.28,1.27-.9,.71-.78,1.64-.78,2.57,0,1.04,.02,2.09,0,3.13-.04,1.54,.36,3.15-.81,4.51-.2,.24-.24,.67-.26,1.02-.11,1.9-.24,3.79-.28,5.68-.11,5.71-.26,11.42-.25,17.12,.01,2.61,.33,5.22,.55,7.82,.04,.38,.35,.72,.48,1.1,.21,.56,.5,1.13,.56,1.72,.3,3.28-.53,6.61,.79,9.87,.51,1.26,.7,2.71-.31,4.3-.64,1.02-.16,3.02,.33,4.4,.53,1.52,.88,2.97,.83,4.57-.04,1.46,.22,2.73,.94,4.17,1.05,2.09,1.24,4.62,1.77,6.97,.21,.94,.34,1.9,.5,2.85,.2,1.14,.35,2.3,.61,3.43,.26,1.15,.64,2.27,.97,3.4,.21,.69,.55,1.35,.62,2.04,.41,4.1,.86,8.2,1.09,12.31,.22,4.25,.23,8.51,.29,12.76,.04,2.91-.07,5.82,.04,8.72,.06,1.58,.37,3.17,.71,4.73,.39,1.81,1.2,3.57,1.36,5.4,.31,3.31,2.18,5.87,3.66,8.61,1.47,2.72,3.9,4.55,6.38,6.39,1.86,1.39,3.72,1.54,6.09,1.68-.38-.62-.61-.97-.81-1.34-.19-.34-.41-.69-.53-1.06-.5-1.57-.84-3.2-1.47-4.72-1.4-3.36-2.81-6.7-3.21-10.39-.14-1.35-.69-2.65-1.03-3.97-.3-1.19-.65-2.38-.81-3.59-.18-1.33-.16-2.69-.26-4.04-.18-2.51-.46-5.01-.55-7.53-.03-.96,.41-1.92,.49-2.9,.24-2.59,.28-5.21,.6-7.8,.54-4.41,1.21-8.8,1.89-13.2,.37-2.42,.91-4.81,1.28-7.23,.28-1.81,.54-3.65,.57-5.48,.03-1.93-.22-3.86-.34-5.7,1.16-.73,1.94-.53,2.24,.6,.31,1.1,.6,2.26,.59,3.4-.01,4.21-.2,8.41-.22,12.62-.04,8.31-.02,16.62-.01,24.93,0,.49,0,1.02,.18,1.46,.95,2.31,1.44,4.68,1.18,7.18-.03,.21,.09,.43,.15,.64,.3,1.08,.63,2.16,.91,3.25,.13,.51-.01,1.24,.3,1.53,1.08,1.03,1.03,2.39,1.39,3.65,.25,.91,.65,1.78,1.08,2.62,.6,1.15,1.24,2.28,1.93,3.37,.56,.86,1.43,1.57,1.78,2.49,.43,1.1,1.94,2.95,3.33,3.27-.32-3.97,2.37-6.47,4.34-9.75,.42,.75,.81,1.11,.77,1.43-.15,1.5,.83,2.52,1.39,3.73,.19,.39,.22,.86,.36,1.28,.11,.32,.29,.62,.43,.93,.22,.5,.51,.98,.61,1.51,.18,.96,.18,1.95,.37,2.91,.17,.9,.51,1.77,.72,2.66,.1,.38-.09,1.02,.12,1.17,2.21,1.63,.92,4.55,2.51,6.53,.85,1.07,.47,3.04,1.11,4.38,1.04,2.16,1.04,4.71,2.56,6.68,.18,.22,.18,.59,.24,.89,.37,1.75,.72,3.51,1.09,5.26,.03,.14,.05,.27,.11,.39,.64,1.26,1.28,2.52,1.97,3.87,1.03-.02,1.44-.73,1.14-2.04-.35-1.55-.72-3.12-.77-4.7-.11-3.82-.07-7.65-.03-11.48,.06-6.89,.35-13.78,.18-20.67-.07-3.01,1.6-6.08-.17-9.06-.14-.23-.02-.62-.02-.94v-9.54c-.01-1.61,.2-3.24-.92-4.67-.24-.29-.17-.87-.17-1.31-.01-3.54,.02-7.08-.01-10.63,0-.62-.15-1.24-.27-1.85-.25-1.3-.7-2.58-.76-3.89-.11-2.72-.02-5.44-.05-8.17,0-.62-.07-1.27-.28-1.85-.98-2.77-1.63-5.57-1.37-8.54,.13-1.45,.05-2.91,0-4.36,0-.42-.19-.84-.33-1.25-.23-.69-.65-1.35-.7-2.05-.11-1.44-.25-2.94,.03-4.34,.22-1.14,.92-2.23,1.6-3.21,.55-.79,1.39-1.37,2.09-2.04,1.97-1.88,3.63-4.2,6.64-4.55,.25-.03,.47-.25,.71-.37,.48-.23,.96-.47,1.46-.66,.37-.15,.76-.23,1.14-.34,.83-.25,1.66-.51,2.5-.76,.29-.09,.64-.12,.85-.3,.74-.63,1.38-1.2,2.45-1.47,1.93-.49,3.75-1.44,5.62-2.18,.54-.21,1.11-.34,1.62-.58,1.63-.76,3-2.15,5-2.01,.15,.02,.33-.12,.49-.18,1.8-.75,3.6-1.48,5.39-2.23,1-.42,1.95-.98,2.98-1.26,1.51-.42,3.08-.64,4.63-.95,.09-.02,.19-.03,.26-.08,1.46-.98,3.07-1.59,4.8-1.95,.59-.13,1.2-.65,1.74-.57,2.15,.31,4.04-.49,5.72-1.54,2.13-1.33,4.59-1.45,6.86-2.03,2.01-.51,3.99-1.2,5.99-1.74,2.18-.59,4.26-1.89,6.44-2.04,2.5-.18,4.85-.9,7.28-1.26,1.24-.19,2.62-.11,3.68-.65,2.28-1.15,4.64-.94,7.01-.99,.86-.03,1.45,.27,1.53,1.15,.12,1.35,.16,2.69,.23,4.04,.08,1.71,.2,3.38,1.11,4.94,.32,.54,.42,1.6,.1,2.05-1.09,1.54-1.21,3.22-1.21,4.98,.02,4.91,.02,9.81,0,14.72,0,.71-.23,1.42-.25,2.13-.09,2.3-.12,4.6-.21,6.9-.03,.77,0,1.62-.31,2.29-.93,2.01-.94,4.2-.39,6.09,.77,2.64,1.2,5.22,1.17,7.94-.03,3.72-.08,7.44,.03,11.16,.05,1.59,.46,3.17,.75,4.74,.16,.86,.43,1.7,.59,2.56,.14,.8,.03,1.68,.34,2.39,.79,1.87,.68,3.79,.77,5.73,.05,1.18,.46,2.33,.69,3.5,.23,1.14,.39,2.29,.66,3.41,.19,.8,.48,1.57,.78,2.34,.11,.28,.52,.5,.52,.75,.02,1.43,.61,2.71,.91,4.02,.39,1.65,1.12,3.14,1.53,4.75,.19,.73,.56,1.4,.82,2.11,.22,.56,.6,1.15,.56,1.7-.2,2.5,1.78,4.62,1.18,7.18-.03,.13,.31,.32,.41,.52,.75,1.45,1.65,2.85,2.19,4.38,.51,1.42,.62,2.98,.94,4.48,.08,.38,.18,.81,.42,1.11,1.8,2.29,2.75,4.97,3.61,7.7,.07,.2,.19,.39,.3,.58,.71,1.13,1.48,2.24,2.13,3.41,.86,1.54,1.6,3.15,2.44,4.7,.41,.78,.99,1.48,1.39,2.27,.52,1.01,.83,2.14,1.42,3.1,1.06,1.75,2.28,3.39,3.39,5.11,.73,1.13,3.31,1.82,4.28,.93,1.66-1.52,3.28-3.11,4.75-4.81,2.02-2.33,3.87-4.82,5.82-7.21,.75-.91,1.44-.88,2.09,.07,.47,.7,.77,1.52,1.27,2.19,1.79,2.38,3.56,4.79,5.5,7.04,1.62,1.87,3.43,3.59,5.28,5.24,.52,.47,1.47,.46,2.23,.67,.14-.57,.41-1.14,.42-1.72,.04-2.9,.03-5.81,0-8.71,0-.58-.02-1.22-.28-1.7-.79-1.47-.81-3.01-.79-4.59,.03-2.41,.03-4.82-.01-7.22-.02-.9-.01-1.87-.34-2.67-1.33-3.22-1.43-6.56-1.3-9.96,.04-1.09,.01-2.18,.01-3.27-.01-1.56,.16-3.15-.89-4.53-.23-.31-.18-.87-.18-1.31-.01-3.45,0-6.9-.03-10.35,0-.62-.16-1.24-.28-1.86-.25-1.25-.7-2.5-.76-3.76-.11-2.81-.01-5.63-.05-8.45,0-.57-.2-1.13-.31-1.7-.43-2.31-1.29-4.62-1.24-6.92,.17-7.67-.65-15.35,.63-23.03,.67-4.02,.28-8.22,.37-12.34,.09-4.39,.23-8.78,.26-13.18,.02-2.25-.24-4.51-.22-6.76,.01-1.19,.78-2.52,.44-3.52-.76-2.25-.43-4.34,.08-6.49,.03-.13,0-.28,0-.41,0-6.99-.01-13.99,.03-20.98,0-.64,.3-1.28,.47-1.92,.19-.72,.56-1.43,.57-2.15,.05-5.13,.02-10.26,.03-15.39,0-.4-.06-.97,.16-1.17,1.17-1.04,.86-2.38,.92-3.67,.13-2.61-.09-5.3,.54-7.78,.53-2.05,1.19-4,1.1-6.15-.06-1.45-.06-2.91,0-4.36,.06-1.36,.17-2.73,.37-4.08,.13-.95,.64-1.86,.67-2.81,.1-2.72,.03-5.44,.04-8.17,.01-1.47-.18-2.95,.78-4.3,.3-.42,.28-1.12,.28-1.7,.03-2.54-.03-5.08,.05-7.62,.02-.78,.14-1.81,.63-2.25,1.36-1.22,1.22-2.71,1.26-4.24,.01-.53,.29-1.05,.45-1.58,.18,.04,.36,.08,.54,.12-.12,1.69-.35,3.39-.34,5.09,.02,4.27,.01,8.55,.28,12.81,.2,3.16,.85,6.28,1.26,9.43,.24,1.89,.45,3.8,.59,5.7,.15,2.07,.16,4.15,.31,6.22,.04,.6,.35,1.18,.52,1.77,.19,.68,.46,1.35,.52,2.04,.14,1.38-.02,2.82,.26,4.17,.78,3.82,1.33,7.66,1.41,11.56,.02,.67,.09,1.38,.34,1.98,.94,2.27,1.07,4.63,1.03,7.04-.01,.51,.18,1.04,.31,1.56,.15,.63,.43,1.26,.47,1.89,.14,2.48-.06,5.02,.37,7.44,.73,4.05,1.91,8.01,2.78,12.04,.69,3.23,1.19,6.49,1.77,9.74,.43,2.33,.79,4.67,1.29,6.98,.4,1.83,1.01,3.61,1.43,5.43,1.21,5.29,2.43,10.58,3.52,15.9,.38,1.88,.09,3.93,.65,5.73,1.27,4.08,.95,8.22,1.02,12.36,0,.32,.03,.63,.07,.95,.24,1.85,.67,3.7,.69,5.56,.03,1.96-.43,3.93-.47,5.89-.15,6.89-.25,13.77-.28,20.66-.05,9.85-.02,19.71-.02,29.56,0,.46-.01,.91-.04,1.36-.16,1.93-.46,3.85-.47,5.77-.02,3.03,.17,6.06,.23,9.08,.04,1.68,.04,3.36-.02,5.04-.09,2.5-.39,4.99-.34,7.48,.08,3.37,.41,6.74,.65,10.1,.03,.39,.08,.85,.31,1.12,.86,1.03,1.76,2.06,2.73,2.98,1.8,1.71,3.59,3.43,5.53,4.97,1.16,.91,2.53,1.64,3.92,2.16,1.39,.52,2.63-.53,2.39-1.99-.31-1.84-.81-3.66-1.36-5.45-.53-1.71-1.55-3.33-1.8-5.06-.43-2.98-.57-6.02-.59-9.03-.03-4.43,.18-8.87,.24-13.3,.05-4.41-.22-8.84,.81-13.2,.44-1.86,.93-3.65,2.48-4.76,.97,1.93,1.69,4.01,2.94,5.7,2.6,3.5,4.34,7.37,5.56,11.5,1.42,4.8,1.07,9.71,.42,14.55-.63,4.64-1.76,9.21-2.59,13.82-.4,2.27-1.23,4.54-.54,6.87,.51,1.74,1.07,3.48,1.84,5.11,.62,1.33,1.56,2.51,2.4,3.81,2.44-2.05,3.3-4.59,4.13-7.16,1.35-4.19,.77-8.69,2.1-12.92,.6-1.88,.44-4,.61-6.01,.19-2.15,.39-4.3,.55-6.45,.12-1.57,.4-3.17,.21-4.71-.38-3.05-1.09-6.05-1.56-9.09-.3-1.95-.18-3.98-.64-5.87-1.56-6.39-1.96-12.93-2.59-19.43-.45-4.66-.54-9.38-.56-14.07-.04-6.43,.15-12.86,.24-19.3,0-.13-.01-.27,.01-.41,.54-3.02,1.07-6.04,1.63-9.07,1.09-5.99,3.95-10.88,9.15-14.47,.24,.39,.6,.73,.65,1.11,.22,1.38,.33,2.76,.48,4.15,.09,.8,.11,1.61,.27,2.4,.27,1.34,.9,2.65,.9,3.98,.03,5.21-.12,10.41-.23,15.62-.07,3.48-.14,6.96-.28,10.44-.05,1.16-.29,2.31-.44,3.46-.13,1.03-.33,2.05-.35,3.08-.12,6.97-.27,13.95-.26,20.93,.01,7.37-.4,14.71-.74,22.06-.42,8.97-.11,17.98-.09,26.97,0,.36,.14,.74,.27,1.09,.56,1.48,1.87,2.04,3.2,2.55,2.47,.96,4.84,2.31,7.5,2.06,.04-.5,.05-.9,.1-1.3,.28-1.94,.87-3.9,.78-5.82-.18-3.66,.93-6.8,2.95-9.71,1.67-2.42,2.35-5,2.34-7.99-.09-23.57-.05-47.13-.06-70.7,0-1.47,.29-2.76,1.54-3.67,2.55-1.88,5.09-3.75,7.86-5.78,1.46,2.5,2.28,4.78,2.33,7.18,.03,1.67-.54,3.33-.75,5.01-.52,4.22-.24,8.5-1.3,12.71-.94,3.7-1.32,7.55-1.9,11.34-.3,1.97-.55,3.94-.73,5.92-.21,2.37-.28,4.75-.46,7.12-.43,5.87-1.15,11.74-1.27,17.62-.13,6.18,.4,12.38,.43,18.57,.03,4.48,.87,8.8,1.97,13.1,.44,1.72,1.14,3.37,1.61,5.08,.84,3.14,1.52,6.34,3.15,9.2,.53,.92,1.15,1.65,2.16,2.3,3.28,2.1,6.22,1.41,9.18-.44,.82-.51,1.91-1.05,2.21-1.83,1.16-3.05,.94-5.8-1.68-8.31-1.34-1.27-2.2-3.26-2.77-5.08-1.56-5.03-2.24-10.33-4.95-14.99-.13-.21-.19-.49-.2-.74-.04-1.33,.02-2.67-.1-3.99-.51-5.21-1.26-10.41-1.55-15.64-.25-4.54-.01-9.11,.03-13.66,.05-4.58,.12-9.15,.18-13.73,.02-1-.05-2,.03-2.99,.43-5.74,.93-11.46,1.32-17.2,.2-2.93,.21-5.87,.28-8.8,.03-1.46,.13-2.93-.04-4.36-.59-4.69-.18-9.01,3.76-12.3,2.16-1.81,4.19-3.77,6.39-5.51,2.39-1.89,4.99-3.52,7.36-5.43,3.42-2.77,6.96-5.31,10.86-7.39,2.31-1.23,4.34-2.99,6.44-4.57,2.88-2.18,5.66-4.48,8.57-6.61,4.89-3.6,9.88-7.07,14.75-10.68,2.93-2.17,5.84-4.4,8.55-6.83,4.61-4.13,9.63-7.8,13.91-12.32,2.22-2.34,4.89-4.25,7.22-6.49,5.75-5.51,11.31-11.18,15.86-17.78,2.25-3.27,5.05-6.16,7.19-9.49,3.62-5.64,6.84-11.53,10.39-17.21,1.58-2.53,3.48-4.86,5.37-7.16,2.32-2.84,4.84-5.51,7.18-8.34,2.22-2.69,4.32-5.47,6.44-8.23,1.82-2.38,3.59-4.8,5.38-7.2,2.18-2.95,3.71-6.35,6.29-9.04,1.11-1.15,2.1-2.51,2.8-3.94,1.3-2.65,2.35-5.42,3.51-8.14,.55-1.3,1.22-2.56,1.65-3.91,1.63-5.12,1.34-10.17-1.4-14.8ZM27.62,97.53c-.12,.75-.28,1.52-.26,2.28,.08,3.09-.24,6.11-.8,9.15-.41,2.25-.12,4.61-.27,6.91-.08,1.32-.48,2.62-.63,3.94-.28,2.32-.48,4.64-.71,6.96-.09,.95,.07,2.01-.31,2.81-1.08,2.27-.99,4.64-1.1,7.03-.09,1.87-.43,3.73-.6,5.6-.16,1.88-.35,3.77-.36,5.66-.05,4.39-.32,8.72-1.13,13.08-1.02,5.48-2.11,11.01-1.66,16.68,.08,1.1-.44,2.24-.64,3.36-.13,.71-.26,1.42-.28,2.14-.05,3.22-.06,6.44-.1,9.66,0,.41,.08,.91-.11,1.21-1.25,1.89-.99,4.06-1.25,6.14-.31,2.44-.74,4.87-1.08,7.31-.14,1.02-.24,2.05-.25,3.08-.05,2.32,.02,4.64-.04,6.95-.08,2.79,.05,5.54-.63,8.35-.59,2.4-.27,5.04-.34,7.57l-.15,5.58c-.21,.02-.42,.04-.63,.07-.42-1.97-1-3.93-1.2-5.92-.24-2.34-.11-4.71-.22-7.07-.03-.71-.14-1.53-.53-2.07-.87-1.18-1.02-2.46-1.02-3.84,.03-8.45,0-16.89,.07-25.34,.01-.94,.51-1.88,.73-2.83,.25-1.14,.58-2.28,.64-3.43,.33-6.46,.53-12.93,.91-19.39,.12-1.93,.76-3.83,1.04-5.76,.22-1.55,.22-3.14,.39-4.7,.15-1.38,.35-2.77,.64-4.14,.59-2.85,1.25-5.7,1.88-8.55,.04-.22,.07-.45,.06-.67-.17-2.6,.31-5.1,.97-7.59,.51-1.94,1.11-3.86,1.46-5.83,.56-3.17,.94-6.38,1.4-9.57,.04-.27,.02-.63,.18-.78,1.18-1.07,.76-2.48,.9-3.79,.42-4.05,.86-8.11,1.38-12.15,.49-3.8,1.02-7.6,1.68-11.37,.43-2.46,1.21-4.85,1.67-7.3,.53-2.85,.95-5.74,1.27-8.62,.28-2.45,.31-4.92,.53-7.38,.07-.69,.43-1.35,.65-2.02,.15-.08,.31-.15,.47-.22,.22,.38,.58,.73,.66,1.14,.41,2.07,.47,4.12-.42,6.11-.15,.36-.18,.79-.19,1.18-.09,3.16,.07,6.3-1.19,9.36-.55,1.32-.2,2.98-.41,4.47-.29,2.19-.72,4.36-1.07,6.55Zm15.01,155.22c1,2.2,.12,4.36-.03,6.55-.23,3.2-.16,6.43-.16,9.64,0,3.4,.05,6.8,.11,10.19,.07,4.09,.24,8.18,.22,12.27-.01,2.2-.31,4.39-.54,6.58-.03,.37-.33,.72-.65,1.36-.16-1.44-.21-2.52-.43-3.56-.14-.7-.55-1.34-.8-2.03-.14-.41-.23-.85-.28-1.29-.17-1.43,.26-2.86-.72-4.28-.55-.81-.41-2.18-.37-3.3,.06-1.5-.4-2.79-1.01-4.11-.39-.82-.59-1.8-.61-2.71-.06-3.94-.05-7.89,0-11.83,.01-.57,.43-1.11,.59-1.69,.45-1.53,1.06-3.06,1.23-4.63,.23-2.01,.17-4.01,.9-5.99,.46-1.24-.02-2.8,.25-4.15,.27-1.42,.94-2.76,1.43-4.13,.15,.04,.31,.08,.46,.12,.36,2,1.57,3.91,.49,6.07-.13,.26-.19,.67-.08,.92Zm5.99-35.89c-1.36,2.29-2.76,4.51-3.62,7.12-.8,2.44-2.44,4.6-3.78,6.85-.14,.23-.77,.24-1.16,.23-.34-.01-.68-.18-1.01-.31-.57-.21-1.6-.45-1.6-.67,.01-.9,.21-1.86,.57-2.7,.71-1.67,1.54-3.29,2.39-4.89,.52-.98,1.21-1.86,1.76-2.82,.96-1.72,1.86-3.48,2.83-5.2,.18-.34,.57-.56,.72-.69,1,.11,1.74,.13,2.43,.3,.94,.23,1.09,1.74,.47,2.78Zm3.07-27.23c-.25,1.64-.72,3.25-1.13,4.86-.56,2.17-1.13,4.35-1.72,6.51-.36,1.29-.73,2.57-1.15,3.84-.37,1.12-1.16,1.47-2.25,1.02-.58-.24-1.14-.52-1.81-.83,1.4-5.82,2.78-11.5,4.16-17.24,1.05,.07,2.11-.02,3.06,.27,.42,.13,.91,1.08,.84,1.57Zm7.85-89.09c-.35,1.76-.33,3.59-.55,5.38-.26,2.06-.65,4.11-.91,6.17-.25,2.02-.36,4.06-.6,6.09-.22,1.92-.55,3.82-.76,5.75-.15,1.34-.13,2.71-.27,4.06-.22,2.07-.52,4.12-.76,6.18-.11,.95-.11,1.91-.23,2.85-.44,3.5-.92,7-1.39,10.5-.05,.4-.15,.8-.19,1.21-.37,3.78-.75,7.55-1.07,11.33-.12,1.4-.01,2.82-.14,4.21-.16,1.7-.52,3.38-.7,5.08-.24,2.25-.32,4.52-.63,6.76-.19,1.41-.63,2.8-1.05,4.17-.09,.26-.57,.48-.9,.56-.39,.1-.83,.09-1.22,.02-2.85-.55-3.31-.27-2.97-3.23,.11-.94,.02-1.9,.02-2.86-.07-.01-.15-.02-.23-.04,.56-4.1,1.21-8.2,1.66-12.31,.51-4.71,.82-9.44,1.28-14.15,.18-1.78,.92-3.59,.74-5.32-.36-3.49,.43-6.74,1.21-10.05,.35-1.52,.3-3.13,.51-4.68,.33-2.58,.84-5.14,1.06-7.72,.23-2.61,.1-5.26,.32-7.87,.36-4.15,.85-8.28,1.35-12.41,.39-3.19,.89-6.37,1.35-9.55,.27-1.91,.5-3.83,.87-5.72,.25-1.29,1.42-.83,2.24-.86,.65-.02,1.37,.1,1.94,.39,.37,.19,.71,.8,.72,1.24,.2,4.95,.28,9.9-.7,14.82Zm16.17,88.25c10.43-5.6,21.42-10.02,32.02-15.25,1.78-.88,3.93-1.11,5.95-1.39,2.43-.35,4.88-.38,7.23-1.33,1.04-.43,2.26-.56,3.4-.57,4.11-.01,8.16-.14,12.22-1.02,3.07-.67,6.28-.74,9.37-1.07,.43,1.67-.86,2.38-1.81,3.27-.13,.13-.42,.21-.6,.17-2.27-.46-4.25,.69-6.29,1.24-4.65,1.27-9.24,2.75-13.84,4.15-2.68,.81-5.32,1.72-8.01,2.45-6.57,1.79-13.17,3.45-19.73,5.23-5.77,1.57-11.5,3.23-17.25,4.86-1.19,.34-2.37,.69-3.56,1.03l-.3-.45c.39-.45,.71-1.05,1.2-1.32Zm82.47,.63c-.07,2.19-.92,3.04-3.03,3.53-2.85,.67-5.66,1.52-8.51,2.23-2.21,.56-4.27,1.58-6.66,1.67-1.76,.07-3.49,.84-5.24,1.31-1.52,.42-3.06,.82-4.56,1.29-3.22,1.01-6.4,2.11-9.63,3.09-2.05,.61-4.15,1.05-6.21,1.62-1.35,.37-2.67,.81-4,1.23-2.45,.78-4.87,1.66-7.34,2.35-3.69,1.02-7.44,1.82-11.11,2.87-3.34,.96-6.6,2.19-9.93,3.16-2.4,.7-4.87,1.13-7.3,1.73-2.04,.5-4.08,1.05-6.11,1.65-1.84,.55-3.67,1.19-5.49,1.81-.92,.31-1.18-.26-1.22-.95-.06-1.09-.01-2.18-.01-3.27h.06c-.1-1.26-.26-2.51-.26-3.76,0-.32,.61-.96,.77-.91,2.22,.68,4.2-.41,6.19-.91,4.94-1.23,9.81-2.75,14.71-4.17,3.93-1.15,7.85-2.33,11.78-3.49,4.28-1.26,8.54-2.57,12.84-3.76,2.96-.83,5.99-1.43,8.97-2.22,2.25-.6,4.45-1.42,6.7-2.01,2.28-.6,4.63-.95,6.91-1.58,2.28-.62,4.5-1.45,6.75-2.18,1.67-.54,3.34-1.04,5.01-1.57,2.08-.67,4.2-1.23,6.22-2.05,2.51-1.03,5.02-2.13,7.78-1.61,1.37,.25,1.45,1.78,1.83,2.87,.21,.62,.11,1.35,.09,2.03ZM200.05,60.75c1.1-2.79,2.21-5.58,3.43-8.66,1.23,1.64,2.84,2.71,2.82,4.85-.03,1.99,.06,3.84-1.37,5.64-1.31,1.65-1.95,3.83-2.93,5.87-2.38-2.27-3.04-4.95-1.95-7.7Zm-18.8,73.39c.15-1.27,.62-2.49,.86-3.75,.18-.92,.39-1.88,.29-2.79-.22-1.87,.54-3.51,.99-5.22,.04-.18,.14-.36,.11-.53-.73-4.12,1.74-7.81,1.59-11.88-.15-4.03-.12-8.08,.01-12.11,.07-1.92,.66-3.81,.86-5.73,.18-1.7,.16-3.43,.22-5.15,.07-1.83-.24-3.72,.88-5.41,.2-.29,.09-.79,.09-1.2,.01-3.72,0-7.44,.02-11.16,0-.52,.14-1.04,.21-1.56,.16-.01,.33-.03,.49-.05,.15,.82,.3,1.64,.45,2.45,.14,.7,.07,1.58,.48,2.06,1.11,1.31,.9,2.73,.93,4.26,.02,1.39,.77,2.74,.96,4.15,.3,2.22,.42,4.46,.57,6.7,.02,.32-.16,.74-.38,.99-1.56,1.74-1,3.66-.44,5.52,.62,2.03,.92,3.95-.4,5.83-.22,.3-.25,.78-.26,1.17-.06,3.59-.09,7.17-.16,10.75-.07,3.54-.17,7.07-.26,10.6,0,.18,.01,.39-.07,.54-1.48,2.8-.71,5.88-1.09,8.81-.11,.88-.5,1.72-.64,2.59-.17,1.02-.25,2.05-.27,3.08-.03,.91-.2,1.54-1.27,1.75-.52,.1-1.05,.56-1.41,.99-.83,.98-1.92,1.06-2.79,.49-.47-.32-.58-1.38-.63-2.12-.08-1.35-.1-2.73,.06-4.07Zm-19.94,28.87c-1.11-1.47-1.76-3.36-1.32-5.36-.66-4.03,2.19-6.17,4.64-8.48,.45-.42,1.34-.54,2.02-.52,2.05,.05,4.15,.04,6.14,.47,.89,.19,1.54,1.4,2.36,2.1,2.77,2.36,2.97,5.57,2.48,8.73-.54,3.5-4.45,7.01-8.55,6.98-3.44-.02-5.89-1.43-7.77-3.92Zm19.47,19.27c-.01,2.86,.09,5.72-.07,8.58-.13,2.45-.6,4.89-.84,7.34-.13,1.35-.09,2.72-.13,4.08-.07,2.34,.03,4.67-.76,6.97-.41,1.2-.4,2.56-.45,3.86-.14,3.21-.13,6.43-.35,9.63-.12,1.74-.6,3.46-.91,5.19-.1,.58-.26,1.17-.25,1.75,.07,4.13-.13,8.23-.92,12.29-.33,1.7,.29,3.57-1.18,5.08-.43,.45-.32,1.46-.37,2.22-.11,1.54,.31,3.31-.31,4.57-1.31,2.65-.46,5.47-1.16,8.03-1.59,5.83-.5,11.72-.93,17.56-.06,.83-.55,1.61-.68,2.44-.31,1.86-.74,3.73-.71,5.59,.05,2.49-.24,4.85-1.06,7.2-.31,.9-.11,1.97-.18,2.97-.03,.5-.14,1-.21,1.5-.12,.02-.23,.04-.35,.06-.2-.31-.5-.6-.59-.94-.45-1.86-.89-3.72-1.25-5.6-.38-1.98-.59-3.99-1.01-5.96-.17-.79-.74-1.5-1.08-2.26-.27-.62-.68-1.26-.69-1.9-.07-3.59-.08-7.18-.02-10.76,.1-6.15,.21-12.31,.45-18.46,.06-1.59,.64-3.15,.9-4.74,.39-2.39,.69-4.8,1.06-7.2,.34-2.22,.77-4.43,1.09-6.65,.3-2.08,.37-4.21,.77-6.27,.67-3.47,1.56-6.91,2.3-10.37,.47-2.18,.81-4.4,1.28-6.58,.73-3.47,1.53-6.92,2.29-10.38,.13-.6,.14-1.24,.24-1.85,.42-2.47,.82-4.93,1.31-7.38,.11-.59,.64-1.09,.78-1.68,.34-1.38,.63-2.78,.82-4.19,.59-4.22,.99-8.46,1.74-12.65,.46-2.61,1.4-5.14,2.13-7.71,.14-.02,.28-.05,.42-.07,.23,.72,.5,1.43,.68,2.15,.51,1.94-.41,3.71-.88,5.47-.8,3-.91,6.01-.92,9.07Zm7.7,63.39c-.27,1.14-.45,2.3-.72,3.44-.21,.89-.73,1.14-1.62,.75-1.3-.58-2.67-1.02-3.96-1.63-.36-.17-.77-.8-.71-1.14,.48-2.75,1.07-5.48,1.63-8.21,.03-.13,.13-.25,.16-.38,.59-3.41,1.17-6.83,1.79-10.24,.15-.84,.43-1.65,.67-2.47,.08-.26,.26-.49,.31-.75,.41-2.24,.75-4.5,1.21-6.73,.65-3.07,1.38-6.12,2.1-9.32,1.94,.61,3.5,1.03,5,1.62,.37,.14,.7,.83,.75,1.29,.44,4.25-.82,8.28-1.73,12.35-.81,3.68-1.58,7.36-2.41,11.03-.8,3.47-1.66,6.92-2.47,10.39Zm10.9,7.63c-.43,17.79-.89,35.58-1.35,53.36-.03,1.23-.13,2.45-.28,3.67-.06,.55-.31,1.08-.51,1.72-2.06-.92-3.98-1.69-5.81-2.63-.39-.2-.68-1-.68-1.51,.11-7.35,.27-14.68,.42-22.02,.12-6.12,.23-12.25,.37-18.37,.07-3.57,.17-7.15,.27-10.72,.18-6.84,.35-13.67,.56-20.51,.01-.66,.18-1.32,.28-1.98,2.23,.88,4.36,1.68,6.44,2.62,.31,.14,.48,.92,.48,1.4-.03,4.99-.07,9.98-.19,14.97Zm11.15-162.72c-.25,2.36-.53,4.72-.64,7.1-.02,.45,0,1-.25,1.31-1.04,1.33-.9,2.86-1.05,4.39-.13,1.42-.64,2.81-.9,4.22-.2,1.12-.24,2.27-.4,3.4-.11,.76-.31,1.51-.49,2.26-.21,.9-.6,1.79-.65,2.69-.08,1.37,.01,2.7-.97,3.86-.29,.34-.25,1.04-.21,1.56,.21,2.8-.18,5.48-1.31,8.06-.26,.6-.25,1.33-.27,2.01-.1,3.1,.13,6.16-.85,9.26-.61,1.95-.12,4.23-.24,6.36-.04,.76-.46,1.48-.64,2.24-.21,.86-.5,1.75-.49,2.62,.03,1.62-.22,3.12-.99,4.58-.32,.61-.37,1.38-.47,2.08-.41,2.84-.74,5.69-1.2,8.51-.16,1.01-.7,1.96-.87,2.97-.21,1.28-.13,2.61-.33,3.89-.2,1.27-.6,2.51-.9,3.76-.2,.87-.38,1.74-.59,2.6-.2,.82-.45,1.63-.62,2.46-.17,.87-.35,1.76-.38,2.64-.05,1.8,.2,3.6-.98,5.22-.38,.53-.48,1.41-.4,2.09,.2,1.68-.52,3.01-1.41,4.28-.21,.29-.71,.39-1.3,.69v-1.73c0-5.35,0-10.71,0-16.07,0-2.17,.22-4.25,.95-6.37,.69-1.99,.77-4.22,.89-6.36,.14-2.43,.07-4.82,.93-7.22,.56-1.55,.18-3.41,.31-5.13,.06-.83,.35-1.65,.51-2.48,.17-.87,.42-1.75,.44-2.63,.08-3.4,.03-6.81,.16-10.21,.04-1.1,.62-2.16,.76-3.26,.35-2.91,.45-5.86,.94-8.75,.76-4.46,.25-9.09,1.13-13.41,.85-4.21,.49-8.34,.92-12.48,.02-.18-.02-.41,.07-.53,1.68-2.16,1.03-4.87,1.72-7.27,1.2-4.16,1.43-8.57,3.49-12.51,.97-1.86,1.44-3.97,2.32-5.87,.49-1.06,1.38-1.94,2.07-2.88,1.82,.82,2.13,2.41,2.19,3.65,.21,4.8,.49,9.65,0,14.4Zm98.47-63.15c4.76-.04,9.27,1.11,13.72,2.64,3.03,1.04,6.15,1.85,9.08,3.11,2.55,1.1,4.91,2.67,7.34,4.05,1.67,.95,3.44,1.78,4.97,2.93,3.23,2.42,6.35,4.99,9.48,7.55,2.01,1.64,4.02,3.28,5.89,5.08,1.81,1.74,3.44,3.67,5.2,5.58-2.24,1.32-4.34,.56-6.3-.04-4.71-1.44-9.3-3.24-14.01-4.64-6.38-1.88-12.87-3.37-19.22-5.32-4.98-1.52-10.04-2.81-14.82-5.01-3.82-1.76-7.9-2.95-11.85-4.44-1.5-.56-2.98-1.2-4.42-1.9-3.67-1.78-7.32-3.61-10.98-5.44-.32-.15-.59-.4-.98-.68,.36-1.57,1.83-1.13,2.82-1.53,.6-.25,1.3-.29,1.9-.55,2.37-1.06,4.86-1.38,7.42-1.38,4.92,.01,9.84,.03,14.76-.01Zm58.25,48.36c3.88,1.93,7.73,3.91,11.59,5.88,1.59,.81,3.18,1.64,4.77,2.46,4.97,2.56,9.94,5.11,14.91,7.66,.59,.31,1,.65,.38,1.31-.2,.23-.33,.54-.53,.77-1.73,2.08-1.76,2.15-4.13,1.07-4.04-1.84-8.04-3.77-12.05-5.66-6.06-2.84-12.16-5.6-18.13-8.61-1.39-.7-2.45-2.2-3.48-3.48-.52-.64,1.59-2.72,2.97-2.71,.08,.01,.45,.02,.78,.14,.98,.36,1.99,.7,2.92,1.17Zm-126.8,5.09c-.33,4.24-1.53,8.35-1.51,12.68,.05,17.64-.17,35.29-.19,52.93-.02,10.33,.18,20.67,.24,31.01,.04,6.32,.02,12.65-.02,18.97-.01,.45-.47,.9-.72,1.34-.31-.44-.84-.85-.92-1.33-.68-4.1-1.31-8.21-1.89-12.33-.35-2.52-.56-5.07-.87-7.6-.28-2.26-.72-4.5-.89-6.77-.27-3.52-1.58-6.87-1.36-10.49,.12-2.15-.58-4.34-.85-6.51-.15-1.16-.33-2.34-.25-3.5,.14-2.13-1.19-3.84-1.48-5.79-.3-2.05,.05-4.18-.1-6.26-.17-2.4-.58-4.78-.87-7.17-.08-.58-.22-1.16-.17-1.74,.25-3.45-.34-6.82-.87-10.2-.1-.66-.2-1.33-.23-2-.11-2.8,.31-5.73-.39-8.37-1.25-4.71-.35-9.42-.71-14.1-.03-.35-.02-.82-.22-1.02-1.14-1.09-1.2-2.45-1.15-3.89,.2-5.23,.34-10.47,.57-15.7,.1-2.34,.34-4.66,.54-6.99,.02-.26,.04-.61,.2-.74,1.3-1.08,.97-2.63,1.12-3.99,.11-1.08,.22-2.03,1.12-2.33,0-1.24,0-2.31,.01-3.38,0-1.04,.66-1.07,1.22-.57,1.65,1.46,3.22,3.01,4.82,4.54,.19,.18,.28,.47,.48,.63,2.95,2.38,3.44,5.85,4.17,9.24,.35,1.66,.96,3.28,1.12,4.96,.21,2.14,.22,4.32,.05,6.47Zm16.69-53.36c-1.76-.58-3.11-1.71-4.46-2.99-2.69-2.58-5.13-5.55-9.09-6.45-2.74-.63-4.72,.34-6.47,2.28-.95,1.04-1.89,2.08-2.88,3.08-1.36,1.39-2.78,2.73-4.14,4.13-.36,.37-.58,.87-1.15,1.76-.42-1.8-.87-3.31-1.11-4.86-.44-2.74-1.49-5.2-3.06-7.45-.45-.65-1.06-1.2-1.83-2.06,1.47-.21,2.71-.52,3.95-.55,7.43-.13,14.86-.19,22.29-.29,5.84-.08,11.68-.2,17.53-.26,3.07-.04,6.15-.07,9.22,.01,5.19,.13,10.38,.32,15.57,.54,1.2,.05,2.38,.35,3.58,.53,0,.14,.01,.28,.01,.42-.94,.37-1.88,.72-2.81,1.11-3.71,1.58-7.4,3.22-11.13,4.74-1.39,.57-2.93,.8-4.32,1.36-2.07,.82-4.03,1.92-6.12,2.67-2.5,.89-5.11,1.52-7.66,2.28-1.98,.58-3.96,.65-5.92,0Zm17.65,214.93c-4.04,.05-8.08,.04-12.12-.01-.29-.01-.66-.48-.81-.82-.14-.3-.04-.71-.04-1.07,0-15.66,.02-31.33-.01-46.99-.01-3.72-.24-7.44-.24-11.16s.18-7.53,.23-11.29c.01-1.16-.22-2.32-.24-3.49-.04-2.69-.04-5.38,0-8.07,.04-2.49,.25-4.99,.24-7.48,0-3.25-.19-6.51-.24-9.76-.05-3.05-.03-6.11-.01-9.16,.09-10.52,.18-21.04,.28-31.56,0-.36,.08-.72,.12-1.09h.3c.06,.23,.16,.45,.17,.68,.1,2.71,.1,5.42,.31,8.12,.29,3.76,.66,7.52,1.14,11.25,.41,3.09,.97,6.17,1.57,9.23,.66,3.39,1.32,6.8,2.23,10.13,1.01,3.72,2.29,7.37,3.45,11.05,.47,1.5,.91,3.02,1.41,4.51,.58,1.72,1.35,3.39,1.78,5.15,.33,1.33,.29,2.76,.38,4.15,.11,1.89,.15,3.78,.28,5.67,.24,3.4,.58,6.8,.78,10.21,.07,1.21-.42,2.5-.18,3.65,.57,2.8,.59,5.58,.53,8.41-.08,3.57,.13,7.14,.21,10.71,.01,.41,.01,.82,.01,1.23,0,10.3,.01,20.6,.01,30.91,0,1.69-.1,3.38,.03,5.06,.1,1.27-.52,1.81-1.57,1.83Zm-1.45-182.62c-.34-.17-.56-.55-.91-.92,2.72-1.09,5.4-.7,8.06-.5,.18,.02,.36,.08,.53,.09,3.81,.1,7.63,.03,11.42,.36,1.95,.17,3.89,.91,5.75,1.62,3.24,1.23,6.4,2.65,9.6,3.96,2.32,.95,4.68,1.82,6.99,2.81,2.13,.9,4.21,1.92,6.33,2.86,4.03,1.81,8.13,3.5,12.1,5.44,4.11,2.01,8.12,4.22,12.13,6.42,1.62,.89,3.09,2.03,4.7,2.94,2.64,1.47,5.39,2.74,7.99,4.28,2.71,1.6,5.35,3.34,7.91,5.17,2.89,2.08,5.78,4.18,8.43,6.54,2.89,2.58,5.55,5.42,8.21,8.25,.93,.98,1.7,2.18,2.25,3.41,.4,.89,.32,1.99,.47,3.11-2.79-1.76-5.42-3.52-8.15-5.11-1.88-1.09-3.92-1.91-5.87-2.88-1.44-.72-2.85-1.52-4.29-2.25-3.02-1.54-6.04-3.09-9.09-4.56-5.18-2.51-10.4-4.96-15.58-7.46-3.2-1.54-6.4-3.1-9.56-4.73-1.7-.89-3.23-2.15-4.98-2.9-3.34-1.42-6.79-2.56-10.17-3.89-1.2-.47-2.33-1.12-3.48-1.71-5.44-2.8-10.87-5.6-16.31-8.39-2.77-1.42-5.55-2.83-8.35-4.19-3.12-1.51-6.28-2.93-9.4-4.42-2.26-1.08-4.5-2.2-6.73-3.35Zm12.13,36.83c-.61-2.4-1.63-4.69-2.45-7.03-.92-2.66-1.81-5.33-2.77-8.15,.64,.1,1.07,.26,1.48,.2,3.2-.41,5.96,.73,8.76,2.13,1.84,.92,3.96,1.3,5.92,2,.57,.2,.99,.81,1.56,1.02,3.18,1.16,6.37,2.3,9.59,3.36,5.15,1.7,9.9,4.21,14.6,6.88,2.86,1.63,5.97,2.81,8.46,5.13,.87,.81,2.29,1.01,3.39,1.62,2.07,1.13,4.08,2.37,6.13,3.55,3.22,1.85,6.49,3.64,9.67,5.56,2.06,1.26,4.18,2.25,6.48,3.05,2.15,.76,4.04,2.26,6.06,3.41,3.3,1.88,6.62,3.7,9.9,5.62,2.35,1.37,4.71,2.76,6.22,5.12-1.12,1.68-2.15,3.24-3.2,4.8-1.87,2.78-3.66,5.63-5.65,8.32-3.56,4.83-7.16,9.64-10.91,14.32-1.99,2.48-4.28,4.73-6.53,6.99-3.03,3.05-6.07,6.1-9.28,8.96-3.42,3.04-6.53,6.43-10.45,8.91-1.76,1.12-3.21,2.73-4.91,3.97-6.26,4.55-12.49,9.15-19.42,12.67-4.49,2.27-9.07,4.36-13.61,6.53-.51,.25-1.01,.54-1.6,.86-1.69-2.26-2.72-4.64-2.29-7.65,.27-1.93,.03-3.97-.2-5.93-.4-3.26-1.2-6.43-1.13-9.78,.16-8.03-.01-16.07,.09-24.11,.03-2.49,.49-4.99,.74-7.48,.04-.41,.04-.82,.04-1.22,0-6.18,.13-12.36-.05-18.53-.11-3.53-.73-7.05-1.13-10.57-.23-1.95-.5-3.91-.73-5.86-.38-3.34-.67-6.69-1.15-10.01-.42-2.91-.9-5.82-1.63-8.66Zm2.76,132.65c-.23-2.06-.23-4.17-.19-6.25,.05-2.3,1.91-3.04,3.63-3.74,4.61-1.89,9.38-3.41,13.81-5.65,4.82-2.43,9.32-5.49,13.95-8.29,2.14-1.29,4.35-2.48,6.36-3.94,2.21-1.6,4.32-3.36,6.32-5.21,6.96-6.45,13.93-12.89,20.74-19.5,3.91-3.8,7.47-7.97,11.26-11.9,3.2-3.31,6.54-6.49,9.76-9.78,3.42-3.49,6.76-7.05,10.16-10.55,.78-.81,1.64-1.56,2.54-2.23,2.74-2.02,4.95-4.52,7.33-7.43,.1,.45,.36,.93,.26,1.33-1.36,5.32-3.91,10.03-7.25,14.37-1.14,1.48-1.87,3.27-3,4.76-2.03,2.69-4.21,5.27-6.34,7.89-1.3,1.6-2.99,3.02-3.81,4.83-.79,1.74-1.74,3.21-3.08,4.46-5.05,4.71-10.05,9.46-15.22,14.03-4.98,4.41-10.09,8.68-15.24,12.88-3.64,2.96-7.44,5.71-11.18,8.53-2.57,1.94-5.15,3.85-7.74,5.75-1.97,1.45-3.97,2.86-5.94,4.3-6.2,4.49-12.79,8.34-19.51,11.98-2.06,1.12-4.04,2.38-6.39,3.78-.47-1.63-1.07-3-1.23-4.42ZM447.89,101.09c-.46,2.05-1.67,3.92-2.45,5.91-.68,1.71-1.17,3.5-1.89,5.2-.24,.56-.94,.93-1.43,1.39-.31,.29-.62,.57-.91,.87-1.6,1.6-2.39,3.65-3.28,5.68-.58,1.32-1.63,2.42-2.34,3.7-1.03,1.87-1.8,3.9-2.95,5.7-2.57,4.01-5.35,7.9-7.98,11.88-2.19,3.31-4.24,6.72-6.44,10.02-.99,1.5-2.31,2.77-3.3,4.26-2.62,3.92-6.23,6.91-9.38,10.34-3.33,3.63-6.74,7.26-9.55,11.3-1.74,2.5-3.27,5.11-5.52,7.2-3.08,2.86-5.96,5.99-9.31,8.48-2.15,1.6-3.1,4.08-5.2,5.58-.61,.43-1.18,.91-1.72,1.42-2.41,2.29-4.77,4.64-7.21,6.88-1.08,.99-2.36,1.75-3.47,2.7-2.81,2.38-5.54,4.85-8.37,7.21-3.54,2.97-7.07,5.97-10.76,8.75-5.64,4.23-11.47,8.22-17.13,12.43-6.19,4.62-12.93,8.25-19.83,11.66-2.52,1.24-4.87,2.85-7.43,4.03-3.07,1.41-5.91,3.41-9.37,3.89-.12,.02-.25,0-.48,0,.36-2.33,1.52-4.21,3.09-5.72,4.48-4.3,9.08-8.5,13.66-12.7,2.52-2.31,5.05-4.61,7.66-6.82,2.52-2.14,5.15-4.16,7.72-6.25,1.43-1.16,2.92-2.26,4.22-3.55,3.69-3.67,7.94-6.61,12.1-9.67,2.06-1.52,3.97-3.24,5.95-4.86,2.11-1.74,4.21-3.5,6.34-5.2,2.97-2.38,6.01-4.65,8.94-7.07,4.81-3.98,9.57-8.01,14.31-12.06,3.43-2.93,6.9-5.82,10.14-8.96,2.92-2.83,5.48-6.03,8.32-8.95,1.3-1.33,2.93-2.33,4.32-3.58,1.29-1.16,2.52-2.41,3.7-3.7,1.75-1.93,3.49-3.88,5.12-5.91,2.09-2.58,4.1-5.24,6.08-7.91,1.36-1.84,2.61-3.77,3.91-5.65,1.55-2.25,2.53-4.71,2.73-7.45,.16-2.2,.53-4.39,.5-6.57-.06-4.29-.51-8.58-.46-12.86,.05-4.56,1.7-8.69,4.56-12.25,.98-1.21,2.31-2.14,3.45-3.24,1.02-.99,.9-2.1-.12-3.06-.55-.51-.81-1.34-1.39-1.8-3.8-3-7.66-5.93-11.48-8.91-2.62-2.04-5.21-4.1-7.81-6.16-3.29-2.6-6.6-5.19-9.86-7.83-1.73-1.4-3.33-2.98-5.1-4.34-1.65-1.26-3.52-2.25-5.18-3.51-2.12-1.61-4.18-3.32-6.18-5.09-2.84-2.52-5.47-5.3-8.44-7.65-1.94-1.53-3.73-3.44-6.52-3.8-.9-.12-1.69-1.42-2.44-2.26-1.08-1.23-2.09-2.51-3.09-3.81-.15-.2-.05-.59-.07-.89,1.83,.7,3.46,1.2,4.98,1.92,.94,.45,1.69,1.32,2.61,1.84,3.13,1.76,6.22,3.61,9.47,5.12,3.81,1.78,7.78,3.25,11.69,4.85,1.51,.61,3.03,1.21,4.83,1.66-.24-.44-.37-1-.74-1.29-1.64-1.31-3.27-2.65-5.04-3.78-3.16-2.03-6.38-3.97-9.63-5.86-1.9-1.11-3.93-2.01-5.85-3.1-1.41-.8-2.73-1.75-4.45-2.86,.97,0,1.65-.18,2.16,.03,3.31,1.39,6.55,2.95,9.88,4.29,2.86,1.16,5.82,2.08,8.72,3.14,2.02,.74,4,1.59,6.03,2.28,.76,.25,1.61,.2,2.42,.29,.07-.15,.14-.31,.21-.47-1.57-1.12-3.1-2.3-4.72-3.35-4.25-2.75-8.53-5.44-12.79-8.17-.28-.19-.42-.59-.67-.96,1.69-.69,2.6,.5,3.68,.96,2.13,.91,4.19,2,6.31,2.94,2.73,1.22,5.47,2.41,8.23,3.54,1.65,.67,3.37,1.15,5.02,1.8,2.42,.95,4.83,1.91,7.19,3,4.34,1.99,8.69,3.99,12.94,6.18,2.41,1.24,4.72,2.73,6.87,4.38,1.75,1.34,3.15,3.14,4.78,4.63,1.85,1.7,3.87,3.22,5.69,4.95,1.3,1.23,2.39,2.69,3.57,4.04,2.61,2.95,4.97,6.09,6.57,9.7,.59,1.31,.89,2.82,1.03,4.26,.55,5.99-.67,11.82-1.97,17.6Z"/><path class="d" d="M110.46,405.4h-10.46c0-.65-.05-1.2,0-1.75,.17-1.78,.44-3.55,.53-5.33,.09-1.87-.01-3.75,.02-5.63,.07-3.7,.3-7.41,.25-11.11-.18-11.92,.85-23.88-1.41-35.84-.98-.67-1.89-.26-2.78,.76-1.16,1.31-2.46,2.48-3.65,3.75-.61,.65-1.52,1.37-1.59,2.12-.27,2.88-.22,5.78-.37,8.67-.06,1.16,.34,1.6,1.51,1.64,.51,.02,1.16,.41,1.49,.83,1.46,1.87,1,4.05,.56,6.07-.53,2.41-.76,4.76-.3,7.19,.16,.86,.09,1.71-.92,2.14-1.87,.79-2.08,1.26-1.47,3.11,.53,1.61,1.38,3.2,1.49,4.83,.24,3.5,.11,7.03,.11,10.54,0,2.32,.03,4.65-.05,6.97-.03,.88-.51,1.51-1.55,1.6-1.01,.09-2.01,.39-3.02,.49-1.52,.15-3.05,.26-4.58,.28-.75,.01-1.46-.23-1.74-1.13-.39-1.27-.96-2.49-1.29-3.78-.31-1.19-1.1-1.61-2.18-1.87-.56-.14-1.16-.45-1.57-.85-1.35-1.33-2.61-2.76-3.94-4.11-1.66-1.68-3.74-2.44-6.07-2.5-3.86-.1-7.16,1.81-10.57,3.21-1.68,.69-3.06,2.12-4.6,3.2-3.61,2.52-6.65,5.56-8.82,9.44-.96,1.72-2.04,3.39-3.08,5.07-1.01,1.62-.56,5.06,.36,6.76s1.96,3.49,1.32,5.68c-.39,1.37-.61,2.83-.62,4.25-.01,1.79-.37,3.61,.68,5.39,.42,.72,.22,1.86,.91,2.67,.7,.82,1.43,1.68,1.86,2.65,1.33,3.01,3.92,4.17,6.85,4.27,2.52,.09,5.18,.77,7.63-.71,.96-.58,2.11-.85,3.13-1.36,1.06-.53,2.07-1.16,3.09-1.77,.75-.46,1.58-.85,2.18-1.46,.79-.81,1.32-1.87,2.07-2.73,1.13-1.3,2.42-2.45,3.5-3.78,1.36-1.67,2.59-3.45,3.86-5.19,.19-.25,.33-.55,.45-.84,.58-1.38,.93-2.92,1.77-4.12,1.88-2.68,1.26-6,2.54-8.81,.54-1.19,.71-2.55,1.12-4.08,.51,.15,1.21,.17,1.66,.52,1.31,.98,2.78,.5,4.18,.61,1.07,.09,2.16,.14,3.22,.31,.28,.04,.72,.48,.72,.74,.01,3.47,.11,6.92-.58,10.37-.43,2.13-.73,4.49-.27,6.55,.63,2.76,.65,5.52,.82,8.27,.15,2.39-.33,4.81-.45,7.23-.03,.41,.2,.98,.51,1.24,1,.85,2.08,.85,2.88-.18,.54-.71,1.12-.71,1.83-.74,1.58-.07,3.09-1.49,2.9-2.76-.16-1.15-.59-2.29-.6-3.44-.02-1.72,.21-3.44,.34-5.16,.11-1.49,.33-2.98,.31-4.47-.02-1.06-.51-2.11-.55-3.17-.15-4.24-.23-8.5-.28-12.75-.01-.91-.05-2,.4-2.68,.27-.4,1.51-.16,2.31-.16,2.68-.01,5.35,0,8.03-.01,1.79,0,2.82-.98,2.85-2.66,.02-1.49-1.13-2.49-2.88-2.49Zm-64.85,8.96c-.94-1.12-1.05-3.05,.14-4.67,1.68-2.28,3.58-4.4,5.47-6.52,.57-.65,1.4-1.08,2.12-1.6,.07,.11,.13,.23,.2,.35-2.64,4.14-5.28,8.29-7.93,12.44Zm31.42,4.54c-.58,1.85-1.04,3.77-1.89,5.49-.86,1.73-2.04,3.33-3.23,4.86-1.22,1.58-2.49,3.16-3.99,4.46-1.28,1.11-2.85,1.96-4.41,2.68-1.54,.71-3.22,1.12-4.84,1.66-.09,.02-.19,.05-.27,.03-3.24-1.03-6.89-1.28-8.93-4.59-.67-1.09-1.21-2.26-1.74-3.42-.43-.94,.12-1.48,.94-1.7,1.94-.53,3.88-1.1,5.85-1.42,.97-.15,2.03,.19,3.04,.38,1.85,.35,2.49,.13,2.7-1.03,.22-1.26-.94-2.67-2.32-2.82-.05-.01-.09-.01-.14-.01-2.6,.32-4.89-.96-7.33-1.46-1.51-.31-2.16-1.52-2.9-2.64-.13-.2-.03-.59,.02-.89,.1-.55,.26-1.1,.37-1.66,.05-.31-.07-.69,.07-.93,.68-1.17,1.42-2.29,2.14-3.43,.83-1.31,1.55-2.71,2.51-3.91,1.95-2.43,4.05-4.76,6.07-7.14,.37-.45,.65-.97,1.03-1.41,2.12-2.44,4.86-3.07,7.92-1.72,1.79,.78,3.58,1.59,5.25,2.58,2.28,1.35,3.03,3.77,3.85,6.09,.31,.88,.7,1.76,.82,2.68,.21,1.61,.25,3.24,.41,5.65-.2,.74-.56,2.2-1,3.62Z"/><path class="d" d="M475.18,393.95c-.1-.99,.03-2-.04-2.99-.09-1.47,.35-2.93-.91-4.32-.99-1.09-1.51-1.58-2.88-.87-.54,.28-1.1,.55-1.69,.71-1.8,.5-3.61,.91-5.32,1.78-1.58,.81-3.31,1.43-5.04,1.81-2.14,.48-4.26,.76-4.87,3.37-.03,.16-.21,.29-.34,.41-1.8,1.79-3.57,3.62-5.45,5.33-.5,.46-1.58,.93-2.01,.69-1.94-1.07-3.14-.27-4.46,1.1-.67,.7-.79,1.24-.8,2.17-.02,1.81,.68,3.65-1.43,5.29-1.91,1.5-3.12,3.97-4.48,6.11-1.22,1.92-2.25,3.97-3.32,6-.42,.8-.69,1.7-1.05,2.54-.44,.99-.9,1.98-1.4,3.06-.22-.25-.39-.43-.55-.62-.97-1.1-.29-2.32-.28-3.49,.03-3.45,.02-6.9,0-10.35,0-1.24,.21-2.55-.14-3.68-.67-2.15-1.79-4.16-2.5-6.3-.34-1.03-.66-.9-1.41-.57-1.22,.53-1.85,.12-2.41-1.08-.46-.99-1.1-1.91-1.76-2.79-.56-.76-1.43-1.33-1.82-2.15-.66-1.37-1.82-2.07-3.1-2.22-1.61-.19-3.28,.03-4.9,.21-.62,.07-1.17,.58-1.79,.78-1.34,.43-2.88,.52-4.03,1.24-2.54,1.58-4.95,3.39-7.31,5.24-1.95,1.53-3.14,3.72-4.57,5.73-2.04,2.85-4.18,5.62-5.49,8.88-.72,1.78-1.23,3.7-1.48,5.61-.44,3.29,1.05,6.15,2.48,8.98,.16,.31,.23,.71,.17,1.05-.31,1.93-.88,3.85-.98,5.79-.13,2.29,.12,4.6,.21,6.9,.02,.26,.05,.55,.18,.78,1.13,2.12,2.04,4.44,3.53,6.28,1.28,1.59,3.07,3.3,4.93,3.76,2.49,.61,5.33,.93,7.86-.64,2.12-1.31,4.49-2.26,6.42-3.8,2.07-1.66,3.82-3.75,5.6-5.75,1.5-1.7,2.86-3.52,4.26-5.3,.65-.83,1.22-1.73,1.84-2.59,.51-.72,1.03-1.45,1.57-2.16,.6-.8,1.59-1.52,1.75-2.4,.32-1.71,1.75-2.31,2.57-3.54,.99,.97,1.86,1.82,2.74,2.67,.28,.27,.54,.64,.89,.76,.38,.13,.94,.17,1.24-.03,.18-.12,.06-.76,.03-1.16-.02-.3-.2-.6-.17-.89,.13-1.19,.3-2.38,.48-3.56,.07-.47,.16-.96,.35-1.39,.77-1.71,1.58-3.4,2.39-5.09,.26-.55,.55-1.1,.89-1.61,.46-.7,.92-1.43,1.5-2.03,.99-1.02,2.06-1.98,3.13-2.92,.21-.18,.67-.33,.87-.23,.8,.45,1.99,.86,2.22,1.54,.32,.99,.58,2.27-.44,3.3-1.67,1.69-2.27,3.63-1.67,6.1,.39,1.56,.28,3.35-.08,4.94-.24,1.06-.25,1.91-.03,2.96,.32,1.56,.73,3.32,.32,4.77-.96,3.41-.58,6.83-.63,10.24,0,.43,.57,1.12,1.01,1.25,3.42,1.03,5.41-.61,5.17-4.15-.02-.27-.01-.54-.01-.82,0-3.18-.02-6.35,.01-9.53,.01-.89,.17-1.78,.24-2.68,.2-2.48,.38-4.96,.6-7.44,.05-.57,.27-1.12,.4-1.69,.22-.9,.48-1.8,.65-2.71,.34-1.84,.61-3.68,.96-5.52,.05-.29,.33-.53,.47-.81,.18-.35,.44-.73,.45-1.1,.03-1.84,.19-3.54,1.01-5.32,.96-2.1,1.07-4.58,1.83-6.8,.38-1.11,1.26-2.13,2.14-2.93,.6-.54,1.66-.52,2.43-.91,1.81-.92,3.54-2.01,5.37-2.89,2.27-1.09,3.28-.49,4.51,1.09,.49,.64,1.06,1.26,1.39,1.98,.52,1.11,1.45,1.36,2.34,.98,.91-.38,1.77-1.06,1.64-2.36Zm-84.24,26.34c-.22-2.89-.92-5.78,.99-8.41,1.57-2.17,2.9-4.52,4.55-6.62,.85-1.07,2.18-1.78,3.28-2.66,.12,.13,.24,.25,.36,.37-.53,.82-1.12,1.6-1.58,2.45-1.8,3.38-4.02,6.54-5.03,10.34-.43,1.63-1.55,3.08-2.57,4.53Zm32.74,1.18c-.48,4.08-1.97,7.86-3.85,11.44-1.56,2.97-3.3,5.89-5.35,8.54-1.51,1.95-3.44,3.83-5.96,4.4-2.14,.48-4.31,1.45-6.63,.37-1.31-.6-2.78-.84-4.17-1.28-1.18-.37-2.03-1.06-2.46-2.3-.6-1.7-1.41-3.32-2.01-5.01-.66-1.9,.15-2.99,1.99-3.72,2.43-.97,4.91-1.04,7.44-1.1,.89-.02,1.9-.5,2.61-1.08,1.28-1.01,.76-2.84-.89-3.18-1.32-.28-2.69-.27-4.04-.38,0,.04,0,.08,0,.12-.95,0-1.9,.02-2.86,0-2.71-.06-4.89-2.27-3.97-5.19,.37-1.19,.85-2.35,1.24-3.54,.47-1.44,.87-2.9,1.36-4.34,.28-.82,.64-1.62,1.03-2.39,.64-1.29,1.22-2.63,2.03-3.8,1.12-1.63,2.43-3.14,3.68-4.68,1.21-1.48,2.28-3.13,3.71-4.36,1.93-1.67,4.21-2.4,6.77-1.09,.9,.45,2,.49,2.92,.91,3.46,1.58,5.2,4.66,6.32,8.03,.84,2.53,1.39,5.21,1.65,7.86,.18,1.89-.32,3.85-.55,5.77Zm26.04-13.02c-.76,.61-1.64,.29-1.81-.65-.13-.7-.19-1.41-.28-2.12-.08-.1-.16-.19-.24-.29,.46-.46,.92-1.3,1.38-1.29,.78,0,1.91-.33,2.08,1.33,.14,1.37-.17,2.24-1.13,3.02Z"/><path class="d" d="M22.95,403.52c-.48,1.32-1.07,2.62-1.41,3.98-.49,1.95-.53,4.05-1.28,5.88-.96,2.33-1.38,4.7-1.73,7.14-.34,2.41-.87,4.81-1.5,7.17-.59,2.2-1.09,4.54-2.22,6.46-1.36,2.32-1.23,5.07-2.6,7.26-.81,1.3-.98,3.16-3.06,3.58-.91,.19-1.68,1.16-2.47,1.81-1.64,1.35-2.94,1.02-4.25-.67-1.7-2.19-1.49-4.66-1.59-7.15-.09-2.37-.52-4.74-.6-7.11-.11-3.44-.67-6.87,.48-10.31,.54-1.61,.36-3.48,.39-5.24,.05-2.72,0-5.45,.02-8.17,.04-4.69,.06-9.35,.72-14.04,.64-4.49,.54-9.1,.64-13.65,.08-3.71,.41-7.43-.48-11.11-.19-.79,.25-1.7,.18-2.54-.2-2.41-.48-4.81-.78-7.2-.54-4.33-.98-6.98,2.95-9.7,.81-.56,1.26-1.58,2.52-1.51,1.5,.09,3.19,1.62,3.2,3.15,.02,3.13-.02,6.27,.03,9.4,0,.64,.29,1.28,.4,1.92,.08,.49,.15,.99,.11,1.48-.15,1.78-.39,3.55-.53,5.32-.19,2.49,.17,4.97-.71,7.49-.65,1.84-.36,4.02-.42,6.05-.19,5.61,.09,11.27-.66,16.8-.62,4.57-.86,9.11-.94,13.69-.03,1.56,.02,3.12-.03,4.68-.02,.85-.25,1.7-.23,2.55,.07,4.8,.14,9.6,.33,14.39,.02,.59,.7,1.52,1.21,1.63,.5,.1,1.47-.51,1.73-1.05,1.11-2.35,2.26-4.73,1.97-7.48-.02-.21-.03-.54,.1-.65,1.32-1.16,1.03-3.01,1.86-4.31,.94-1.48,.77-3.05,1.1-4.6,.55-2.62,1.5-5.16,2.23-7.75,.47-1.68,.86-3.38,1.28-5.07,.36-1.46,.36-3.17,1.16-4.33,1.42-2.05,1.44-4.65,2.76-6.56,1.21-1.76,3.03-3.22,4.85-4.4,1.32-.86,2.24-.03,2.32,1.62,.01,.31-.02,.7,.15,.91,1.18,1.45,1.07,3.22,1.17,4.89,.19,3.16,.22,6.33,.27,9.5,.04,2.61-.16,5.23,.07,7.81,.35,4.07-.27,8.26,1.11,12.18,.8,2.28,1.96,4.49,3.3,6.5,1.33,2,3.06,3.73,4.67,5.54,.59,.67,.5,1.11-.1,1.71-1.84,1.85-3.99,3.16-6.6,2.49-1.35-.35-2.63-1.47-3.63-2.53-1.11-1.18-1.87-2.7-2.78-4.07-.07-.11-.19-.24-.18-.36,.13-1.71-.67-2.99-1.81-4.15-.14-.14-.19-.4-.22-.62-.29-1.99-.38-4.03-.86-5.97-1.73-6.88-.35-13.85-.81-20.76-.04-.61-.12-1.22-.18-1.83l-.61-.13Z"/><path class="d" d="M358.05,464.4c-.75-.4-1.63-.65-2.23-1.22-2.77-2.63-5.52-5.29-8.14-8.06-.68-.72-1.15-1.87-1.26-2.87-.4-3.94-.57-7.89-.91-11.84-.18-2.09-.66-4.15-.78-6.24-.14-2.49-.04-4.99-.04-7.49,0-3.63,0-7.26,0-10.9,0-2.26,0-4.53,0-6.83-1.47-.06-2.09,.47-2.45,1.46-.24,.66-.67,1.26-.92,1.92-.3,.81-.51,1.66-.75,2.5-.05,.17,.06,.45-.03,.53-1.62,1.33-.83,3.46-1.74,5.1-.72,1.3-.59,3.05-.98,4.56-.35,1.35-.83,2.69-1.39,3.97-.72,1.65-1.62,3.23-2.38,4.87-.59,1.27-1.1,2.58-1.63,3.88-.46,1.13-.84,2.3-1.38,3.38-.67,1.33-1.47,2.6-2.21,3.9-.17,.3-.52,.63-.49,.9,.26,1.96-1.01,3.36-1.69,4.99-.8,1.88-1.46,3.83-2.16,5.76-.45,1.25-1.36,2.03-2.49,2.66-.87,.49-1.61,1.43-2.52,1.6-1.11,.22-2.34-.11-3.5-.32-.2-.04-.41-.66-.42-1.01-.11-4.07-.15-8.15-.29-12.23-.08-2.42-.34-4.84-.43-7.26-.04-1.08,.4-2.24,.14-3.25-1-3.92-.26-7.74,.21-11.62,.21-1.77,.58-3.64-.23-5.43-.18-.39-.21-.88-.21-1.32,.08-6.52,.14-13.04,.31-19.56,.03-1.27,.33-2.6,.82-3.77,.24-.58,1.15-.95,1.83-1.27,.67-.31,1.41-.49,2.15-.64,.96-.19,1.94-.4,2.9-.39,.31,0,.86,.7,.87,1.09,.08,2.36,.2,4.74-.02,7.08-.15,1.55-.86,3.05-1.28,4.58-.23,.85-.46,1.71-.55,2.58-.38,3.53-.71,7.06-1.03,10.59-.07,.81-.06,1.63-.06,2.45,0,4.45-.03,8.9,0,13.35,.03,3.09,.09,6.19,.29,9.27,.07,1.01,.63,1.99,1.05,3.22,1.64-1.29,2.93-2.37,3.65-4.11,1.09-2.63,2.44-5.16,3.56-7.77,.79-1.84,1.4-3.75,2.1-5.62,.17-.45,.38-.9,.62-1.32,1.36-2.47,2.58-4.98,3.22-7.75,.14-.62,.56-1.17,.79-1.77,.6-1.53,1.36-3.04,1.69-4.63,.28-1.39,1.56-2.31,1.38-3.93-.11-.97,.44-2.06,.86-3.03,1.04-2.45,1.37-5.05,1.91-7.63,.44-2.11,1.28-4.25,3.23-5.77,1.22-.96,2.39-1.79,3.9-2.15,1.15-.28,1.97,.25,1.95,1.45-.06,4.36-.21,8.72-.24,13.09-.02,2.07,.25,4.15,.22,6.22-.02,1.33-.35,2.66-.58,3.99-.22,1.29-.5,2.53,.33,3.76,.27,.4,.24,1.03,.28,1.55,.37,5.02,.7,10.05,1.12,15.07,.18,2.19,.16,4.5,.89,6.51,1.02,2.78,.33,5.63,1.01,8.36,.24,.94,.59,1.86,.91,2.78,.6,1.71,1.17,3.42,1.83,5.1,.29,.74,.82,1.37,1.11,2.11,.31,.8,.45,1.66,.67,2.5l-.41,.32Z"/><path class="d" d="M367.74,393.7c-.22-1.05-.49-2.09-.65-3.14-.23-1.5-.34-3.02-.57-4.52-.22-1.36,.58-2.72,1.69-3.52,.56-.4,.98-1.38,.98-2.11,.02-1.96,.14-3.85,.51-5.81,.46-2.47,.31-5.06,.36-7.61,.04-2.16-1.57-4.07-3.73-4.35-1.3-.17-1.65-.77-1.22-1.9,1.15-3,1.2-6.03,.36-9.12-.08-.3,.16-.79,.41-1.05,2.25-2.29,4.51-4.55,6.8-6.79,1.05-1.03,2.94-.6,3.44,.82,.56,1.61,1.38,3.17,1,4.99-.23,1.08-.46,2.16-.57,3.26-.15,1.52-.53,3.13-.2,4.57,1.05,4.57,.7,9.17,.75,13.76,.02,2.01-.22,3.97-.62,5.98-.54,2.65-.11,5.5-.09,8.26,.02,3.07,.06,6.15,.07,9.22,0,.53-.17,1.07-.17,1.6-.02,4.77,0,9.53-.02,14.3,0,.79-.18,1.57-.3,2.52,.55,.6,1.09,1.17,2.45,.85,2.75-.65,4.89,.59,6.36,3.33-.47,.19-.95,.53-1.45,.56-2.17,.13-4.34,.2-6.51,.23-.85,.01-1.08,.36-1.47,1.15-1.47,2.97-.1,5.85,0,8.75,.05,1.32,.68,2.65,.62,3.95-.08,1.62-.64,3.21-.91,4.83-.28,1.72-.57,3.45-.65,5.18-.11,2.31,.09,4.64-.06,6.94-.16,2.41,.6,4.56,1.41,6.74,.54,1.47,.99,2.98,.06,4.5-.36,.58-.58,.95-1.31,.25-.34-.33-1.23-.28-1.81-.16-1.34,.28-2.63,.81-3.98,1.06-1,.19-1.69-.36-1.63-1.45,.13-2.5,.06-5,.81-7.46,.29-.93-.09-2.08-.23-3.12-.07-.52-.4-1.02-.42-1.54-.07-2.45-1.5-4.71-1.03-7.24,.22-1.17,.38-2.35,.55-3.53,.19-1.38,.24-2.78,.55-4.13,.83-3.68-.31-7.28-.31-10.93,0-.56-.55-1.33-1.06-1.63-1.17-.67-2.25-1.53-3.82-1.35-1.59,.18-3.2,.1-4.71-.85-.63-.4-1.68-.13-2.54-.17-1.33-.05-2.32-1.13-2.13-2.34,.19-1.22,1.46-1.93,2.68-1.9,3.48,.1,6.96,.03,10.44,.03,.32,0,.63-.05,.95-.05,.89,0,1.38-.41,1.32-1.32-.25-3.76-.53-7.52-.78-11.29-.11-1.66-.28-3.34-.22-5,.03-.8,.54-1.58,.83-2.37l-.23,.1Z"/><path class="d" d="M172.96,453.42c-.87,0-1.47,.12-1.99-.02-1.07-.29-2.17-.59-3.12-1.14-1.14-.67-2.25-1.48-3.16-2.43-1.4-1.45-2.36-3.56-4.02-4.47-1.62-.89-1.96-2.66-3.45-3.49-.41-.23-.45-1.3-.48-1.99-.07-1.56-.02-3.13-.03-4.69,0-25.34-.02-50.68,.02-76.01,0-3.05,.31-6.11,.54-9.16,.12-1.5,1.69-3.03,3.16-3.12,.43-.02,.96,.25,1.31,.54,1.14,.98,1.67,2.31,1.72,3.79,.06,1.56-.17,3.16,.9,4.53,.19,.24,.17,.68,.17,1.03,.02,1.18,.1,2.37-.01,3.54-.2,2.08,.26,3.64,2.37,4.62,1.47,.68,1.67,2.51,.84,3.93-.26,.44-.4,1-.43,1.51-.06,1.27,.04,2.55-.04,3.81-.05,.73-.34,1.45-.54,2.16-.05,.17-.24,.32-.23,.47,.12,2.32-.55,4.55-.76,6.8-.39,4.27-.21,8.6-.36,12.9-.09,2.47-.42,4.93-.51,7.4-.05,1.61,.21,3.24,.21,4.86,0,2.1-.26,4.21-.19,6.31,.19,5.04,.28,10.1,.88,15.1,.24,2,.38,3.96,.46,5.96,.1,2.76,.05,5.58,1.1,8.22,.26,.64,.75,1.19,1.12,1.79,1.42,2.28,2.84,4.57,4.51,7.26Z"/><path class="d" d="M292.44,402.72c-.65-2.27-1.07-4.55-.91-6.92,.09-1.35-.02-2.61-.81-3.82-1.18-1.83-4.44-4.38-6.87-4.06-2.66,.34-5.08,1.29-7.23,2.85-1.54,1.12-3,2.35-4.45,3.58-1.05,.88-2.02,1.87-3.07,2.74-.61,.51-1.34,.88-2.01,1.31-.11-.14-.22-.27-.32-.4-.01-.23-.09-.47-.02-.67,.75-2.1,.12-4.07-.66-5.99-.11-.26-.79-.5-1.13-.42-1.94,.44-2.11,2.55-3.3,3.74-.8,.8-1.21,2.04-1.67,3.14-.58,1.35-1.65,2.63-.88,4.28,.1,.23,.11,.58,.01,.8-.5,1.17,.04,2.16,.35,3.25,.31,1.1,.91,2.27,.02,3.43-.87,1.13-1.74,2.25-2.49,3.45-.77,1.22-1.16,2.75-2.12,3.76-1.58,1.64-1.56,3.84-2.43,5.72-.42,.89-.24,2.17-.02,3.21,.18,.87,.81,1.62,1.95,1.52,1.17-.11,2.33-.22,3.5-.24,.32,0,.88,.27,.93,.5,.36,1.7,.78,3.41,.85,5.12,.12,2.78-.14,5.51-.63,8.3-.55,3.09,.26,6.34,.52,9.51,.54,6.52,.24,13.11,.31,19.67,0,.32,.23,.77,.49,.92,.86,.51,1.77,.95,2.69,1.33,.63,.25,1.32,.35,1.98,.52,.11-.55,.32-1.09,.32-1.64,.02-10.26,.04-20.52,0-30.78,0-1.42,.59-2.35,1.83-2.83,1.1-.44,2.27-.73,3.42-1.04,.64-.17,1.51,0,1.92-.37,2.96-2.62,5.92-5.25,8.7-8.06,1.46-1.48,2.51-3.36,3.83-4.98,2-2.45,3.16-5.28,4.13-8.23,.27-.8,.64-1.57,.95-2.36,.69-1.75,1.65-3.41,1.43-5.41-.13-1.21-.11-2.42,.78-3.45,.18-.21,.2-.68,.11-.98Zm-32.82,19.39c-.06,.75-1.14,1.84-1.93,2.02-1.18,.27-2.55-1.38-2.36-2.58,.46-2.84,1.7-5.37,3.34-7.7,.1-.14,.27-.25,.42-.32,.16-.08,.34-.1,.62-.18,0,2.96,.14,5.87-.09,8.76Zm26.75-12.57c-.55,1.87-.69,3.87-1.27,5.73-.44,1.42-1.2,2.77-1.97,4.06-1.5,2.54-3.1,5.03-4.67,7.54-.1,.15-.22,.3-.36,.39-3.06,2.02-5.5,4.95-9.24,5.95-2.26,.6-3.54-.16-3.53-2.43v-2.84c.16-2.81,.38-6.01,.52-9.21,.21-4.99,.38-9.99,.54-14.99,.05-1.81,1.46-2.79,2.4-4.02,1.97-2.57,4.62-4.22,7.64-5.37,2.69-1.03,5.15-.19,7.33,1.12,1.04,.62,1.66,2.19,2.13,3.46,1.28,3.46,1.54,6.99,.48,10.61Z"/><path class="d" d="M149.33,423.3c-.9,.74-1.65,1.66-2.45,2.53-.79,.85-1.48,1.82-2.35,2.58-2.03,1.77-4.11,3.49-6.23,5.15-1.94,1.52-3.94,2.99-5.98,4.37-.97,.65-2.09,1.08-3.17,1.54-.97,.42-2,1.06-2.99,1.03-2.18-.07-4.36,.52-6.55-.85-2.4-1.48-4.17-3.29-4.85-5.91-.9-3.51,.07-6.92,1.3-10.21,.47-1.25,1.18-2.41,1.59-3.67,.6-1.8,1.52-2.46,3.33-1.9,2.2,.67,4.22-.03,6.18-.82,1.17-.47,2.11-1.71,3.29-1.93,2.4-.46,3.87-2.35,5.91-3.33,.82-.4,1.73-.84,2.3-1.51,2.28-2.7,5.09-4.96,6.34-8.5,.78-2.22,1.36-4.41,1.29-6.74-.06-1.94-2.48-4.09-4.39-3.92-.67,.06-1.3,.53-1.96,.78-1.12,.42-2.28,.77-3.38,1.23-1.18,.49-2.26,1.37-3.47,1.57-1.79,.31-3,1.31-4.23,2.45-1.09,1.01-2.24,1.96-3.41,2.88-3.35,2.62-6.64,5.3-8.78,9.08-.39,.7-.72,1.44-1.18,2.1-.97,1.41-.89,2.11-.03,3.68,.36,.64,.5,1.81,.15,2.37-1.77,2.83-3.44,5.66-3.62,9.12,0,.2-.2,.38-.28,.59-.51,1.33-1.42,2.66-1.42,4,0,2.08-.53,4.08-.3,6.24,.28,2.62,1.72,4.44,3,6.4,.46,.71,1.65,.9,2.41,1.45,1.91,1.36,3.94,.83,5.96,.47,1.17-.21,2.34-.47,3.5-.75,1.49-.37,3.11-.51,4.42-1.22,2.44-1.32,4.72-2.97,7.02-4.54,.57-.39,.93-1.09,1.46-1.55,1.56-1.35,3.21-2.6,4.74-3.98,1.44-1.31,2.64-2.92,4.18-4.09,2.24-1.71,3.16-4.22,4.41-6.76-.6,.18-1.32,.2-1.76,.57Zm-26.18-11.79c2.88-3.52,5.7-7.08,8.68-10.52,.88-1.02,2.14-1.76,3.31-2.5,1.3-.82,2.85-.69,3.83,.1,1.4,1.13,1.23,2.63,.91,4.1-.58,2.69-2.19,4.82-4.45,6.21-2.9,1.78-5.95,3.35-9.51,3.54-.82,.05-1.61,.65-2.42,.98-.58,.23-1.17,.43-1.76,.65-.08-.16-.16-.31-.24-.46,.55-.7,1.09-1.41,1.65-2.1Z"/><path class="d" d="M206.34,442.28c-.47-.85-1.2-1.63-1.42-2.54-.69-2.89-1.02-5.88-1.84-8.73-.5-1.74-.67-3.43-.66-5.19,0-3.6,.14-7.21-.05-10.8-.12-2.31,.19-4.51,.58-6.75,.29-1.67,.37-3.38,.57-5.06,.19-1.6,.01-3.16-.14-4.76-.28-2.94,.05-5.94,.14-8.91,.01-.27,.13-.53,.17-.79,.31-1.93,.65-3.87,.88-5.81,.03-.28-.42-.88-.67-.9-2.3-.15-4.38,1.9-4.42,4.21-.02,1.44-.08,2.88-.21,4.32-.26,2.76-.67,5.52-.85,8.29-.19,3.02-.16,6.06-.31,9.08-.08,1.61-.31,3.21-.55,4.8-.11,.76-.43,1.51-1.43,1.39-1.66-.2-2.81,.65-3.96,1.67-.41,.37-1.24,.81-1.54,.64-.44-.26-.58-1.04-.95-1.8-.22,.09-.76,.14-1.06,.44-.71,.71-1.32,1.53-1.94,2.33-1.55,2.01-2.89,4.23-4.66,6.02-2.12,2.12-3.09,5.14-5.65,6.86-.1,.07-.12,.24-.2,.35-.7,.88-1.38,1.78-2.11,2.63-1.45,1.67-1.74,4.12-.27,5.01,1.35,.81,1.42,1.97,1.41,3.13-.01,2.05,.63,3.84,1.66,5.56,1.25,2.12,3.44,2.9,5.51,1.71,1.97-1.13,3.95-2.32,5.65-3.79,2.01-1.74,3.79-3.75,5.54-5.76,1.03-1.2,1.77-2.65,2.68-3.96,.7-1,1.62-.92,2.15,.15,.93,1.87,1.87,3.73,2.78,5.61,.97,1.98,2.31,3.34,4.72,3.13,.33-.03,.68,.11,1.47,.27-.44-.89-.71-1.48-1.02-2.05Zm-27.25-9.21c.38-1.4,.94-2.75,1.5-4.1,.29-.68,.72-1.31,1.11-1.94,2-3.27,4.8-5.74,8.09-7.58,1.32-.74,2.93-1.1,4.45-1.31,1.3-.18,2.01,.98,1.73,2.29-.69,3.25-2.99,5.4-5.34,7.39-2.64,2.24-5.5,4.22-8.29,6.27-.48,.35-1.09,.51-1.64,.76-1.25-.09-1.92-.63-1.61-1.78Zm18.2-3.67c-.87,1.77-1.62,3.59-2.55,5.32-.45,.86-1.25,1.53-1.78,2.36-1.38,2.14-2.75,4.26-4.78,5.9-1.48,1.2-2.94,2.18-4.95,1.95-1.25-.14-2.51-.14-3.74-.31-.31-.04-.67-.42-.82-.73-1.02-2.09-.51-4.47,1.35-5.87,2.03-1.53,4.2-2.88,6.23-4.42,.98-.75,1.73-1.78,2.65-2.62,1.82-1.65,3.72-3.23,5.52-4.9,.76-.7,1.36-1.55,2.11-2.41,1.11,1.14,1.44,4.33,.76,5.73Z"/><path class="d" d="M301,420.28h1.74v-9.56c0-1.13,.07-2.27-.02-3.4-.08-1.05,.42-1.4,1.33-1.35,.89,.05,1.77,.19,2.8,.31-.12,1.76-.2,3.46-.35,5.15-.23,2.5-.54,4.99-.77,7.49-.3,3.27-.49,6.54-.89,9.8-.08,.67-.91,1.26-1.39,1.88l-.43-.19c-.13-2.54-.26-5.08-.4-7.7-.91-.15-1.79-.24-1.8,1.05-.03,4.45-.01,8.89-.01,13.3,1.82,1.29,2.56-.48,3.91-1.44,.27,.98,.63,1.79,.69,2.61,.1,1.58,.4,3.29-.04,4.74-1.15,3.79,.3,7.79-1.21,11.53-.35,.86-.14,1.98-.05,2.97,.15,1.73-.56,2.98-2.28,3.28-1.42,.25-2.89,.28-4.33,.2-.36-.02-.86-.8-.97-1.3-1.66-7.45-.6-15.01-.85-22.52-.13-3.89-.02-7.78-.02-11.68,0-4.1,.01-8.2,0-12.3,0-.88,.03-1.62,1.15-1.79,.31-.05,.59-.4,.83-.67,1.11-1.21,2.25-.11,3.31,.08,.34,.06,.68,1.3,.65,1.98-.11,2.5-.38,4.99-.6,7.54Z"/><path class="d" d="M244.24,380.86c.28,1.09,.54,2.18,.83,3.27,.8,3.05,1.72,6.09,2.38,9.17,.51,2.34,.31,4.72-.37,7.05-.36,1.23-.72,2.52-.73,3.78-.04,3.07,.18,6.14,.18,9.21,0,3.07-.13,6.14-.16,9.22,0,.89,.2,1.78,.19,2.67-.07,4.89-.21,9.77-.22,14.66,0,.73,.51,1.45,.79,2.18,.18,.48,.56,.98,.5,1.43-.21,1.74,.39,3,1.73,4.1,1.18,.97,1.1,1.06,.45,2.58-.53-.35-1.08-.61-1.52-1-1.8-1.6-3.69-3.13-5.32-4.89-1.89-2.05-1.34-4.61-1-7.07,.06-.44,.28-.87,.29-1.3,.11-4.66,.26-9.32,.27-13.98,0-3.66-.25-7.32-.23-10.98,.02-6.43,.2-12.85,.22-19.28,0-1.32-.52-2.62-.64-3.95-.14-1.54-.33-3.14-.04-4.62,.17-.84,1.26-1.5,1.94-2.24h.47Z"/><path class="d" d="M236.97,429.44l-.63-.24c-1.89,2.02-3.7,4.12-5.7,6.03-2.2,2.1-4.41,4.27-6.95,5.91-1.94,1.26-4.42,1.61-6.84,1.33-1.86-.22-3.81-1.95-4.08-3.83-.22-1.55-.11-3.14-.28-4.71-.25-2.21,.65-4.05,1.77-5.79,.71-1.11,1.71-1.96,3.26-1.79,.74,.08,1.53-.03,2.26-.22,4.35-1.14,7.73-3.76,10.39-7.27,1.23-1.62,2.18-3.47,3.11-5.28,.96-1.88,.14-3.59-1.83-4.28-2.22-.78-4.25,.14-6.03,1.08-2.96,1.55-5.65,3.57-8.09,5.89-2.34,2.24-4.4,4.6-4.9,7.94-.1,.64,.09,1.33-.07,1.94-.48,1.81-1.05,3.59-1.62,5.37-.93,2.92-2.44,5.76-1.17,8.96,.01,.04-.01,.1,.01,.14,.74,1.88,1.69,3.57,3.94,3.98,4,.71,7.73,.05,11.13-2.21,1.32-.87,2.66-1.73,3.82-2.79,1.59-1.47,3.03-3.12,4.52-4.7,1.37-1.44,2.75-2.89,4.06-4.38,.17-.19-.04-.71-.08-1.08Zm-18.61-7.22c.63-1.15,1.3-2.3,2.1-3.35,1.15-1.49,2.4-2.9,3.66-4.31,.71-.79,1.48-1.53,2.29-2.22,.74-.63,2.52,.27,3.04,1.49,.89,2.06,.08,4.77-1.77,6.08-1.14,.79-2.16,1.84-3.39,2.4-1.51,.69-3.2,1-4.81,1.47-.99-.12-1.55-.79-1.12-1.56Zm-2.68-2.09c.44-.64,1.03-1.2,1.56-1.78,.16,.06,.32,.13,.49,.2-.11,.46-.1,1.02-.36,1.37-.36,.47-.93,.78-1.41,1.15-.11-.32-.4-.77-.28-.94Z"/><path class="d" d="M307.85,397.04c.02,2.55-3.53,5.72-6.31,5.89-3.6,.22-6.36-3.28-6.37-6.12,0-4.55,2.12-6.11,6.41-6.61,2.34-.27,6.5,2.82,6.27,6.84Z"/></g></g></svg>