<?xml version="1.0" encoding="UTF-8"?><svg xmlns="http://www.w3.org/2000/svg" viewBox="0 0 415.92 297.09"><defs><style>.d{fill:#8ed3d5;}</style></defs><g id="a"/><g id="b"><g id="c"><path class="d" d="M89.13,118.83c-10.47,0-20.38,2.14-29.71,5.48v-5.48c0-32.77,26.64-59.42,59.42-59.42,16.4,0,29.71-13.3,29.71-29.71S135.27,0,118.83,0C53.31,0,0,53.29,0,118.83v89.13c0,49.22,39.9,89.13,89.13,89.13s89.13-39.9,89.13-89.13-39.92-89.13-89.13-89.13Zm237.67,0c-10.47,0-20.38,2.14-29.71,5.46v-5.46c0-32.77,26.64-59.42,59.42-59.42,16.4,0,29.71-13.3,29.71-29.71S372.91,0,356.5,0c-65.53,0-118.83,53.31-118.83,118.83v89.13c0,49.22,39.9,89.13,89.13,89.13s89.13-39.9,89.13-89.13-39.92-89.13-89.13-89.13Z"/></g></g></svg>