<?xml version="1.0" encoding="UTF-8"?><svg xmlns="http://www.w3.org/2000/svg" viewBox="0 0 734.1 265.83"><defs><style>.d{fill:#658c81;}</style></defs><g id="a"/><g id="b"><g id="c"><g><g><path class="d" d="M157.08,0c1.1,58.38-67.15,50.46-125.9,76.96C-12.6,96.71,2.53,147.96,2.53,147.96c.23-58.05,54.34-27.79,124.58-53.83C197.34,68.1,157.08,0,157.08,0h0Z"/><path class="d" d="M82.24,128.35c-32.17-.36-67.29-3.98-70.78,30.15-5.21,50.88,45.8,107.33,45.8,107.33,0,0-47.39-87.05-19.85-109.22,10.72-8.63,47.26,1,65.57,.5,39.35-1.06,39.35-46.7,39.35-46.7,0,0-11.66,18.49-60.08,17.94h0Z"/></g><g><g><path class="d" d="M209.08,178.26c0-12.26,0-14.46-.16-16.98-.16-2.67-.79-3.93-3.38-4.48-.63-.16-1.96-.24-2.67-.24-.31,0-.63-.16-.63-.47,0-.47,.39-.63,1.26-.63,3.54,0,8.49,.24,8.88,.24,.86,0,6.84-.24,9.27-.24,4.95,0,10.22,.47,14.38,3.46,1.96,1.41,5.42,5.27,5.42,10.69,0,5.82-2.44,11.63-9.51,18.16,6.45,8.25,11.79,15.25,16.35,20.12,4.24,4.48,7.62,5.34,9.59,5.66,1.49,.24,2.59,.24,3.07,.24,.39,0,.71,.24,.71,.47,0,.47-.47,.63-1.89,.63h-5.58c-4.4,0-6.37-.39-8.41-1.49-3.38-1.81-6.13-5.66-10.61-11.55-3.3-4.32-7-9.59-8.57-11.63-.31-.31-.55-.47-1.02-.47l-9.67-.16c-.39,0-.55,.24-.55,.63v1.89c0,7.55,0,13.75,.39,17.06,.24,2.28,.71,4.01,3.07,4.32,1.1,.16,2.83,.31,3.54,.31,.47,0,.63,.24,.63,.47,0,.39-.39,.63-1.26,.63-4.32,0-9.27-.24-9.67-.24-.08,0-5.03,.24-7.39,.24-.86,0-1.26-.16-1.26-.63,0-.24,.16-.47,.63-.47,.71,0,1.65-.16,2.36-.31,1.57-.31,1.97-2.04,2.28-4.32,.39-3.3,.39-9.51,.39-17.06v-13.83Zm6.29,6.84c0,.39,.16,.71,.55,.94,1.18,.71,4.79,1.26,8.25,1.26,1.89,0,4.09-.24,5.89-1.49,2.75-1.89,4.79-6.13,4.79-12.1,0-9.83-5.19-15.72-13.6-15.72-2.36,0-4.48,.24-5.27,.47-.39,.16-.63,.47-.63,.94v25.7Z"/><path class="d" d="M262.92,183.68c0-10.3,0-12.18-.16-14.31-.16-2.2-.71-3.3-2.99-3.77-.47-.08-1.26-.16-1.89-.16-.55,0-1.02-.24-1.02-.47,0-.47,.39-.63,1.18-.63,1.57,0,3.69,.16,8.1,.24,.39,0,14.38,0,15.96-.08,1.57-.08,2.44-.16,3.07-.39,.47-.16,.55-.24,.86-.24,.16,0,.31,.16,.31,.55,0,.47-.47,1.57-.63,3.54-.08,1.34-.16,2.59-.24,4.09,0,.71-.16,1.18-.55,1.18s-.55-.31-.55-.86c-.08-1.18-.31-1.96-.55-2.51-.47-1.57-1.18-2.12-5.11-2.36-1.02-.08-8.8-.16-8.96-.16-.24,0-.39,.16-.39,.63v17.84c0,.47,.08,.79,.47,.79,.94,0,8.96-.08,10.61-.24,1.81-.08,2.99-.31,3.62-1.18,.31-.47,.55-.63,.86-.63,.16,0,.31,.08,.31,.47s-.31,1.89-.55,4.17c-.24,2.2-.24,3.77-.31,4.79-.08,.63-.24,.86-.55,.86-.39,0-.47-.47-.47-1.02,0-.47-.08-1.26-.24-1.89-.31-1.02-.79-2.12-3.77-2.36-1.81-.16-8.17-.31-9.43-.31-.47,0-.55,.24-.55,.55v5.74c0,2.44-.08,9.35,0,10.69,.16,2.91,.55,4.4,2.2,5.11,1.18,.55,3.07,.71,5.74,.71,1.49,0,4.01,.08,5.97-.47,2.36-.71,2.91-2.28,3.54-5.19,.16-.79,.39-1.1,.71-1.1,.47,0,.47,.71,.47,1.18,0,.55-.63,5.5-.86,6.84-.31,1.57-.86,1.73-3.46,1.73-5.19,0-7.39-.16-10.14-.16-2.75-.08-6.37-.24-9.27-.24-1.81,0-3.3,.24-5.19,.24-.71,0-1.1-.16-1.1-.55,0-.31,.31-.55,.71-.55,.47,0,1.02-.08,1.57-.24,1.41-.31,2.36-1.34,2.52-6.21,.08-2.67,.16-5.9,.16-11.87v-11.79Z"/><path class="d" d="M302.06,183.68c0-10.38,0-12.26-.16-14.38s-.63-3.3-2.28-3.62c-.79-.16-1.34-.16-1.81-.24-.55-.08-.86-.24-.86-.55,0-.39,.31-.55,1.18-.55,2.44,0,6.92,.24,7.15,.24,.31,0,4.87-.24,7.07-.24,.79,0,1.18,.16,1.18,.55,0,.31-.24,.47-.86,.55-.47,.08-.86,.08-1.41,.16-2.28,.31-2.52,1.49-2.67,3.77-.16,2.12-.08,3.93-.08,14.31v11.79c0,6.05-.08,11.55,.31,14.38,.31,2.28,.63,3.14,2.67,3.62,1.02,.24,2.67,.31,2.99,.31,.71,.08,.86,.24,.86,.55s-.31,.55-1.1,.55c-4.01,0-8.57-.24-8.96-.24-.24,0-4.87,.24-7.07,.24-.71,0-1.26-.16-1.26-.55,0-.31,.31-.55,1.02-.55,.39,0,1.26-.08,1.89-.24,1.34-.31,1.57-1.89,1.81-3.77,.39-2.83,.39-8.41,.39-14.3v-11.79Z"/><path class="d" d="M328.94,166.63c0-2.44,.24-3.22,.86-3.22,.55,0,1.89,1.57,2.44,2.12,.71,.79,11.63,11.95,22.64,23.19,6.13,5.97,13.99,14.07,16.03,15.96l-.86-32.7c-.08-4.24-.55-5.66-2.67-6.21-1.34-.24-2.52-.31-3.07-.31-.79,0-.94-.31-.94-.63,0-.39,.63-.47,1.41-.47,3.38,0,6.68,.24,7.39,.24,.79,0,3.22-.24,6.29-.24,.86,0,1.1,.08,1.1,.47,0,.31-.24,.55-.71,.63s-1.1,.08-1.96,.24c-1.81,.39-2.36,1.18-2.36,5.9l-.16,39.46c0,3.93-.16,4.32-.71,4.32s-1.34-.55-5.19-4.17c-.31-.16-11.24-11-18.08-17.68-8.17-8.49-16.03-16.66-18-18.71l1.02,30.73c.16,5.42,.63,7.47,2.59,7.94,1.26,.31,2.59,.31,3.22,.31s.94,.24,.94,.55c0,.39-.39,.55-1.26,.55-4.24,0-7.07-.24-7.62-.24s-3.46,.24-6.84,.24c-.71,0-1.18-.08-1.18-.55,0-.31,.31-.55,1.1-.55,.55,0,1.41,0,2.44-.31,1.73-.55,2.12-2.67,2.12-8.41,0-37.49,.08-25.39,0-38.43Z"/><path class="d" d="M398.66,195.71c-.39,0-.63,.24-.79,.63l-3.46,9.83c-.79,2.2-1.34,4.32-1.34,5.58,0,1.41,.86,2.04,2.59,2.04h.55c.71,0,.94,.24,.94,.55,0,.39-.63,.55-1.18,.55-1.73,0-5.34-.24-6.21-.24-.79,0-4.24,.24-7.55,.24-.86,0-1.26-.16-1.26-.55,0-.31,.31-.55,.94-.55,.39,0,1.1,0,1.57-.08,3.38-.31,4.72-2.91,6.05-6.21l15.72-41.42c.86-2.28,1.1-2.67,1.65-2.67,.39,0,.71,.31,1.57,2.52,1.1,2.59,11.79,30.02,15.96,39.85,2.59,6.21,4.87,7.23,5.97,7.62,1.02,.39,2.12,.39,2.67,.39s.94,.16,.94,.55-.31,.55-1.18,.55c-.79,0-6.68,0-11.95-.16-1.49-.08-1.97-.16-1.97-.55,0-.24,.24-.47,.55-.55,.31-.16,.79-.55,.31-1.73l-6.21-15.8c-.16-.24-.31-.39-.63-.39h-14.31Zm13.36-2.75c.31,0,.31-.24,.24-.47l-6.21-17.37c-.39-1.1-.47-1.1-.86,0l-5.9,17.37c-.16,.31,0,.47,.16,.47h12.58Z"/><path class="d" d="M464.76,191.7c0-28.37,.16-18.16,.08-33.4,0-3.07,.24-3.93,.86-3.93s1.97,1.73,2.75,2.52c1.18,1.34,12.89,13.99,24.99,26.96,7.78,8.33,16.35,17.92,18.86,20.51l-.86-39.93c-.08-5.11-.63-6.84-3.07-7.47-1.41-.31-2.67-.39-3.38-.39-.86,0-1.1-.24-1.1-.55,0-.47,.63-.55,1.57-.55,3.54,0,7.31,.24,8.17,.24s3.46-.24,6.68-.24c.86,0,1.41,.08,1.41,.55,0,.31-.31,.47-.86,.55-.63,.08-1.1,.16-2.04,.31-2.2,.47-2.75,1.65-2.75,7.07l-.16,45.9c0,5.19-.16,5.58-.71,5.58-.63,0-1.57-.86-5.74-5.03-.86-.79-12.18-12.34-20.51-21.3-9.12-9.82-18-19.73-20.51-22.56l1.02,37.65c.16,6.45,.94,8.49,3.07,9.12,1.49,.39,3.22,.47,3.93,.47,.39,0,.63,.16,.63,.47,0,.47-.47,.63-1.41,.63-4.48,0-7.62-.24-8.33-.24s-4.01,.24-7.55,.24c-.79,0-1.26-.08-1.26-.63,0-.31,.24-.47,.63-.47,.63,0,2.04-.08,3.22-.47,1.97-.55,2.36-2.83,2.36-9.98v-11.63Z"/><path class="d" d="M538.17,183.68c0-10.38,0-12.26-.16-14.38-.16-2.12-.63-3.3-2.28-3.62-.79-.16-1.34-.16-1.81-.24-.55-.08-.86-.24-.86-.55,0-.39,.31-.55,1.18-.55,2.44,0,6.92,.24,7.15,.24,.31,0,4.87-.24,7.07-.24,.79,0,1.18,.16,1.18,.55,0,.31-.24,.47-.86,.55-.47,.08-.86,.08-1.41,.16-2.28,.31-2.51,1.49-2.67,3.77-.16,2.12-.08,3.93-.08,14.31v11.79c0,6.05-.08,11.55,.31,14.38,.31,2.28,.63,3.14,2.67,3.62,1.02,.24,2.67,.31,2.99,.31,.71,.08,.86,.24,.86,.55s-.31,.55-1.1,.55c-4.01,0-8.57-.24-8.96-.24-.24,0-4.87,.24-7.07,.24-.71,0-1.26-.16-1.26-.55,0-.31,.31-.55,1.02-.55,.39,0,1.26-.08,1.89-.24,1.34-.31,1.57-1.89,1.81-3.77,.39-2.83,.39-8.41,.39-14.3v-11.79Z"/><path class="d" d="M573.62,195.63c0,9.04,.31,13.6,1.65,14.86,1.26,1.1,2.83,1.57,8.25,1.57,3.46,0,6.6,0,8.33-2.2,.79-1.18,1.34-2.75,1.49-3.93,.08-.63,.24-.94,.63-.94,.31,0,.47,.24,.47,1.02s-.47,5.27-.94,7.07c-.47,1.57-.39,1.97-4.17,1.97-5.34,0-11.24-.39-19.1-.39-2.59,0-4.17,.24-6.92,.24-.79,0-1.26-.16-1.26-.63,0-.24,.24-.47,.86-.47s1.26,0,1.89-.16c1.34-.24,1.81-1.81,2.04-3.69,.47-2.99,.31-8.41,.31-14.46v-11.79c0-10.38,0-12.1-.16-14.23-.16-2.2-.47-3.62-3.14-3.93-.47-.08-1.34-.08-1.97-.08-.55,0-.86-.24-.86-.55,0-.39,.39-.55,1.18-.55,3.3,0,8.02,.24,8.17,.24,1.1,0,5.89-.24,8.1-.24,.79,0,1.02,.24,1.02,.55s-.39,.55-.86,.55c-.55,0-1.34,.08-2.12,.16-2.2,.31-2.67,1.57-2.83,3.85-.16,2.12-.08,3.85-.08,14.23v11.95Z"/><path class="d" d="M602.62,214.02c-1.02-.47-1.02-.79-1.02-2.67,0-3.62,.24-6.29,.31-7.39,.08-.71,.24-1.1,.63-1.1s.55,.24,.55,.79c0,.47,0,1.41,.24,2.36,1.02,5.11,5.66,7.07,10.22,7.07,6.52,0,9.67-4.48,9.67-8.41,0-4.48-2.04-7.23-7.78-11.87l-3.14-2.44c-7.55-6.05-9.12-10.22-9.12-14.86,0-7.23,5.74-12.1,14.54-12.1,2.75,0,4.64,.24,6.37,.63,1.49,.31,2.12,.39,2.67,.39s.71,.16,.71,.47-.31,3.07-.31,7.62c0,1.18-.16,1.65-.55,1.65s-.47-.31-.55-.86c-.08-.71-.24-2.36-.94-3.69-.39-.71-2.2-3.69-8.8-3.69-4.72,0-8.25,2.83-8.25,7.55,0,3.69,1.89,5.97,8.41,10.93l1.81,1.41c8.17,6.29,10.3,10.45,10.3,16.03,0,2.83-1.18,7.86-5.97,11.16-3.07,1.97-6.84,2.75-10.61,2.75-3.3,0-6.37-.39-9.35-1.73Z"/><path class="d" d="M642.78,183.68c0-10.3,0-12.18-.16-14.31-.16-2.2-.71-3.3-2.99-3.77-.47-.08-1.26-.16-1.89-.16-.55,0-1.02-.24-1.02-.47,0-.47,.39-.63,1.18-.63,1.57,0,3.69,.16,8.1,.24,.39,0,14.38,0,15.96-.08s2.44-.16,3.07-.39c.47-.16,.55-.24,.86-.24,.16,0,.31,.16,.31,.55,0,.47-.47,1.57-.63,3.54-.08,1.34-.16,2.59-.24,4.09,0,.71-.16,1.18-.55,1.18s-.55-.31-.55-.86c-.08-1.18-.31-1.96-.55-2.51-.47-1.57-1.18-2.12-5.11-2.36-1.02-.08-8.8-.16-8.96-.16-.24,0-.39,.16-.39,.63v17.84c0,.47,.08,.79,.47,.79,.94,0,8.96-.08,10.61-.24,1.81-.08,2.99-.31,3.62-1.18,.31-.47,.55-.63,.86-.63,.16,0,.31,.08,.31,.47s-.31,1.89-.55,4.17c-.24,2.2-.24,3.77-.31,4.79-.08,.63-.24,.86-.55,.86-.39,0-.47-.47-.47-1.02,0-.47-.08-1.26-.24-1.89-.31-1.02-.79-2.12-3.77-2.36-1.81-.16-8.17-.31-9.43-.31-.47,0-.55,.24-.55,.55v5.74c0,2.44-.08,9.35,0,10.69,.16,2.91,.55,4.4,2.2,5.11,1.18,.55,3.07,.71,5.74,.71,1.49,0,4.01,.08,5.97-.47,2.36-.71,2.91-2.28,3.54-5.19,.16-.79,.39-1.1,.71-1.1,.47,0,.47,.71,.47,1.18,0,.55-.63,5.5-.86,6.84-.31,1.57-.86,1.73-3.46,1.73-5.19,0-7.39-.16-10.14-.16-2.75-.08-6.37-.24-9.27-.24-1.81,0-3.3,.24-5.19,.24-.71,0-1.1-.16-1.1-.55,0-.31,.31-.55,.71-.55,.47,0,1.02-.08,1.57-.24,1.41-.31,2.36-1.34,2.52-6.21,.08-2.67,.16-5.9,.16-11.87v-11.79Z"/><path class="d" d="M681.45,166.63c0-2.44,.24-3.22,.86-3.22,.55,0,1.89,1.57,2.44,2.12,.71,.79,11.63,11.95,22.64,23.19,6.13,5.97,13.99,14.07,16.03,15.96l-.86-32.7c-.08-4.24-.55-5.66-2.67-6.21-1.34-.24-2.52-.31-3.07-.31-.79,0-.94-.31-.94-.63,0-.39,.63-.47,1.41-.47,3.38,0,6.68,.24,7.39,.24,.79,0,3.22-.24,6.29-.24,.86,0,1.1,.08,1.1,.47,0,.31-.24,.55-.71,.63s-1.1,.08-1.96,.24c-1.81,.39-2.36,1.18-2.36,5.9l-.16,39.46c0,3.93-.16,4.32-.71,4.32s-1.34-.55-5.19-4.17c-.31-.16-11.24-11-18.08-17.68-8.17-8.49-16.03-16.66-18-18.71l1.02,30.73c.16,5.42,.63,7.47,2.59,7.94,1.26,.31,2.59,.31,3.22,.31s.94,.24,.94,.55c0,.39-.39,.55-1.26,.55-4.24,0-7.07-.24-7.62-.24s-3.46,.24-6.84,.24c-.71,0-1.18-.08-1.18-.55,0-.31,.31-.55,1.1-.55,.55,0,1.41,0,2.44-.31,1.73-.55,2.12-2.67,2.12-8.41,0-37.49,.08-25.39,0-38.43Z"/></g><g><path class="d" d="M210.5,82.69c0-12.42,0-14.71-.16-17.33-.16-2.78-.82-4.09-3.51-4.66-.65-.16-2.04-.25-3.19-.25-.82,0-1.39-.16-1.39-.65,0-.65,.65-.82,1.88-.82,3.76,0,7.52,.25,11.77,.25,3.11,0,19.7,0,21.58-.08,1.55-.08,2.53-.08,3.35-.33,.49-.16,.9-.49,1.31-.49,.33,0,.57,.33,.57,.74,0,.57-.41,1.55-.65,3.68-.08,.82-.25,5.64-.41,6.62-.08,.65-.25,1.14-.82,1.14s-.74-.41-.82-1.31c0-.65,0-1.96-.49-3.11-.57-1.14-2.29-2.37-5.39-2.45-2.86-.08-10.14-.16-12.59-.25-.49,0-.74,.25-.74,1.14v20.43c0,.49,.08,.74,.57,.74,2.21,0,7.52-.08,10.46-.08,4.74,0,6.05,0,7.19-1.55,.41-.49,.57-.82,1.06-.82,.33,0,.49,.25,.49,.74s-.41,2.53-.65,5.07c-.16,1.63-.33,5.39-.33,5.97,0,.74,0,1.55-.82,1.55-.49,0-.65-.57-.65-1.14s-.16-1.55-.49-2.53c-.41-1.14-1.63-2.62-4.17-2.94-2.04-.25-10.71-.25-12.1-.25-.41,0-.57,.16-.57,.74v6.62c0,7.85,0,13.98,.41,17.41,.25,2.37,.74,4.17,3.19,4.5,1.14,.16,2.94,.33,4.09,.33,1.06,0,1.39,.25,1.39,.65,0,.57-.57,.82-1.8,.82-5.15,0-10.3-.25-12.42-.25s-7.27,.25-10.38,.25c-1.14,0-1.72-.16-1.72-.82,0-.41,.33-.65,1.23-.65,1.23,0,2.21-.16,2.94-.33,1.63-.33,2.04-2.13,2.37-4.5,.41-3.43,.41-9.56,.41-17.41v-14.39Z"/><path class="d" d="M266.41,98.22c0,10.05,1.96,14.22,5.64,17,3.11,2.37,6.29,2.62,8.58,2.62,3.02,0,6.78-.82,9.56-3.51,4.01-3.76,4.09-10.22,4.09-17.33v-8.66c0-10.46-.16-12.18-.25-14.39-.16-2.37-.57-3.51-2.94-3.92-.57-.16-1.63-.25-2.62-.33-.82,0-1.23-.25-1.23-.74s.41-.74,1.55-.74c3.68,0,8.26,.25,8.5,.25,.98,0,5.48-.25,8.42-.25,1.06,0,1.55,.25,1.55,.74s-.41,.74-1.31,.74c-.82,.08-1.23,.08-2.13,.33-1.88,.33-2.37,1.39-2.53,3.84-.16,2.21-.25,4-.25,14.47v7.36c0,7.76-.74,16.02-6.95,21.09-4.99,4.09-10.22,4.9-14.96,4.9-4.25,0-11.12-.41-16.18-4.82-3.68-3.11-6.46-8.17-6.46-18.31v-10.22c0-10.63,0-12.26-.16-14.55-.16-2.21-.65-3.27-2.86-3.76-.65-.16-1.96-.25-2.94-.33-.82,0-1.31-.33-1.31-.82s.57-.65,1.72-.65c3.68,0,8.66,.25,10.54,.25,1.55,0,6.87-.25,9.4-.25,1.14,0,1.63,.25,1.63,.74s-.49,.74-1.23,.74c-.74,.08-1.31,.16-2.13,.33-1.96,.33-2.53,1.55-2.62,3.92-.16,2.21-.16,4.25-.16,14.39v9.89Z"/><path class="d" d="M321.99,69.61c0-1.55,.25-2.53,1.06-2.53,.74,0,1.39,.82,2.62,2.04,1.31,1.14,10.87,11.03,22.56,21.99,5.31,5.07,14.47,14.39,15.78,15.53l-.65-30.24c-.08-4.17-.65-5.56-2.62-6.29-1.06-.33-2.7-.33-3.68-.41-.9,0-1.23-.41-1.23-.82,0-.57,.82-.65,1.8-.65,3.6,0,7.27,.25,9.07,.25,.9,0,3.84-.25,7.27-.25,.9,0,1.55,.16,1.55,.74,0,.41-.33,.74-1.23,.74-.74,.08-1.31,.08-2.04,.25-2.12,.57-2.78,1.96-2.86,5.89-.33,10.46-.49,28.69-.74,43.24,0,1.88-.41,2.53-1.06,2.53-.9,0-1.96-.9-3.51-2.29-4.58-4.17-13.32-12.59-20.11-19.13-7.19-6.7-15.2-15.2-17.16-17.25l.74,28.36c.16,5.31,.98,7.03,2.45,7.52,1.23,.41,2.62,.41,3.84,.49,.74,0,1.23,.25,1.23,.65,0,.57-.65,.82-1.63,.82-4.25,0-7.11-.25-8.99-.25-.9,0-4.66,.25-8.17,.25-.9,0-1.55-.08-1.55-.74,0-.41,.41-.74,1.14-.74,.9-.08,2.12-.08,3.11-.33,2.04-.57,2.37-2.37,2.45-8.42,.16-14.71,.57-31.8,.57-40.95Z"/><path class="d" d="M392.36,88.33c0-10.46,0-12.26-.16-14.47-.16-2.29-.65-3.76-3.11-4.01l-2.78-.25c-.82,0-1.23-.25-1.23-.74s.49-.65,1.55-.65c3.43,0,8.34,.25,10.54,.25,2.37,0,6.54-.25,11.28-.25,9.65,0,20.76,.33,28.44,8.01,3.6,3.51,6.95,9.32,6.95,17.66s-3.84,15.28-7.85,19.29c-3.35,3.27-10.38,8.17-23.87,8.17-5.23,0-11.69-.82-15.2-.82-1.96,0-6.38,.25-9.4,.25-.98,0-1.39-.25-1.39-.74,0-.33,.41-.74,1.23-.74s1.63-.08,2.53-.25c2.78-.49,2.45-7.52,2.45-18.47v-12.26Zm9.65,7.68c0,7.36,.08,12.51,.16,13.81,.08,1.96,.16,4.09,.9,5.23,.82,1.31,3.84,2.7,9.07,2.7,6.87,0,11.36-1.31,15.61-4.99,4.5-3.76,5.8-9.89,5.8-17,0-8.34-3.6-13.81-6.7-16.92-6.21-6.05-13.98-7.03-19.37-7.03-1.47,0-4.09,.25-4.58,.65-.74,.57-.9,.74-.9,14.96v8.58Z"/><path class="d" d="M466.83,103.53c-.33,0-.49,.16-.65,.57l-3.6,8.91c-.65,1.72-1.06,3.43-1.06,4.25,0,2.04,2.53,2.13,4.09,2.13,.98,0,1.23,.33,1.23,.65,0,.57-.57,.74-1.31,.74-2.53,0-5.48-.25-8.01-.25-.82,0-4.9,.25-8.66,.25-.9,0-1.31-.16-1.31-.74,0-.41,.41-.74,.98-.74,5.15-.49,6.29-1.47,8.17-6.21l17.33-40.95c1.47-3.84,2.29-5.39,3.19-5.39,.65,0,1.06,.74,1.88,2.53,1.39,4,13.49,31.88,18.06,42.34,2.62,6.13,4.66,7.19,6.38,7.52,.74,.16,1.96,.16,2.7,.16,.9,0,1.23,.33,1.23,.74,0,.49-.33,.74-1.39,.74-3.43,0-12.01,.16-17.16-.16-.74-.08-1.23-.25-1.23-.65,0-.33,.33-.49,.74-.65,.74-.25,1.31-.49,.82-1.47l-5.56-13.81c-.08-.33-.33-.49-.65-.49h-16.18Zm14.63-4.09c.41,0,.41-.16,.33-.41l-6.38-16.67c-.25-.65-.49-.82-.82,0l-6.46,16.67c-.08,.25,0,.41,.33,.41h13Z"/><path class="d" d="M519.05,114.16c-7.11-5.97-8.99-13.65-8.99-20.52,0-4.74,1.55-13,8.5-19.13,5.39-4.66,12.34-7.27,22.97-7.27,4.41,0,7.19,.25,10.46,.74,2.78,.41,4.9,.9,7.11,1.14,.74,.08,1.06,.41,1.06,.82,0,.57-.16,1.55-.33,4-.08,2.29-.08,6.29-.25,7.77-.08,1.06-.25,1.63-.9,1.63-.57,0-.9-.57-.9-1.55-.08-2.04-.74-4.5-2.7-6.46-2.37-2.53-7.85-4.33-14.47-4.33-5.97,0-9.97,1.39-13.08,4.09-4.99,4.5-6.54,10.95-6.54,17.82,0,16.1,12.02,24.44,22.31,24.44,6.38,0,9.97-.65,12.75-3.76,1.23-1.31,2.04-3.27,2.37-4.74,.33-1.23,.57-1.47,1.14-1.47,.49,0,.74,.49,.74,1.06,0,.9-.9,7.11-1.63,9.64-.33,1.23-.65,1.55-1.88,2.04-2.86,1.14-8.26,1.55-12.83,1.55-9.81,0-18.23-1.88-24.93-7.52Z"/><path class="d" d="M577.74,88.33c0-10.63,0-12.26-.16-14.55-.16-2.29-.9-3.43-2.45-3.76-.74-.16-1.63-.25-2.53-.33-.74,0-1.14-.25-1.14-.82,0-.41,.49-.65,1.63-.65,2.86,0,7.77,.25,9.56,.25,1.63,0,6.46-.25,9.24-.25,.98,0,1.39,.25,1.39,.65,0,.57-.41,.82-1.14,.82-.74,.08-1.06,.08-1.88,.25-1.96,.33-2.53,1.55-2.7,3.92-.24,2.21-.24,3.84-.24,14.47v12.26c0,6.54,.08,11.85,.41,14.79,.16,1.88,.74,3.35,2.86,3.6,1.06,.25,2.04,.25,3.11,.33,.9,0,1.23,.41,1.23,.74,0,.49-.57,.74-1.39,.74-4.82,0-9.48-.25-11.2-.25-1.39,0-6.29,.25-9.15,.25-.98,0-1.47-.25-1.47-.74,0-.33,.33-.74,1.23-.74,.98-.08,1.55-.08,2.21-.25,1.39-.33,2.04-1.55,2.21-3.51,.41-2.94,.41-8.17,.41-14.96v-12.26Z"/><path class="d" d="M604.55,94.54c0-12.26,8.17-27.3,29.67-27.3,17.98,0,28.93,11.03,28.93,25.99,0,15.94-11.2,28.44-29.59,28.44-20.52,0-29.02-14.79-29.02-27.14Zm47.98,1.31c0-14.79-8.5-24.93-20.43-24.93-8.01,0-17,4.09-17,21.25,0,14.22,7.77,25.67,21.33,25.67,4.99,0,16.1-2.04,16.1-21.99Zm-6.54-41.2c.41,.9,.08,1.23-.33,1.23s-2.29,.33-3.68,.9c-4.25,1.63-7.44,3.19-11.12,5.07-.49,.33-1.06,.57-1.39,.57-.16,0-.57-.08-.57-.49,0-.33,.33-.65,.65-1.14,2.45-2.86,7.76-8.01,9.81-9.48,1.06-.82,1.88-1.23,2.21-1.23,.41,0,.9,.25,1.63,.82,.82,.9,1.8,1.96,2.78,3.76Z"/><path class="d" d="M680.57,69.61c0-1.55,.25-2.53,1.06-2.53,.74,0,1.39,.82,2.62,2.04,1.31,1.14,10.87,11.03,22.56,21.99,5.31,5.07,14.47,14.39,15.78,15.53l-.65-30.24c-.08-4.17-.65-5.56-2.62-6.29-1.06-.33-2.7-.33-3.68-.41-.9,0-1.23-.41-1.23-.82,0-.57,.82-.65,1.8-.65,3.6,0,7.27,.25,9.07,.25,.9,0,3.84-.25,7.27-.25,.9,0,1.55,.16,1.55,.74,0,.41-.33,.74-1.23,.74-.74,.08-1.31,.08-2.04,.25-2.12,.57-2.78,1.96-2.86,5.89-.33,10.46-.49,28.69-.74,43.24,0,1.88-.41,2.53-1.06,2.53-.9,0-1.96-.9-3.51-2.29-4.58-4.17-13.32-12.59-20.11-19.13-7.19-6.7-15.2-15.2-17.16-17.25l.74,28.36c.16,5.31,.98,7.03,2.45,7.52,1.23,.41,2.62,.41,3.84,.49,.74,0,1.23,.25,1.23,.65,0,.57-.65,.82-1.63,.82-4.25,0-7.11-.25-8.99-.25-.9,0-4.66,.25-8.17,.25-.9,0-1.55-.08-1.55-.74,0-.41,.41-.74,1.14-.74,.9-.08,2.12-.08,3.11-.33,2.04-.57,2.37-2.37,2.45-8.42,.16-14.71,.57-31.8,.57-40.95Z"/></g></g></g></g></g></svg>